<?xml version="1.0" encoding="UTF-8" standalone="no"?>
<svg width="297px" height="46px" viewBox="0 0 297 46" version="1.1" xmlns="http://www.w3.org/2000/svg" xmlns:xlink="http://www.w3.org/1999/xlink">
    <!-- Generator: Sketch 49.1 (51147) - http://www.bohemiancoding.com/sketch -->
    <title>Page 1</title>
    <desc>Created with Sketch.</desc>
    <defs>
        <polygon id="path-1" points="6.91302558e-05 0.678 89.6551 0.678 89.6551 45.1017 6.91302558e-05 45.1017"></polygon>
        <polygon id="path-3" points="0 46 296.461 46 296.461 0.678 0 0.678"></polygon>
    </defs>
    <g id="表单" stroke="none" stroke-width="1" fill="none" fill-rule="evenodd">
        <g id="Artboard" transform="translate(-1923.000000, -1607.000000)">
            <g id="Page-1" transform="translate(1923.000000, 1606.000000)">
                <path d="M91.8775,13.89 L88.6205,6.482 L85.1715,13.89 L91.8775,13.89 Z M81.5015,21.992 L74.6705,21.992 L85.2125,1.632 L92.7745,1.632 L102.8335,21.992 L95.2445,21.992 L93.7135,18.322 L83.1435,18.322 L81.5015,21.992 Z" id="Fill-1" fill="#EC6C00"></path>
                <polygon id="Fill-2" fill="#EC6C00" points="103.831 21.9921 110.387 21.9921 110.387 1.6321 103.831 1.6321"></polygon>
                <path d="M114.346,21.9921 L120.902,21.9921 L120.902,7.8181 L114.346,7.8181 L114.346,21.9921 Z M114.346,5.8091 L120.902,5.8091 L120.902,1.6551 L114.346,1.6551 L114.346,5.8091 Z" id="Fill-3" fill="#EC6C00"></path>
                <g id="Group-45" transform="translate(0.000000, 0.322100)">
                    <path d="M137.7139,14.6338 C137.7139,13.3828 137.4199,12.3958 136.8309,11.6728 C136.2429,10.9508 135.4439,10.5898 134.4329,10.5898 C133.3469,10.5898 132.5169,10.9368 131.9439,11.6318 C131.3689,12.3268 131.0799,13.3358 131.0799,14.6618 C131.0799,15.9128 131.3709,16.8868 131.9489,17.5808 C132.5289,18.2758 133.3369,18.6228 134.3769,18.6228 C135.3979,18.6228 136.2099,18.2638 136.8109,17.5458 C137.4129,16.8278 137.7139,15.8578 137.7139,14.6338 Z M124.5799,1.3098 L131.1349,1.3098 L131.1349,9.5108 C131.9169,8.7088 132.7889,8.1068 133.7539,7.7048 C134.7189,7.3038 135.7759,7.1038 136.9239,7.1038 C139.1569,7.1038 140.9519,7.8168 142.3079,9.2438 C143.6629,10.6708 144.3399,12.5628 144.3399,14.9188 C144.3399,17.0638 143.6719,18.7828 142.3349,20.0768 C140.9969,21.3708 139.2229,22.0158 137.0079,22.0158 C135.7859,22.0158 134.6779,21.7938 133.6839,21.3468 C132.6929,20.9018 131.8429,20.2458 131.1349,19.3808 C131.1349,19.8498 131.1179,20.2778 131.0799,20.6638 C131.0439,21.0498 130.9839,21.3848 130.8999,21.6698 L124.3449,21.6698 C124.4199,21.4038 124.4749,21.0698 124.5169,20.6708 C124.5589,20.2698 124.5799,19.8138 124.5799,19.2988 L124.5799,1.3098 Z" id="Fill-4" fill="#EC6C00"></path>
                    <path d="M158.6997,15.5293 C156.5787,15.5293 155.1327,15.6673 154.3647,15.9423 C153.5937,16.2183 153.2087,16.7003 153.2087,17.3893 C153.2087,17.8583 153.3957,18.2223 153.7687,18.4843 C154.1427,18.7463 154.6697,18.8763 155.3537,18.8763 C156.4687,18.8763 157.3047,18.6163 157.8617,18.0983 C158.4197,17.5803 158.6997,16.7973 158.6997,15.7503 L158.6997,15.5293 Z M158.8367,19.5783 C158.2127,20.3973 157.4017,21.0043 156.4087,21.4003 C155.4137,21.7953 154.2107,21.9933 152.7947,21.9933 C150.7777,21.9933 149.2277,21.6343 148.1427,20.9173 C147.0577,20.1993 146.5157,19.1833 146.5157,17.8683 C146.5157,16.0753 147.4517,14.7803 149.3227,13.9843 C151.1957,13.1883 154.3287,12.7733 158.7257,12.7363 C158.7257,12.7083 158.7307,12.6563 158.7407,12.5783 C158.7497,12.4993 158.7537,12.4423 158.7537,12.4063 C158.7537,11.6803 158.5357,11.1393 158.0997,10.7813 C157.6617,10.4233 157.0077,10.2433 156.1337,10.2433 C155.3437,10.2433 154.7367,10.3743 154.3137,10.6363 C153.8907,10.8973 153.6397,11.2903 153.5567,11.8133 L147.5067,11.8133 C147.5357,10.2413 148.2797,9.0703 149.7437,8.3023 C151.2057,7.5333 153.4377,7.1503 156.4377,7.1503 C159.3177,7.1503 161.4627,7.5973 162.8697,8.4943 C164.2767,9.3903 164.9817,10.7553 164.9817,12.5853 L164.9817,19.8133 C164.9817,20.2623 165.0037,20.6243 165.0447,20.9003 C165.0857,21.1753 165.1567,21.4313 165.2577,21.6703 L159.1827,21.6703 C159.0617,21.3313 158.9747,20.9903 158.9197,20.6463 C158.8657,20.3023 158.8367,19.9463 158.8367,19.5783 Z" id="Fill-6" fill="#EC6C00"></path>
                    <path d="M181.7896,14.6338 C181.7896,13.3828 181.4946,12.3958 180.9066,11.6728 C180.3176,10.9508 179.5176,10.5898 178.5066,10.5898 C177.4216,10.5898 176.5926,10.9368 176.0176,11.6318 C175.4426,12.3268 175.1556,13.3358 175.1556,14.6618 C175.1556,15.9128 175.4446,16.8868 176.0226,17.5808 C176.6036,18.2758 177.4126,18.6228 178.4526,18.6228 C179.4726,18.6228 180.2826,18.2638 180.8846,17.5458 C181.4886,16.8278 181.7896,15.8578 181.7896,14.6338 Z M168.6546,1.3098 L175.2106,1.3098 L175.2106,9.5108 C175.9906,8.7088 176.8646,8.1068 177.8296,7.7048 C178.7926,7.3038 179.8516,7.1038 180.9996,7.1038 C183.2316,7.1038 185.0266,7.8168 186.3816,9.2438 C187.7366,10.6708 188.4156,12.5628 188.4156,14.9188 C188.4156,17.0638 187.7456,18.7828 186.4086,20.0768 C185.0726,21.3708 183.2956,22.0158 181.0816,22.0158 C179.8586,22.0158 178.7516,21.7938 177.7606,21.3468 C176.7676,20.9018 175.9166,20.2458 175.2106,19.3808 C175.2106,19.8498 175.1926,20.2778 175.1556,20.6638 C175.1196,21.0498 175.0596,21.3848 174.9756,21.6698 L168.4206,21.6698 C168.4926,21.4038 168.5506,21.0698 168.5926,20.6708 C168.6346,20.2698 168.6546,19.8138 168.6546,19.2988 L168.6546,1.3098 Z" id="Fill-8" fill="#EC6C00"></path>
                    <path d="M202.7735,15.5293 C200.6525,15.5293 199.2085,15.6673 198.4385,15.9423 C197.6685,16.2183 197.2825,16.7003 197.2825,17.3893 C197.2825,17.8583 197.4705,18.2223 197.8435,18.4843 C198.2185,18.7463 198.7445,18.8763 199.4275,18.8763 C200.5415,18.8763 201.3785,18.6163 201.9375,18.0983 C202.4945,17.5803 202.7735,16.7973 202.7735,15.7503 L202.7735,15.5293 Z M202.9105,19.5783 C202.2845,20.3973 201.4765,21.0043 200.4835,21.4003 C199.4875,21.7953 198.2845,21.9933 196.8685,21.9933 C194.8535,21.9933 193.3015,21.6343 192.2165,20.9173 C191.1325,20.1993 190.5895,19.1833 190.5895,17.8683 C190.5895,16.0753 191.5255,14.7803 193.3975,13.9843 C195.2705,13.1883 198.4035,12.7733 202.8015,12.7363 C202.8015,12.7083 202.8065,12.6563 202.8155,12.5783 C202.8245,12.4993 202.8275,12.4423 202.8275,12.4063 C202.8275,11.6803 202.6095,11.1393 202.1735,10.7813 C201.7375,10.4233 201.0815,10.2433 200.2095,10.2433 C199.4185,10.2433 198.8115,10.3743 198.3895,10.6363 C197.9655,10.8973 197.7135,11.2903 197.6315,11.8133 L191.5825,11.8133 C191.6095,10.2413 192.3535,9.0703 193.8175,8.3023 C195.2805,7.5333 197.5135,7.1503 200.5125,7.1503 C203.3925,7.1503 205.5365,7.5973 206.9455,8.4943 C208.3535,9.3903 209.0575,10.7553 209.0575,12.5853 L209.0575,19.8133 C209.0575,20.2623 209.0775,20.6243 209.1195,20.9003 C209.1605,21.1753 209.2325,21.4313 209.3335,21.6703 L203.2565,21.6703 C203.1365,21.3313 203.0495,20.9903 202.9935,20.6463 C202.9395,20.3023 202.9105,19.9463 202.9105,19.5783 Z" id="Fill-10" fill="#EC6C00"></path>
                    <path d="M229.4146,13.752 L229.4146,11.375 L237.9786,11.375 L237.9786,18.864 C236.6616,19.91 235.3076,20.697 233.9096,21.225 C232.5136,21.752 231.0786,22.016 229.6076,22.016 C227.6216,22.016 225.8176,21.591 224.1946,20.74 C222.5716,19.889 221.3486,18.659 220.5196,17.05 C219.6916,15.439 219.2796,13.643 219.2796,11.656 C219.2796,9.689 219.6906,7.851 220.5146,6.144 C221.3346,4.438 222.5196,3.172 224.0646,2.344 C225.6086,1.516 227.3876,1.102 229.3996,1.102 C230.8616,1.102 232.1826,1.339 233.3626,1.814 C234.5456,2.288 235.4726,2.948 236.1436,3.796 C236.8146,4.643 237.3236,5.748 237.6716,7.111 L235.2496,7.773 C234.9466,6.741 234.5706,5.93 234.1216,5.339 C233.6716,4.748 233.0306,4.275 232.1926,3.92 C231.3576,3.564 230.4326,3.387 229.4146,3.387 C228.1926,3.387 227.1386,3.574 226.2486,3.947 C225.3566,4.321 224.6396,4.812 224.0936,5.421 C223.5466,6.029 223.1236,6.698 222.8206,7.426 C222.3056,8.68 222.0496,10.04 222.0496,11.506 C222.0496,13.314 222.3586,14.826 222.9786,16.043 C223.5976,17.26 224.4976,18.163 225.6846,18.754 C226.8656,19.344 228.1246,19.638 229.4536,19.638 C230.6106,19.638 231.7386,19.415 232.8406,18.967 C233.9406,18.52 234.7776,18.041 235.3466,17.533 L235.3466,13.752 L229.4146,13.752 Z" id="Fill-12" fill="#EC6C00"></path>
                    <path d="M241.5806,21.67 L241.5806,7.011 L243.8206,7.011 L243.8206,9.237 C244.3946,8.199 244.9216,7.515 245.4076,7.184 C245.8906,6.854 246.4256,6.689 247.0076,6.689 C247.8466,6.689 248.7006,6.953 249.5686,7.482 L248.7016,9.784 C248.0926,9.428 247.4856,9.251 246.8786,9.251 C246.3366,9.251 245.8486,9.414 245.4146,9.74 C244.9836,10.067 244.6746,10.521 244.4896,11.1 C244.2136,11.983 244.0746,12.949 244.0746,13.998 L244.0746,21.67 L241.5806,21.67 Z" id="Fill-14" fill="#EC6C00"></path>
                    <path d="M253.1001,14.3453 C253.1001,16.2223 253.5091,17.6273 254.3271,18.5613 C255.1441,19.4953 256.1721,19.9623 257.4131,19.9623 C258.6431,19.9623 259.6681,19.4923 260.4841,18.5533 C261.3011,17.6163 261.7091,16.1853 261.7091,14.2623 C261.7091,12.4503 261.2991,11.0773 260.4771,10.1433 C259.6571,9.2103 258.6331,8.7423 257.4131,8.7423 C256.1721,8.7423 255.1441,9.2073 254.3271,10.1363 C253.5091,11.0653 253.1001,12.4683 253.1001,14.3453 M250.5361,14.3413 C250.5361,11.6293 251.2921,9.6203 252.8021,8.3153 C254.0621,7.2303 255.5991,6.6883 257.4131,6.6883 C259.4281,6.6883 261.0761,7.3473 262.3551,8.6663 C263.6321,9.9853 264.2731,11.8083 264.2731,14.1343 C264.2731,16.0183 263.9901,17.5013 263.4231,18.5803 C262.8581,19.6613 262.0351,20.4993 260.9531,21.0963 C259.8731,21.6943 258.6911,21.9933 257.4131,21.9933 C255.3601,21.9933 253.7021,21.3363 252.4361,20.0213 C251.1691,18.7073 250.5361,16.8133 250.5361,14.3413" id="Fill-16" fill="#EC6C00"></path>
                    <path d="M277.1812,21.67 L277.1812,19.502 C276.0402,21.162 274.4922,21.993 272.5362,21.993 C271.6692,21.993 270.8652,21.828 270.1162,21.496 C269.3662,21.166 268.8102,20.749 268.4482,20.248 C268.0842,19.746 267.8302,19.133 267.6822,18.407 C267.5812,17.919 267.5312,17.147 267.5312,16.088 L267.5312,7.011 L270.0252,7.011 L270.0252,15.131 C270.0252,16.428 270.0752,17.301 270.1762,17.751 C270.3312,18.403 270.6632,18.916 271.1672,19.288 C271.6722,19.66 272.2982,19.847 273.0412,19.847 C273.7862,19.847 274.4832,19.656 275.1362,19.274 C275.7882,18.893 276.2492,18.374 276.5192,17.716 C276.7902,17.059 276.9272,16.107 276.9272,14.856 L276.9272,7.011 L279.4192,7.011 L279.4192,21.67 L277.1812,21.67 Z" id="Fill-18" fill="#EC6C00"></path>
                    <path d="M285.9785,14.4253 C285.9785,16.3123 286.3595,17.7063 287.1225,18.6083 C287.8845,19.5103 288.8045,19.9623 289.8895,19.9623 C290.9905,19.9623 291.9335,19.4953 292.7195,18.5603 C293.5055,17.6263 293.8965,16.1783 293.8965,14.2183 C293.8965,12.3503 293.5145,10.9513 292.7465,10.0213 C291.9815,9.0923 291.0645,8.6273 290.0005,8.6273 C288.9435,8.6273 288.0085,9.1223 287.1965,10.1113 C286.3855,11.1003 285.9785,12.5383 285.9785,14.4253 Z M283.7395,27.2793 L283.7395,7.0113 L286.0005,7.0113 L286.0005,8.9173 C286.5335,8.1733 287.1385,7.6163 287.8115,7.2453 C288.4815,6.8733 289.2955,6.6883 290.2505,6.6883 C291.5005,6.6883 292.6065,7.0093 293.5635,7.6533 C294.5185,8.2973 295.2395,9.2053 295.7275,10.3763 C296.2155,11.5493 296.4605,12.8333 296.4605,14.2303 C296.4605,15.7283 296.1905,17.0783 295.6525,18.2773 C295.1155,19.4763 294.3325,20.3953 293.3105,21.0343 C292.2845,21.6743 291.2065,21.9933 290.0805,21.9933 C289.2525,21.9933 288.5095,21.8193 287.8515,21.4713 C287.1955,21.1243 286.6545,20.6853 286.2335,20.1543 L286.2335,27.2793 L283.7395,27.2793 Z" id="Fill-20" fill="#EC6C00"></path>
                    <path d="M10.0269,39.8482 C9.6629,39.8052 9.0949,39.4832 8.6909,39.1592 C4.8529,35.4002 9.7819,31.0752 15.4829,28.5692 L15.4829,21.4152 C16.8169,22.2642 17.5449,22.3042 17.5849,22.4252 L21.9499,18.1012 L20.4949,14.3812 C33.2689,9.9752 38.4009,8.2782 48.7899,6.5402 L46.9279,4.8012 L49.9619,3.0642 C56.9539,5.3692 63.5449,5.9742 62.4109,11.8352 C62.6949,7.8752 57.7629,6.3372 50.2449,4.2372 L48.7899,5.1242 L51.5779,7.4292 C39.1289,9.5712 31.4899,11.9972 22.3949,15.1492 L23.6469,18.3842 L19.0809,22.8692 C19.8499,23.0732 27.8119,25.7392 36.0959,19.9602 C36.0959,19.9602 36.2599,19.8382 36.2599,19.7992 C36.0189,19.3932 35.4509,18.9492 34.7649,18.3442 C37.1899,18.5052 38.7639,20.6472 38.4819,22.8692 L37.3509,22.8692 C37.4309,22.1422 37.2689,21.3742 37.0279,20.8492 C30.6009,25.5382 23.1629,26.2252 16.8169,24.0022 L16.8169,29.5392 C13.7449,30.6312 8.2459,34.0252 8.2879,37.3012 C8.4899,38.8762 9.2989,39.4432 10.0269,39.8482" id="Fill-22" fill="#231916"></path>
                    <g id="Group-26">
                        <mask id="mask-2" fill="white">
                            <use xlink:href="#path-1"></use>
                        </mask>
                        <g id="Clip-25"></g>
                        <path d="M36.0191,38.4327 C29.1431,41.9107 22.5571,44.6987 12.4111,45.1017 C-0.8059,44.8187 -2.8669,36.0467 3.3971,26.8717 C9.2991,17.6167 18.6771,9.2477 33.5931,4.0327 C37.9161,2.4987 44.2631,0.7607 50.4071,0.6797 C59.2191,0.5977 67.7891,3.3477 67.2221,11.7957 C66.8981,18.2627 57.5631,27.3987 52.6301,33.9467 C50.5271,36.8147 50.1631,38.6757 53.7601,38.5147 C66.8191,37.6637 78.6611,33.1387 89.6551,28.4487 C82.2191,33.5007 43.7761,52.5387 43.6171,39.5657 C43.6561,37.9067 44.4231,36.1697 45.6761,34.3107 C46.8911,32.4507 48.5881,30.5097 50.3261,28.5297 C52.9531,25.5377 59.4601,18.3837 61.6421,14.0987 C65.3211,5.9747 57.0761,5.5697 49.9611,3.0647 L46.9281,4.8007 L48.7891,6.5397 C38.4011,8.2777 33.2681,9.9747 20.4951,14.3817 L21.9501,18.1017 L17.5851,22.4257 C17.4641,22.3047 16.8171,22.2647 15.4831,21.4147 L15.4831,28.5697 C9.7821,31.0757 4.8521,35.3997 8.6911,39.1597 C9.0951,39.4837 9.6621,39.8057 10.0271,39.8487 C17.0191,43.8107 36.0561,38.4327 36.0191,38.4327" id="Fill-24" fill="#EC6C00" mask="url(#mask-2)"></path>
                    </g>
                    <path d="M76.2993,43.4746 L76.2993,40.2716 L77.7153,40.2716 C77.9973,40.2716 78.2163,40.2996 78.3613,40.3526 C78.5103,40.4166 78.6243,40.5116 78.7123,40.6636 C78.8053,40.8066 78.8473,40.9656 78.8473,41.1436 C78.8473,41.3706 78.7723,41.5636 78.6303,41.7206 C78.4813,41.8716 78.2573,41.9706 77.9503,42.0176 C78.0643,42.0706 78.1483,42.1206 78.2063,42.1756 C78.3243,42.2936 78.4463,42.4306 78.5523,42.6006 L79.1093,43.4746 L78.5773,43.4746 L78.1613,42.8136 C78.0373,42.6146 77.9293,42.4726 77.8553,42.3676 C77.7733,42.2656 77.7033,42.1956 77.6383,42.1526 C77.5733,42.1126 77.5133,42.0796 77.4473,42.0636 C77.3993,42.0596 77.3233,42.0516 77.2123,42.0516 L76.7243,42.0516 L76.7243,43.4746 L76.2993,43.4746 Z M76.7243,41.6736 L77.6293,41.6736 C77.8223,41.6736 77.9683,41.6536 78.0763,41.6196 C78.1903,41.5786 78.2713,41.5086 78.3243,41.4276 C78.3793,41.3356 78.4113,41.2466 78.4113,41.1436 C78.4113,40.9936 78.3533,40.8686 78.2473,40.7726 C78.1373,40.6776 77.9683,40.6296 77.7343,40.6296 L76.7243,40.6296 L76.7243,41.6736 Z" id="Fill-27" fill="#EC6C00"></path>
                    <path d="M75,42.021 C75,40.603 76.151,39.45 77.57,39.45 C78.988,39.45 80.142,40.603 80.142,42.021 C80.142,43.434 78.988,44.587 77.57,44.587 C76.151,44.587 75,43.434 75,42.021 M77.57,45.065 C79.251,45.065 80.618,43.697 80.618,42.021 C80.618,40.34 79.251,38.973 77.57,38.973 C75.894,38.973 74.528,40.34 74.528,42.021 C74.528,43.697 75.894,45.065 77.57,45.065" id="Fill-29" fill="#EC6C00"></path>
                    <path d="M110.3623,28.5074 L110.3623,30.6174 L117.6693,30.6174 L117.6693,43.4774 L117.6693,45.7634 C118.4863,45.7634 120.2513,44.9754 120.2513,43.3364 L120.2513,30.6174 C120.7773,30.6174 121.2113,29.0814 121.2113,28.5074 L110.3623,28.5074 Z M113.3873,40.5494 L114.6813,40.5494 L114.6813,33.9764 L113.3873,33.9764 L113.3873,40.5494 Z M117.0793,39.6854 L117.0793,31.9594 L110.9873,31.9594 L110.9873,42.5184 L114.0103,42.5184 C114.4903,42.4704 115.0693,42.2774 115.5443,41.9424 C115.8363,41.7504 116.0763,41.5594 116.3153,41.3184 C116.7463,40.8384 117.0793,40.2624 117.0793,39.6854 Z M107.4863,34.2164 C107.4863,34.5024 107.2473,34.9854 106.9573,35.2724 C106.9113,35.3234 106.7663,35.4664 106.7663,35.4664 C106.7433,35.4864 106.7183,35.5124 106.6693,35.5124 L107.4863,35.5124 L107.4863,40.5014 L106.4783,40.5014 L106.4783,30.6174 L107.4863,30.6174 L107.4863,34.2164 Z M103.9343,28.5074 L103.9343,45.7634 C105.1333,45.7634 106.4723,44.6764 106.4723,43.4774 L106.4723,42.5734 L107.9093,42.5734 C108.8703,42.5254 109.9793,41.1744 109.9793,40.5014 L109.9793,36.6624 C109.9793,35.9414 109.1633,35.4184 108.7773,35.1284 C109.1633,34.7914 109.9793,34.2164 109.9793,33.4944 L109.9793,28.5074 L103.9343,28.5074 Z" id="Fill-31" fill="#EC6C00"></path>
                    <path d="M129.5562,32.6963 L125.8992,32.6963 L125.8992,30.4553 L127.7032,30.4553 L129.5562,30.4553 L129.5562,32.6963 Z M125.8992,36.8963 L129.5562,36.8963 L129.5562,34.6533 L125.8992,34.6533 L125.8992,36.8963 Z M132.6312,34.6533 L133.9482,34.6533 C134.1422,34.6533 134.3392,34.6023 134.5322,34.4543 C134.7762,34.3103 135.9472,32.8443 136.0942,32.6963 L132.6312,32.6963 L132.6312,30.4553 L136.3872,30.4553 L136.3872,36.8963 L132.6312,36.8963 L132.6312,34.6533 Z M132.6312,43.7753 L132.6312,42.1613 L137.7552,42.1613 C138.4962,42.1613 139.1652,40.8973 139.5602,40.2133 L132.6312,40.2133 L132.6312,38.8473 L136.4842,38.8473 C137.5782,38.8473 139.3602,37.3323 139.4102,36.5523 L139.4102,28.5073 L122.9242,28.5073 L122.9242,38.8473 L129.5562,38.8473 L129.5562,40.2133 L122.9242,40.2133 L122.9242,42.1613 L129.5562,42.1613 L129.5562,43.7753 L122.7312,43.7753 L122.7312,45.7723 L138.1922,45.7723 C138.8272,45.7723 139.4102,44.5073 139.8992,43.7753 L132.6312,43.7753 Z" id="Fill-33" fill="#EC6C00"></path>
                    <mask id="mask-4" fill="white">
                        <use xlink:href="#path-3"></use>
                    </mask>
                    <g id="Clip-36"></g>
                    <path d="M144.831,36.453 L148.485,36.453 L148.485,30.726 L144.831,30.726 L144.831,36.453 Z M151.496,36.453 L154.972,36.453 L154.972,30.726 L151.496,30.726 L151.496,36.453 Z M144.808,43.536 L144.808,38.674 L155.347,38.674 C156.298,38.674 158.012,37.096 158.056,36.306 L158.056,28.507 L141.696,28.507 L141.696,43.362 C141.696,44.548 142.41,45.78 143.745,45.78 L156.235,45.78 C157.175,45.78 158.307,44.278 158.503,43.536 L144.808,43.536 Z" id="Fill-35" fill="#EC6C00" mask="url(#mask-4)"></path>
                    <path d="M163.691,36.453 L167.34,36.453 L167.34,30.726 L163.691,30.726 L163.691,36.453 Z M170.353,36.453 L173.832,36.453 L173.832,30.726 L170.353,30.726 L170.353,36.453 Z M163.66,43.536 L163.66,38.674 L174.202,38.674 C175.157,38.674 176.867,37.096 176.918,36.306 L176.918,28.507 L160.556,28.507 L160.556,43.362 C160.556,44.548 161.272,45.78 162.603,45.78 L175.09,45.78 C176.032,45.78 177.165,44.278 177.363,43.536 L163.66,43.536 Z" id="Fill-37" fill="#EC6C00" mask="url(#mask-4)"></path>
                    <path d="M188.189,39.9546 L188.189,39.4126 L189.416,39.4126 L189.416,39.8786 L196.847,39.8786 C196.847,39.8786 196.666,40.8796 195.044,40.8796 L189.495,40.8796 L189.495,43.5646 C189.495,45.6006 188.189,45.8446 188.189,45.8446 L188.189,40.9556 L179.337,40.9556 L179.337,39.9546 L188.189,39.9546 Z" id="Fill-38" fill="#EC6C00" mask="url(#mask-4)"></path>
                    <path d="M182.8272,42.5137 L184.1512,42.5137 C184.1512,42.5137 182.7722,44.2877 182.3582,44.7527 C181.9442,45.2147 181.3902,45.9527 180.5922,45.9527 C180.1452,45.9527 179.9972,45.9637 179.9972,45.9637 L182.8272,42.5137 Z" id="Fill-39" fill="#EC6C00" mask="url(#mask-4)"></path>
                    <path d="M194.1646,42.5137 L192.8406,42.5137 C192.8406,42.5137 194.2196,44.2877 194.6326,44.7527 C195.0466,45.2147 195.5986,45.9527 196.3976,45.9527 C196.8436,45.9527 196.9916,45.9637 196.9916,45.9637 L194.1646,42.5137 Z" id="Fill-40" fill="#EC6C00" mask="url(#mask-4)"></path>
                    <path d="M188.189,31.8194 L181.91,31.8194 L181.905,31.2614 L182.224,30.8064 L182.647,30.2664 L188.189,30.2664 L188.189,31.8194 Z M181.91,34.4544 L188.189,34.4544 L188.189,32.9144 L181.91,32.9144 L181.91,34.4544 Z M181.91,37.0114 L188.189,37.0114 L188.189,35.4474 L181.91,35.4474 L181.91,37.0114 Z M195.044,30.1894 C196.625,30.1894 196.926,29.1864 196.926,29.1864 L189.513,29.1864 L190.052,28.4904 L188.834,28.4904 L188.213,29.2634 L183.229,29.2634 L183.843,28.4904 L182.573,28.4904 L179.415,32.5954 L180.766,32.5954 L180.766,38.2094 C180.766,38.2094 180.905,38.2254 181.085,38.2094 C183.046,38.2094 183.212,37.9514 183.212,37.9514 L195.044,37.9514 C196.617,37.9514 196.77,37.0114 196.77,37.0114 L189.409,37.0114 L189.409,35.3714 L195.044,35.3714 C196.595,35.3714 196.847,34.3774 196.847,34.3774 L189.409,34.3774 L189.409,32.7584 L195.044,32.7584 C196.595,32.7584 196.847,31.7444 196.847,31.7444 L189.409,31.7444 L189.409,30.1894 L195.044,30.1894 Z" id="Fill-41" fill="#EC6C00" mask="url(#mask-4)"></path>
                    <path d="M215.2544,43.7417 C215.2544,44.3727 215.1154,44.8667 214.2864,44.8667 L201.3984,44.8667 L201.3984,29.5787 L215.2544,29.5787 L215.2544,43.7417 Z M200.3034,28.5667 L200.3034,45.9997 L214.9714,45.9997 C216.0754,45.9997 216.4954,44.9537 216.4414,43.8697 L216.4414,28.5667 L200.3034,28.5667 Z" id="Fill-42" fill="#EC6C00" mask="url(#mask-4)"></path>
                    <path d="M207.1407,35.9815 L203.4327,42.6685 C203.4327,42.6685 204.6767,42.9025 205.2447,41.7225 L208.3967,35.9975 L207.1407,35.9815 Z" id="Fill-43" fill="#EC6C00" mask="url(#mask-4)"></path>
                    <path d="M211.5157,41.2715 C211.5157,41.6345 211.3857,41.8135 211.1267,41.8135 L209.8877,41.8135 L209.8877,42.7965 L211.4627,42.7965 C212.4337,42.7965 212.7537,42.4435 212.7017,41.3585 C212.7017,41.3585 212.6937,34.8435 212.7017,34.8435 C213.9237,34.8435 213.9997,33.8225 213.9997,33.8225 L212.7017,33.8355 L212.7017,31.5885 L211.5157,31.5885 L211.5157,33.8355 L203.1747,33.8355 L203.1747,34.9195 L211.5157,34.9195 L211.5157,41.2715 Z" id="Fill-44" fill="#EC6C00" mask="url(#mask-4)"></path>
                </g>
            </g>
        </g>
    </g>
</svg>