<?xml version="1.0" encoding="UTF-8" standalone="no"?>
<svg width="297px" height="46px" viewBox="0 0 297 46" version="1.1" xmlns="http://www.w3.org/2000/svg" xmlns:xlink="http://www.w3.org/1999/xlink">
    <!-- Generator: Sketch 49.1 (51147) - http://www.bohemiancoding.com/sketch -->
    <title>Page 1</title>
    <desc>Created with Sketch.</desc>
    <defs></defs>
    <g id="表单" stroke="none" stroke-width="1" fill="none" fill-rule="evenodd">
        <g id="Artboard" transform="translate(-1923.000000, -1508.000000)">
            <g id="Page-1" transform="translate(1923.000000, 1507.000000)">
                <path d="M91.8775,13.8905 L88.6205,6.4825 L85.1715,13.8905 L91.8775,13.8905 Z M81.5015,21.9925 L74.6705,21.9925 L85.2125,1.6325 L92.7745,1.6325 L102.8335,21.9925 L95.2445,21.9925 L93.7135,18.3225 L83.1435,18.3225 L81.5015,21.9925 Z" id="Fill-1" fill="#FEFEFE"></path>
                <polygon id="Fill-2" fill="#FEFEFE" points="103.831 21.9922 110.387 21.9922 110.387 1.6332 103.831 1.6332"></polygon>
                <path d="M114.346,21.9922 L120.902,21.9922 L120.902,7.8182 L114.346,7.8182 L114.346,21.9922 Z M114.346,5.8102 L120.902,5.8102 L120.902,1.6562 L114.346,1.6562 L114.346,5.8102 Z" id="Fill-3" fill="#FEFEFE"></path>
                <g id="Group-45" transform="translate(0.000000, 0.322200)">
                    <path d="M137.7139,14.6347 C137.7139,13.3827 137.4199,12.3967 136.8309,11.6737 C136.2429,10.9507 135.4439,10.5897 134.4329,10.5897 C133.3469,10.5897 132.5169,10.9377 131.9439,11.6327 C131.3689,12.3277 131.0799,13.3357 131.0799,14.6617 C131.0799,15.9137 131.3709,16.8867 131.9489,17.5817 C132.5289,18.2757 133.3369,18.6227 134.3769,18.6227 C135.3979,18.6227 136.2099,18.2637 136.8109,17.5467 C137.4129,16.8277 137.7139,15.8587 137.7139,14.6347 Z M124.5799,1.3107 L131.1349,1.3107 L131.1349,9.5117 C131.9169,8.7087 132.7889,8.1077 133.7539,7.7047 C134.7189,7.3047 135.7759,7.1037 136.9239,7.1037 C139.1569,7.1037 140.9519,7.8177 142.3079,9.2437 C143.6629,10.6707 144.3399,12.5627 144.3399,14.9197 C144.3399,17.0647 143.6719,18.7827 142.3349,20.0767 C140.9969,21.3707 139.2229,22.0157 137.0079,22.0157 C135.7859,22.0157 134.6779,21.7937 133.6839,21.3477 C132.6929,20.9027 131.8429,20.2457 131.1349,19.3807 C131.1349,19.8507 131.1179,20.2777 131.0799,20.6637 C131.0439,21.0507 130.9839,21.3847 130.8999,21.6697 L124.3449,21.6697 C124.4199,21.4047 124.4749,21.0707 124.5169,20.6717 C124.5589,20.2707 124.5799,19.8147 124.5799,19.2987 L124.5799,1.3107 Z" id="Fill-4" fill="#FEFEFE"></path>
                    <path d="M158.6997,15.5292 C156.5787,15.5292 155.1327,15.6682 154.3647,15.9432 C153.5937,16.2182 153.2087,16.7012 153.2087,17.3902 C153.2087,17.8582 153.3957,18.2222 153.7687,18.4842 C154.1427,18.7462 154.6697,18.8772 155.3537,18.8772 C156.4687,18.8772 157.3047,18.6172 157.8617,18.0992 C158.4197,17.5802 158.6997,16.7972 158.6997,15.7512 L158.6997,15.5292 Z M158.8367,19.5782 C158.2127,20.3982 157.4017,21.0052 156.4087,21.4002 C155.4137,21.7952 154.2107,21.9942 152.7947,21.9942 C150.7777,21.9942 149.2277,21.6342 148.1427,20.9182 C147.0577,20.2002 146.5157,19.1832 146.5157,17.8692 C146.5157,16.0762 147.4517,14.7812 149.3227,13.9842 C151.1957,13.1892 154.3287,12.7732 158.7257,12.7362 C158.7257,12.7092 158.7307,12.6562 158.7407,12.5782 C158.7497,12.5002 158.7537,12.4432 158.7537,12.4062 C158.7537,11.6812 158.5357,11.1392 158.0997,10.7812 C157.6617,10.4242 157.0077,10.2442 156.1337,10.2442 C155.3437,10.2442 154.7367,10.3752 154.3137,10.6362 C153.8907,10.8982 153.6397,11.2912 153.5567,11.8132 L147.5067,11.8132 C147.5357,10.2412 148.2797,9.0702 149.7437,8.3022 C151.2057,7.5342 153.4377,7.1502 156.4377,7.1502 C159.3177,7.1502 161.4627,7.5972 162.8697,8.4952 C164.2767,9.3902 164.9817,10.7562 164.9817,12.5862 L164.9817,19.8132 C164.9817,20.2622 165.0037,20.6252 165.0447,20.9002 C165.0857,21.1752 165.1567,21.4312 165.2577,21.6702 L159.1827,21.6702 C159.0617,21.3322 158.9747,20.9902 158.9197,20.6462 C158.8657,20.3022 158.8367,19.9462 158.8367,19.5782 Z" id="Fill-6" fill="#FEFEFE"></path>
                    <path d="M181.7896,14.6347 C181.7896,13.3827 181.4946,12.3967 180.9066,11.6737 C180.3176,10.9507 179.5176,10.5897 178.5066,10.5897 C177.4216,10.5897 176.5926,10.9377 176.0176,11.6327 C175.4426,12.3277 175.1556,13.3357 175.1556,14.6617 C175.1556,15.9137 175.4446,16.8867 176.0226,17.5817 C176.6036,18.2757 177.4126,18.6227 178.4526,18.6227 C179.4726,18.6227 180.2826,18.2637 180.8846,17.5467 C181.4886,16.8277 181.7896,15.8587 181.7896,14.6347 Z M168.6546,1.3107 L175.2106,1.3107 L175.2106,9.5117 C175.9906,8.7087 176.8646,8.1077 177.8296,7.7047 C178.7926,7.3047 179.8516,7.1037 180.9996,7.1037 C183.2316,7.1037 185.0266,7.8177 186.3816,9.2437 C187.7366,10.6707 188.4156,12.5627 188.4156,14.9197 C188.4156,17.0647 187.7456,18.7827 186.4086,20.0767 C185.0726,21.3707 183.2956,22.0157 181.0816,22.0157 C179.8586,22.0157 178.7516,21.7937 177.7606,21.3477 C176.7676,20.9027 175.9166,20.2457 175.2106,19.3807 C175.2106,19.8507 175.1926,20.2777 175.1556,20.6637 C175.1196,21.0507 175.0596,21.3847 174.9756,21.6697 L168.4206,21.6697 C168.4926,21.4047 168.5506,21.0707 168.5926,20.6717 C168.6346,20.2707 168.6546,19.8147 168.6546,19.2987 L168.6546,1.3107 Z" id="Fill-8" fill="#FEFEFE"></path>
                    <path d="M202.7735,15.5292 C200.6525,15.5292 199.2085,15.6682 198.4385,15.9432 C197.6685,16.2182 197.2825,16.7012 197.2825,17.3902 C197.2825,17.8582 197.4705,18.2222 197.8435,18.4842 C198.2185,18.7462 198.7445,18.8772 199.4275,18.8772 C200.5415,18.8772 201.3785,18.6172 201.9375,18.0992 C202.4945,17.5802 202.7735,16.7972 202.7735,15.7512 L202.7735,15.5292 Z M202.9105,19.5782 C202.2845,20.3982 201.4765,21.0052 200.4835,21.4002 C199.4875,21.7952 198.2845,21.9942 196.8685,21.9942 C194.8535,21.9942 193.3015,21.6342 192.2165,20.9182 C191.1325,20.2002 190.5895,19.1832 190.5895,17.8692 C190.5895,16.0762 191.5255,14.7812 193.3975,13.9842 C195.2705,13.1892 198.4035,12.7732 202.8015,12.7362 C202.8015,12.7092 202.8065,12.6562 202.8155,12.5782 C202.8245,12.5002 202.8275,12.4432 202.8275,12.4062 C202.8275,11.6812 202.6095,11.1392 202.1735,10.7812 C201.7375,10.4242 201.0815,10.2442 200.2095,10.2442 C199.4185,10.2442 198.8115,10.3752 198.3895,10.6362 C197.9655,10.8982 197.7135,11.2912 197.6315,11.8132 L191.5825,11.8132 C191.6095,10.2412 192.3535,9.0702 193.8175,8.3022 C195.2805,7.5342 197.5135,7.1502 200.5125,7.1502 C203.3925,7.1502 205.5365,7.5972 206.9455,8.4952 C208.3535,9.3902 209.0575,10.7562 209.0575,12.5862 L209.0575,19.8132 C209.0575,20.2622 209.0775,20.6252 209.1195,20.9002 C209.1605,21.1752 209.2325,21.4312 209.3335,21.6702 L203.2565,21.6702 C203.1365,21.3322 203.0495,20.9902 202.9935,20.6462 C202.9395,20.3022 202.9105,19.9462 202.9105,19.5782 Z" id="Fill-10" fill="#FEFEFE"></path>
                    <path d="M229.4146,13.7519 L229.4146,11.3749 L237.9786,11.3749 L237.9786,18.8639 C236.6616,19.9099 235.3076,20.6969 233.9096,21.2259 C232.5136,21.7519 231.0786,22.0159 229.6076,22.0159 C227.6216,22.0159 225.8176,21.5919 224.1946,20.7399 C222.5716,19.8899 221.3486,18.6599 220.5196,17.0509 C219.6916,15.4389 219.2796,13.6429 219.2796,11.6559 C219.2796,9.6899 219.6906,7.8519 220.5146,6.1449 C221.3346,4.4389 222.5196,3.1719 224.0646,2.3439 C225.6086,1.5159 227.3876,1.1029 229.3996,1.1029 C230.8616,1.1029 232.1826,1.3399 233.3626,1.8139 C234.5456,2.2889 235.4726,2.9489 236.1436,3.7969 C236.8146,4.6439 237.3236,5.7479 237.6716,7.1109 L235.2496,7.7729 C234.9466,6.7419 234.5706,5.9299 234.1216,5.3399 C233.6716,4.7479 233.0306,4.2749 232.1926,3.9199 C231.3576,3.5639 230.4326,3.3879 229.4146,3.3879 C228.1926,3.3879 227.1386,3.5739 226.2486,3.9469 C225.3566,4.3209 224.6396,4.8129 224.0936,5.4219 C223.5466,6.0289 223.1236,6.6979 222.8206,7.4259 C222.3056,8.6799 222.0496,10.0409 222.0496,11.5059 C222.0496,13.3149 222.3586,14.8259 222.9786,16.0429 C223.5976,17.2599 224.4976,18.1639 225.6846,18.7539 C226.8656,19.3439 228.1246,19.6389 229.4536,19.6389 C230.6106,19.6389 231.7386,19.4159 232.8406,18.9669 C233.9406,18.5199 234.7776,18.0409 235.3466,17.5329 L235.3466,13.7519 L229.4146,13.7519 Z" id="Fill-12" fill="#FEFEFE"></path>
                    <path d="M241.5806,21.6699 L241.5806,7.0119 L243.8206,7.0119 L243.8206,9.2369 C244.3946,8.1989 244.9216,7.5159 245.4076,7.1849 C245.8906,6.8539 246.4256,6.6889 247.0076,6.6889 C247.8466,6.6889 248.7006,6.9529 249.5686,7.4819 L248.7016,9.7839 C248.0926,9.4289 247.4856,9.2519 246.8786,9.2519 C246.3366,9.2519 245.8486,9.4139 245.4146,9.7399 C244.9836,10.0679 244.6746,10.5209 244.4896,11.0999 C244.2136,11.9839 244.0746,12.9489 244.0746,13.9979 L244.0746,21.6699 L241.5806,21.6699 Z" id="Fill-14" fill="#FEFEFE"></path>
                    <path d="M253.1001,14.3457 C253.1001,16.2227 253.5091,17.6267 254.3271,18.5617 C255.1441,19.4957 256.1721,19.9627 257.4131,19.9627 C258.6431,19.9627 259.6681,19.4917 260.4841,18.5547 C261.3011,17.6167 261.7091,16.1857 261.7091,14.2637 C261.7091,12.4507 261.2991,11.0777 260.4771,10.1447 C259.6571,9.2107 258.6331,8.7417 257.4131,8.7417 C256.1721,8.7417 255.1441,9.2077 254.3271,10.1367 C253.5091,11.0667 253.1001,12.4687 253.1001,14.3457 M250.5361,14.3417 C250.5361,11.6297 251.2921,9.6207 252.8021,8.3157 C254.0621,7.2307 255.5991,6.6897 257.4131,6.6897 C259.4281,6.6897 261.0761,7.3477 262.3551,8.6667 C263.6321,9.9867 264.2731,11.8087 264.2731,14.1347 C264.2731,16.0197 263.9901,17.5017 263.4231,18.5807 C262.8581,19.6617 262.0351,20.4997 260.9531,21.0977 C259.8731,21.6947 258.6911,21.9937 257.4131,21.9937 C255.3601,21.9937 253.7021,21.3357 252.4361,20.0217 C251.1691,18.7067 250.5361,16.8147 250.5361,14.3417" id="Fill-16" fill="#FEFEFE"></path>
                    <path d="M277.1812,21.6699 L277.1812,19.5019 C276.0402,21.1619 274.4922,21.9939 272.5362,21.9939 C271.6692,21.9939 270.8652,21.8279 270.1162,21.4959 C269.3662,21.1659 268.8102,20.7499 268.4482,20.2479 C268.0842,19.7459 267.8302,19.1329 267.6822,18.4069 C267.5812,17.9199 267.5312,17.1469 267.5312,16.0889 L267.5312,7.0119 L270.0252,7.0119 L270.0252,15.1319 C270.0252,16.4279 270.0752,17.3009 270.1762,17.7509 C270.3312,18.4039 270.6632,18.9159 271.1672,19.2889 C271.6722,19.6599 272.2982,19.8479 273.0412,19.8479 C273.7862,19.8479 274.4832,19.6559 275.1362,19.2739 C275.7882,18.8939 276.2492,18.3739 276.5192,17.7169 C276.7902,17.0599 276.9272,16.1079 276.9272,14.8549 L276.9272,7.0119 L279.4192,7.0119 L279.4192,21.6699 L277.1812,21.6699 Z" id="Fill-18" fill="#FEFEFE"></path>
                    <path d="M285.9785,14.4257 C285.9785,16.3127 286.3595,17.7067 287.1225,18.6097 C287.8845,19.5117 288.8045,19.9627 289.8895,19.9627 C290.9905,19.9627 291.9335,19.4957 292.7195,18.5607 C293.5055,17.6267 293.8965,16.1797 293.8965,14.2187 C293.8965,12.3507 293.5145,10.9517 292.7465,10.0217 C291.9815,9.0937 291.0645,8.6267 290.0005,8.6267 C288.9435,8.6267 288.0085,9.1227 287.1965,10.1117 C286.3855,11.1017 285.9785,12.5387 285.9785,14.4257 Z M283.7395,27.2797 L283.7395,7.0117 L286.0005,7.0117 L286.0005,8.9177 C286.5335,8.1737 287.1385,7.6167 287.8115,7.2457 C288.4815,6.8737 289.2955,6.6897 290.2505,6.6897 C291.5005,6.6897 292.6065,7.0097 293.5635,7.6537 C294.5185,8.2967 295.2395,9.2047 295.7275,10.3767 C296.2155,11.5487 296.4605,12.8337 296.4605,14.2307 C296.4605,15.7287 296.1905,17.0777 295.6525,18.2777 C295.1155,19.4767 294.3325,20.3967 293.3105,21.0347 C292.2845,21.6737 291.2065,21.9937 290.0805,21.9937 C289.2525,21.9937 288.5095,21.8207 287.8515,21.4727 C287.1955,21.1247 286.6545,20.6857 286.2335,20.1547 L286.2335,27.2797 L283.7395,27.2797 Z" id="Fill-20" fill="#FEFEFE"></path>
                    <path d="M10.0269,39.8486 C9.6629,39.8066 9.0949,39.4846 8.6909,39.1596 C4.8529,35.4006 9.7819,31.0756 15.4829,28.5706 L15.4829,21.4156 C16.8169,22.2656 17.5449,22.3046 17.5849,22.4256 L21.9499,18.1016 L20.4949,14.3816 C33.2689,9.9756 38.4009,8.2786 48.7899,6.5406 L46.9279,4.8006 L49.9619,3.0646 C56.9539,5.3696 63.5449,5.9746 62.4109,11.8356 C62.6949,7.8746 57.7629,6.3376 50.2449,4.2376 L48.7899,5.1246 L51.5779,7.4296 C39.1289,9.5726 31.4899,11.9976 22.3949,15.1506 L23.6469,18.3846 L19.0809,22.8696 C19.8499,23.0736 27.8119,25.7406 36.0959,19.9606 C36.0959,19.9606 36.2599,19.8386 36.2599,19.7986 C36.0189,19.3946 35.4509,18.9496 34.7649,18.3436 C37.1899,18.5056 38.7639,20.6486 38.4819,22.8696 L37.3509,22.8696 C37.4309,22.1426 37.2689,21.3746 37.0279,20.8496 C30.6009,25.5386 23.1629,26.2266 16.8169,24.0026 L16.8169,29.5396 C13.7449,30.6316 8.2459,34.0256 8.2879,37.3016 C8.4899,38.8766 9.2989,39.4436 10.0269,39.8486" id="Fill-22" fill="#FFFFFF"></path>
                    <g id="Group-26" fill="#FEFEFE">
                        <path d="M36.0191,38.4335 C29.1431,41.9105 22.5571,44.6995 12.4111,45.1025 C-0.8059,44.8195 -2.8669,36.0465 3.3971,26.8725 C9.2991,17.6175 18.6771,9.2475 33.5931,4.0335 C37.9161,2.4995 44.2631,0.7605 50.4071,0.6795 C59.2191,0.5975 67.7891,3.3475 67.2221,11.7955 C66.8981,18.2635 57.5631,27.3985 52.6301,33.9475 C50.5271,36.8145 50.1631,38.6755 53.7601,38.5145 C66.8191,37.6635 78.6611,33.1385 89.6551,28.4495 C82.2191,33.5015 43.7761,52.5385 43.6171,39.5665 C43.6561,37.9075 44.4231,36.1695 45.6761,34.3115 C46.8911,32.4515 48.5881,30.5095 50.3261,28.5305 C52.9531,25.5385 59.4601,18.3845 61.6421,14.0985 C65.3211,5.9745 57.0761,5.5705 49.9611,3.0645 L46.9281,4.8005 L48.7891,6.5405 C38.4011,8.2785 33.2681,9.9755 20.4951,14.3815 L21.9501,18.1015 L17.5851,22.4255 C17.4641,22.3045 16.8171,22.2655 15.4831,21.4155 L15.4831,28.5705 C9.7821,31.0765 4.8521,35.4005 8.6911,39.1605 C9.0951,39.4845 9.6621,39.8065 10.0271,39.8485 C17.0191,43.8105 36.0561,38.4335 36.0191,38.4335" id="Fill-24"></path>
                    </g>
                    <path d="M76.2993,43.4746 L76.2993,40.2716 L77.7153,40.2716 C77.9973,40.2716 78.2163,40.3006 78.3613,40.3536 C78.5103,40.4156 78.6243,40.5116 78.7123,40.6636 C78.8053,40.8066 78.8473,40.9666 78.8473,41.1446 C78.8473,41.3706 78.7723,41.5646 78.6303,41.7206 C78.4813,41.8716 78.2573,41.9706 77.9503,42.0176 C78.0643,42.0706 78.1483,42.1206 78.2063,42.1756 C78.3243,42.2936 78.4463,42.4306 78.5523,42.6016 L79.1093,43.4746 L78.5773,43.4746 L78.1613,42.8146 C78.0373,42.6156 77.9293,42.4726 77.8553,42.3676 C77.7733,42.2656 77.7033,42.1956 77.6383,42.1536 C77.5733,42.1136 77.5133,42.0796 77.4473,42.0646 C77.3993,42.0596 77.3233,42.0526 77.2123,42.0526 L76.7243,42.0526 L76.7243,43.4746 L76.2993,43.4746 Z M76.7243,41.6736 L77.6293,41.6736 C77.8223,41.6736 77.9683,41.6546 78.0763,41.6206 C78.1903,41.5796 78.2713,41.5086 78.3243,41.4276 C78.3793,41.3356 78.4113,41.2466 78.4113,41.1446 C78.4113,40.9946 78.3533,40.8696 78.2473,40.7736 C78.1373,40.6776 77.9683,40.6296 77.7343,40.6296 L76.7243,40.6296 L76.7243,41.6736 Z" id="Fill-27" fill="#FEFEFE"></path>
                    <path d="M75,42.0214 C75,40.6034 76.151,39.4514 77.57,39.4514 C78.988,39.4514 80.142,40.6034 80.142,42.0214 C80.142,43.4334 78.988,44.5874 77.57,44.5874 C76.151,44.5874 75,43.4334 75,42.0214 M77.57,45.0654 C79.251,45.0654 80.618,43.6974 80.618,42.0214 C80.618,40.3394 79.251,38.9734 77.57,38.9734 C75.894,38.9734 74.528,40.3394 74.528,42.0214 C74.528,43.6974 75.894,45.0654 77.57,45.0654" id="Fill-29" fill="#FEFEFE"></path>
                    <path d="M110.3623,28.5078 L110.3623,30.6178 L117.6693,30.6178 L117.6693,43.4788 L117.6693,45.7638 C118.4863,45.7638 120.2513,44.9758 120.2513,43.3358 L120.2513,30.6178 C120.7773,30.6178 121.2113,29.0818 121.2113,28.5078 L110.3623,28.5078 Z M113.3873,40.5488 L114.6813,40.5488 L114.6813,33.9768 L113.3873,33.9768 L113.3873,40.5488 Z M117.0793,39.6858 L117.0793,31.9588 L110.9873,31.9588 L110.9873,42.5188 L114.0103,42.5188 C114.4903,42.4708 115.0693,42.2778 115.5443,41.9438 C115.8363,41.7498 116.0763,41.5598 116.3153,41.3188 C116.7463,40.8378 117.0793,40.2638 117.0793,39.6858 Z M107.4863,34.2168 C107.4863,34.5028 107.2473,34.9868 106.9573,35.2728 C106.9113,35.3238 106.7663,35.4668 106.7663,35.4668 C106.7433,35.4868 106.7183,35.5138 106.6693,35.5138 L107.4863,35.5138 L107.4863,40.5018 L106.4783,40.5018 L106.4783,30.6178 L107.4863,30.6178 L107.4863,34.2168 Z M103.9343,28.5078 L103.9343,45.7638 C105.1333,45.7638 106.4723,44.6778 106.4723,43.4788 L106.4723,42.5738 L107.9093,42.5738 C108.8703,42.5258 109.9793,41.1758 109.9793,40.5018 L109.9793,36.6628 C109.9793,35.9418 109.1633,35.4178 108.7773,35.1288 C109.1633,34.7908 109.9793,34.2168 109.9793,33.4938 L109.9793,28.5078 L103.9343,28.5078 Z" id="Fill-31" fill="#FEFEFE"></path>
                    <path d="M129.5562,32.6972 L125.8992,32.6972 L125.8992,30.4562 L127.7032,30.4562 L129.5562,30.4562 L129.5562,32.6972 Z M125.8992,36.8962 L129.5562,36.8962 L129.5562,34.6532 L125.8992,34.6532 L125.8992,36.8962 Z M132.6312,34.6532 L133.9482,34.6532 C134.1422,34.6532 134.3392,34.6032 134.5322,34.4552 C134.7762,34.3102 135.9472,32.8452 136.0942,32.6972 L132.6312,32.6972 L132.6312,30.4562 L136.3872,30.4562 L136.3872,36.8962 L132.6312,36.8962 L132.6312,34.6532 Z M132.6312,43.7752 L132.6312,42.1622 L137.7552,42.1622 C138.4962,42.1622 139.1652,40.8982 139.5602,40.2142 L132.6312,40.2142 L132.6312,38.8472 L136.4842,38.8472 C137.5782,38.8472 139.3602,37.3332 139.4102,36.5522 L139.4102,28.5082 L122.9242,28.5082 L122.9242,38.8472 L129.5562,38.8472 L129.5562,40.2142 L122.9242,40.2142 L122.9242,42.1622 L129.5562,42.1622 L129.5562,43.7752 L122.7312,43.7752 L122.7312,45.7722 L138.1922,45.7722 C138.8272,45.7722 139.4102,44.5082 139.8992,43.7752 L132.6312,43.7752 Z" id="Fill-33" fill="#FEFEFE"></path>
                    <path d="M144.831,36.454 L148.485,36.454 L148.485,30.727 L144.831,30.727 L144.831,36.454 Z M151.496,36.453 L154.972,36.453 L154.972,30.726 L151.496,30.726 L151.496,36.453 Z M144.808,43.536 L144.808,38.674 L155.347,38.674 C156.298,38.674 158.012,37.097 158.056,36.307 L158.056,28.508 L141.696,28.508 L141.696,43.362 C141.696,44.549 142.41,45.781 143.745,45.781 L156.235,45.781 C157.175,45.781 158.307,44.278 158.503,43.536 L144.808,43.536 Z" id="Fill-35" fill="#FEFEFE"></path>
                    <path d="M163.691,36.454 L167.34,36.454 L167.34,30.727 L163.691,30.727 L163.691,36.454 Z M170.353,36.453 L173.832,36.453 L173.832,30.726 L170.353,30.726 L170.353,36.453 Z M163.66,43.536 L163.66,38.674 L174.202,38.674 C175.157,38.674 176.867,37.097 176.918,36.307 L176.918,28.508 L160.556,28.508 L160.556,43.362 C160.556,44.549 161.272,45.781 162.603,45.781 L175.09,45.781 C176.032,45.781 177.165,44.278 177.363,43.536 L163.66,43.536 Z" id="Fill-37" fill="#FEFEFE"></path>
                    <path d="M188.189,39.955 L188.189,39.414 L189.416,39.414 L189.416,39.879 L196.847,39.879 C196.847,39.879 196.666,40.88 195.044,40.88 L189.495,40.88 L189.495,43.564 C189.495,45.601 188.189,45.845 188.189,45.845 L188.189,40.957 L179.337,40.957 L179.337,39.955 L188.189,39.955 Z" id="Fill-38" fill="#FEFEFE"></path>
                    <path d="M182.8272,42.5136 L184.1512,42.5136 C184.1512,42.5136 182.7722,44.2876 182.3582,44.7536 C181.9442,45.2146 181.3902,45.9526 180.5922,45.9526 C180.1452,45.9526 179.9972,45.9636 179.9972,45.9636 L182.8272,42.5136 Z" id="Fill-39" fill="#FEFEFE"></path>
                    <path d="M194.1646,42.5136 L192.8406,42.5136 C192.8406,42.5136 194.2196,44.2876 194.6326,44.7536 C195.0466,45.2146 195.5986,45.9526 196.3976,45.9526 C196.8436,45.9526 196.9916,45.9636 196.9916,45.9636 L194.1646,42.5136 Z" id="Fill-40" fill="#FEFEFE"></path>
                    <path d="M188.189,31.8203 L181.91,31.8203 L181.905,31.2613 L182.224,30.8063 L182.647,30.2663 L188.189,30.2663 L188.189,31.8203 Z M181.91,34.4553 L188.189,34.4553 L188.189,32.9143 L181.91,32.9143 L181.91,34.4553 Z M181.91,37.0113 L188.189,37.0113 L188.189,35.4473 L181.91,35.4473 L181.91,37.0113 Z M195.044,30.1893 C196.625,30.1893 196.926,29.1863 196.926,29.1863 L189.513,29.1863 L190.052,28.4903 L188.834,28.4903 L188.213,29.2633 L183.229,29.2633 L183.843,28.4903 L182.573,28.4903 L179.415,32.5953 L180.766,32.5953 L180.766,38.2093 C180.766,38.2093 180.905,38.2263 181.085,38.2093 C183.046,38.2093 183.212,37.9523 183.212,37.9523 L195.044,37.9523 C196.617,37.9523 196.77,37.0113 196.77,37.0113 L189.409,37.0113 L189.409,35.3713 L195.044,35.3713 C196.595,35.3713 196.847,34.3773 196.847,34.3773 L189.409,34.3773 L189.409,32.7583 L195.044,32.7583 C196.595,32.7583 196.847,31.7453 196.847,31.7453 L189.409,31.7453 L189.409,30.1893 L195.044,30.1893 Z" id="Fill-41" fill="#FEFEFE"></path>
                    <path d="M215.2544,43.7421 C215.2544,44.3731 215.1154,44.8671 214.2864,44.8671 L201.3984,44.8671 L201.3984,29.5791 L215.2544,29.5791 L215.2544,43.7421 Z M200.3034,28.5671 L200.3034,46.0001 L214.9714,46.0001 C216.0754,46.0001 216.4954,44.9531 216.4414,43.8691 L216.4414,28.5671 L200.3034,28.5671 Z" id="Fill-42" fill="#FEFEFE"></path>
                    <path d="M207.1407,35.9824 L203.4327,42.6684 C203.4327,42.6684 204.6767,42.9024 205.2447,41.7224 L208.3967,35.9984 L207.1407,35.9824 Z" id="Fill-43" fill="#FEFEFE"></path>
                    <path d="M211.5157,41.2714 C211.5157,41.6344 211.3857,41.8144 211.1267,41.8144 L209.8877,41.8144 L209.8877,42.7964 L211.4627,42.7964 C212.4337,42.7964 212.7537,42.4434 212.7017,41.3594 C212.7017,41.3594 212.6937,34.8434 212.7017,34.8434 C213.9237,34.8434 213.9997,33.8224 213.9997,33.8224 L212.7017,33.8364 L212.7017,31.5884 L211.5157,31.5884 L211.5157,33.8364 L203.1747,33.8364 L203.1747,34.9204 L211.5157,34.9204 L211.5157,41.2714 Z" id="Fill-44" fill="#FEFEFE"></path>
                </g>
            </g>
        </g>
    </g>
</svg>