<svg width="142px" height="24px" viewBox="0 0 142 24" version="1.1" xmlns="http://www.w3.org/2000/svg" xmlns:xlink="http://www.w3.org/1999/xlink">
    <!-- Generator: Sketch 42 (36781) - http://www.bohemiancoding.com/sketch -->
    <title>Group 13</title>
    <desc>Created with Sketch.</desc>
    <defs>
        <polygon id="path-1" points="0 23.7382 141.208 23.7382 141.208 0.0002 0 0.0002"></polygon>
    </defs>
    <g id="Page-1" stroke="none" stroke-width="1" fill="none" fill-rule="evenodd">
        <g id="导航" transform="translate(-101.000000, -1369.000000)">
            <g id="Group-13" transform="translate(101.000000, 1369.000000)">
                <g id="Page-1">
                    <path d="M5.358,20.9306 C5.164,20.9096 4.861,20.7366 4.646,20.5636 C2.593,18.5556 5.229,16.2436 8.274,14.9046 L8.274,11.0816 C8.986,11.5356 9.375,11.5566 9.397,11.6216 L11.729,9.3106 L10.952,7.3246 C17.777,4.9686 20.521,4.0616 26.072,3.1326 L25.077,2.2046 L26.697,1.2766 C30.434,2.5066 33.955,2.8296 33.35,5.9616 C33.501,3.8466 30.866,3.0256 26.849,1.9026 L26.072,2.3766 L27.562,3.6086 C20.91,4.7526 16.827,6.0496 11.967,7.7346 L12.637,9.4616 L10.196,11.8596 C10.607,11.9666 14.861,13.3926 19.289,10.3026 C19.289,10.3026 19.376,10.2386 19.376,10.2176 C19.247,10.0006 18.944,9.7626 18.576,9.4406 C19.872,9.5266 20.715,10.6716 20.563,11.8596 L19.96,11.8596 C20.003,11.4696 19.916,11.0606 19.786,10.7786 C16.352,13.2856 12.378,13.6526 8.986,12.4646 L8.986,15.4226 C7.345,16.0046 4.408,17.8206 4.429,19.5696 C4.537,20.4126 4.97,20.7146 5.358,20.9306 L5.358,20.9306 Z" id="Fill-1" fill="#231815"></path>
                    <path d="M19.2466,20.1748 C15.5746,22.0318 12.0536,23.5228 6.6326,23.7378 C-0.4304,23.5878 -1.5324,18.8998 1.8156,13.9978 C4.9696,9.0518 9.9796,4.5798 17.9496,1.7948 C20.2616,0.9738 23.6526,0.0448 26.9346,0.0008 C31.6436,-0.0422 36.2236,1.4268 35.9206,5.9408 C35.7476,9.3978 30.7586,14.2788 28.1236,17.7768 C26.9996,19.3108 26.8056,20.3038 28.7276,20.2178 C35.7046,19.7648 42.0336,17.3458 47.9076,14.8398 C43.9336,17.5388 23.3926,27.7118 23.3066,20.7798 C23.3286,19.8938 23.7386,18.9648 24.4076,17.9718 C25.0566,16.9778 25.9636,15.9418 26.8916,14.8838 C28.2956,13.2848 31.7736,9.4618 32.9396,7.1718 C34.9056,2.8298 30.4996,2.6148 26.6976,1.2768 L25.0776,2.2048 L26.0716,3.1328 C20.5206,4.0618 17.7776,4.9688 10.9516,7.3238 L11.7296,9.3108 L9.3966,11.6208 C9.3316,11.5568 8.9866,11.5348 8.2736,11.0818 L8.2736,14.9038 C5.2286,16.2428 2.5936,18.5558 4.6456,20.5638 C4.8616,20.7358 5.1636,20.9088 5.3576,20.9308 C9.0946,23.0488 19.2676,20.1748 19.2466,20.1748" id="Fill-3" fill="#2eb6a9"></path>
                    <path d="M44.1949,21.6972 L44.6259,21.6972 C44.7179,21.6972 44.7889,21.6872 44.8419,21.6712 C44.8939,21.6502 44.9329,21.6182 44.9599,21.5792 C44.9849,21.5352 45.0009,21.4932 45.0009,21.4442 C45.0009,21.3722 44.9719,21.3122 44.9219,21.2652 C44.8709,21.2202 44.7889,21.1982 44.6769,21.1982 L44.1949,21.1982 L44.1949,21.6972 Z M43.9919,22.5552 L43.9919,21.0272 L44.6679,21.0272 C44.8019,21.0272 44.9059,21.0402 44.9749,21.0662 C45.0479,21.0952 45.1019,21.1422 45.1449,21.2152 C45.1889,21.2832 45.2089,21.3592 45.2089,21.4442 C45.2089,21.5522 45.1719,21.6452 45.1039,21.7182 C45.0329,21.7922 44.9259,21.8382 44.7799,21.8602 C44.8349,21.8882 44.8739,21.9112 44.9009,21.9352 C44.9599,21.9912 45.0159,22.0572 45.0669,22.1392 L45.3329,22.5552 L45.0789,22.5552 L44.8809,22.2412 C44.8209,22.1462 44.7709,22.0772 44.7329,22.0282 C44.6949,21.9782 44.6609,21.9452 44.6309,21.9272 C44.5999,21.9062 44.5709,21.8902 44.5389,21.8832 C44.5169,21.8812 44.4809,21.8782 44.4269,21.8782 L44.1949,21.8782 L44.1949,22.5552 L43.9919,22.5552 Z" id="Fill-6" fill="#2eb6a9"></path>
                    <path d="M44.6114,23.1621 C45.3664,23.1621 45.9814,22.5471 45.9814,21.7921 C45.9814,21.0361 45.3664,20.4231 44.6114,20.4231 C43.8554,20.4231 43.2414,21.0361 43.2414,21.7921 C43.2414,22.5471 43.8554,23.1621 44.6114,23.1621 M43.4544,21.7921 C43.4544,21.1541 43.9734,20.6361 44.6114,20.6361 C45.2484,20.6361 45.7674,21.1541 45.7674,21.7921 C45.7674,22.4291 45.2484,22.9481 44.6114,22.9481 C43.9734,22.9481 43.4544,22.4291 43.4544,21.7921" id="Fill-8" fill="#2eb6a9"></path>
                    <mask id="mask-2" fill="white">
                        <use xlink:href="#path-1"></use>
                    </mask>
                    <g id="Clip-13"></g>
                    <polygon id="Fill-12" fill="#2eb6a9" mask="url(#mask-2)" points="58.598 13.9882 61.592 13.9882 61.592 6.3022 58.598 6.3022"></polygon>
                    <polygon id="Fill-14" fill="#2eb6a9" mask="url(#mask-2)" points="58.518 5.0892 61.674 5.0892 61.674 2.9852 58.518 2.9852"></polygon>
                    <polygon id="Fill-15" fill="#2eb6a9" mask="url(#mask-2)" points="53.745 13.9892 56.656 13.9892 56.656 2.9852 53.745 2.9852"></polygon>
                    <path d="M130.7725,13.9892 L130.7725,6.3022 L131.9055,6.3022 L131.9055,7.4352 C132.2295,7.0322 132.4725,6.7092 132.8765,6.4662 C133.2815,6.2212 133.7025,6.1202 134.2665,6.1202 C134.8335,6.1202 135.3045,6.2212 135.7085,6.4662 C136.0305,6.7092 136.2755,7.0322 136.4345,7.4352 C137.0835,6.5462 137.8905,6.1412 138.8645,6.1412 C139.5905,6.1412 140.1585,6.3022 140.6435,6.7892 C141.0475,7.1932 141.2085,7.8412 141.2085,8.7302 L141.2085,13.9892 L139.9145,13.9892 L139.9145,9.1342 C139.9145,8.6502 139.9005,8.2912 139.8195,8.0482 C139.7465,7.8032 139.5085,7.5382 139.3285,7.4572 C139.1165,7.3542 138.8645,7.2742 138.5405,7.2742 C137.9735,7.2742 137.4805,7.3722 137.1235,7.7602 C136.7995,8.1642 136.6775,8.7302 136.6775,9.5402 L136.6775,13.9892 L135.3835,13.9892 L135.3835,8.9742 C135.3835,8.4072 135.2685,7.9512 135.0605,7.6782 C134.8335,7.4072 134.4955,7.2742 134.0055,7.2742 C133.6025,7.2742 133.2205,7.3492 132.9445,7.5532 C132.7015,7.7142 132.4125,8.0582 132.2685,8.4202 C132.1085,8.7442 132.0655,9.2982 132.0655,10.0252 L132.0655,13.9892 L130.7725,13.9892 Z" id="Fill-16" fill="#2eb6a9" mask="url(#mask-2)"></path>
                    <path d="M119.524,13.0195 C119.203,13.3415 118.312,14.2345 116.693,14.2345 C114.589,14.2345 112.487,12.5345 112.487,10.1075 C112.487,7.5965 114.509,5.9005 116.693,5.9005 C118.229,5.9005 119.203,6.7895 119.524,7.1125 C119.363,7.4355 119.12,8.1645 118.959,8.4075 C118.229,7.4355 117.259,7.1935 116.693,7.1935 C115.076,7.1935 113.78,8.5695 113.78,10.1075 C113.78,11.6445 115.076,12.9385 116.693,12.9385 C117.501,12.9385 118.392,12.5345 118.959,11.6445 C119.203,12.3715 119.442,12.7765 119.524,13.0195" id="Fill-17" fill="#2eb6a9" mask="url(#mask-2)"></path>
                    <polygon id="Fill-18" fill="#2eb6a9" mask="url(#mask-2)" points="109.741 13.9892 110.86 13.9892 110.86 12.8572 109.741 12.8572"></polygon>
                    <path d="M43.709,9.6201 L45.814,5.4141 L47.674,9.6201 L43.709,9.6201 Z M47.838,2.9851 L44.114,2.9851 L38.369,13.9891 L41.687,13.9891 L42.659,11.8061 L48.727,11.8061 L49.696,13.9891 L53.257,13.9891 L47.838,2.9851 Z" id="Fill-19" fill="#2eb6a9" mask="url(#mask-2)"></path>
                    <path d="M70.1685,11.8056 C69.8455,12.2106 69.2785,12.3716 68.6305,12.3716 C67.9025,12.3716 67.4175,12.2106 67.0135,11.8056 C66.6875,11.4016 66.4455,10.8336 66.4455,10.1076 C66.4455,9.2976 66.6875,8.6506 67.0135,8.2466 C67.4175,7.8406 67.9005,7.6196 68.6285,7.6196 C69.2735,7.6196 69.8455,7.8406 70.1685,8.2466 C70.5735,8.7306 70.7335,9.2156 70.7335,9.9456 C70.7335,10.7526 70.5735,11.3206 70.1685,11.8056 M72.7575,7.1936 C71.9635,6.3966 71.1445,6.0666 69.9295,6.0666 C69.4435,6.0666 68.9555,6.1416 68.6305,6.2216 C67.8865,6.4436 67.0135,6.9516 66.5275,7.4356 L66.5275,2.9856 L63.5335,2.9856 L63.5335,12.2916 L63.5335,13.0996 C63.5335,13.3416 63.5335,13.6676 63.4525,13.9896 L66.4455,13.9896 C66.4845,13.8426 66.5195,13.6576 66.5275,13.4246 L66.5275,12.6146 C66.8765,13.0936 67.4005,13.5626 68.1775,13.9246 C68.6475,14.1226 69.4385,14.2346 69.8455,14.2346 C71.0585,14.2346 72.0295,13.8266 72.7575,13.0996 C73.4055,12.3716 73.7295,11.4016 73.7295,10.1076 C73.7295,8.8926 73.4055,7.9216 72.7575,7.1936" id="Fill-20" fill="#2eb6a9" mask="url(#mask-2)"></path>
                    <path d="M92.8384,11.8056 C92.5154,12.2106 91.9484,12.3716 91.3034,12.3716 C90.5744,12.3716 90.0894,12.2106 89.6844,11.8056 C89.3604,11.4016 89.1194,10.8336 89.1194,10.1076 C89.1194,9.2976 89.3604,8.6506 89.6844,8.2466 C90.0894,7.8406 90.5704,7.6196 91.3004,7.6196 C91.9464,7.6196 92.5154,7.8406 92.8384,8.2466 C93.2434,8.7306 93.4044,9.2156 93.4044,9.9456 C93.4044,10.7526 93.2434,11.3206 92.8384,11.8056 M95.4274,7.1936 C94.6254,6.4106 93.8144,6.0666 92.6004,6.0666 C92.1164,6.0666 91.6264,6.1416 91.3034,6.2216 C90.5584,6.4436 89.6844,6.9516 89.1994,7.4356 L89.1994,2.9856 L86.2044,2.9856 L86.2044,12.2916 L86.2044,13.0996 C86.2044,13.3416 86.2044,13.6676 86.1234,13.9896 L89.1194,13.9896 C89.1574,13.8426 89.1914,13.6576 89.1994,13.4246 L89.1994,12.6146 C89.5464,13.0936 90.0714,13.5626 90.8484,13.9246 C91.3194,14.1226 92.1114,14.2346 92.5154,14.2346 C93.7294,14.2346 94.6994,13.8266 95.4274,13.0996 C96.0754,12.3716 96.3994,11.4016 96.3994,10.1076 C96.3994,8.8926 96.0754,7.9216 95.4274,7.1936" id="Fill-21" fill="#2eb6a9" mask="url(#mask-2)"></path>
                    <path d="M81.335,10.7529 C81.335,11.3199 81.171,11.8059 80.849,12.0489 C80.525,12.2919 80.238,12.4479 79.753,12.5289 C79.636,12.5559 79.431,12.5739 79.224,12.5739 C78.819,12.5739 78.469,12.5119 78.22,12.3499 C78.004,12.1969 77.855,11.9669 77.855,11.6449 C77.855,11.2379 78.102,10.9329 78.568,10.7979 C78.815,10.7279 79.152,10.6549 79.595,10.6189 C80.013,10.5829 80.525,10.5919 81.171,10.5919 L81.335,10.5919 L81.335,10.7529 Z M84.247,13.5849 L84.247,13.0199 L84.247,9.0539 C84.247,8.0849 83.841,7.3559 83.195,6.8689 C82.547,6.3829 81.415,6.1419 79.96,6.1419 L79.636,6.1419 C78.259,6.1419 77.192,6.3249 76.561,6.7089 C75.831,7.1119 75.427,7.7609 75.266,8.5689 L78.259,8.5689 C78.34,8.2459 78.836,7.6739 79.636,7.6789 C79.715,7.6799 79.798,7.6789 79.96,7.6789 C80.443,7.6789 80.756,7.7939 81.012,8.0019 C81.243,8.1969 81.335,8.5689 81.335,8.9749 L81.335,9.0539 L81.335,9.1349 L79.96,9.1349 L79.636,9.1349 C78.585,9.1349 77.774,9.2159 77.289,9.2979 C76.723,9.3789 76.338,9.5159 75.994,9.7019 C75.589,9.9449 75.326,10.2509 75.103,10.5919 C74.861,10.9949 74.78,11.4009 74.78,11.8869 C74.78,12.6139 75.023,13.1809 75.589,13.5849 C76.157,13.9889 76.883,14.2339 77.855,14.2339 C78.503,14.2339 79.067,14.1509 79.636,13.9889 C80.3,13.7949 81.171,13.3419 81.415,12.8579 L81.415,13.0199 C81.415,13.5169 81.577,13.9099 81.659,13.9889 L84.408,13.9889 C84.327,13.9099 84.247,13.7469 84.247,13.5849 L84.247,13.5849 Z" id="Fill-22" fill="#2eb6a9" mask="url(#mask-2)"></path>
                    <path d="M104.0284,10.7529 C104.0284,11.3199 103.8654,11.8059 103.5414,12.0489 C103.2174,12.2919 102.9314,12.4479 102.4454,12.5289 C102.3314,12.5559 102.1234,12.5739 101.9164,12.5739 C101.5104,12.5739 101.1634,12.5119 100.9124,12.3499 C100.6964,12.1969 100.5494,11.9669 100.5494,11.6449 C100.5494,11.2379 100.7974,10.9329 101.2624,10.7979 C101.5074,10.7279 101.8454,10.6549 102.2864,10.6189 C102.7064,10.5829 103.2174,10.5919 103.8654,10.5919 L104.0284,10.5919 L104.0284,10.7529 Z M106.9414,13.5849 L106.9414,13.0199 L106.9414,9.0539 C106.9414,8.0849 106.5354,7.3559 105.8884,6.8689 C105.2394,6.3829 104.1094,6.1419 102.6524,6.1419 L102.3284,6.1419 C100.9544,6.1419 99.9954,6.3189 99.2534,6.7089 C98.5254,7.1119 98.1224,7.7609 97.9604,8.5689 L100.9544,8.5689 C101.0334,8.2459 101.5294,7.6739 102.3284,7.6789 C102.4084,7.6799 102.4894,7.6789 102.6524,7.6789 C103.1374,7.6789 103.4484,7.7939 103.7044,8.0019 C103.9354,8.1969 104.0284,8.5689 104.0284,8.9749 L104.0284,9.0539 L104.0284,9.1349 L102.6524,9.1349 L102.3284,9.1349 C101.2774,9.1349 100.4664,9.2159 99.9824,9.2979 C99.4154,9.3789 99.0304,9.5159 98.6874,9.7019 C98.2824,9.9449 98.0184,10.2509 97.7984,10.5919 C97.5534,10.9949 97.4734,11.4009 97.4734,11.8869 C97.4734,12.6139 97.7164,13.1809 98.2824,13.5849 C98.8494,13.9889 99.5774,14.2339 100.5494,14.2339 C101.1964,14.2339 101.7624,14.1509 102.3284,13.9889 C102.9924,13.7949 103.8654,13.3419 104.1094,12.8579 L104.1094,13.0199 C104.1094,13.5169 104.2714,13.9099 104.3504,13.9889 L107.1024,13.9889 C107.0204,13.9099 106.9414,13.7469 106.9414,13.5849 L106.9414,13.5849 Z" id="Fill-23" fill="#2eb6a9" mask="url(#mask-2)"></path>
                    <path d="M124.7833,12.9384 C123.1653,12.9384 121.9533,11.6444 121.9533,10.1074 C121.9533,8.4894 123.1653,7.1934 124.7833,7.1934 C126.3223,7.1934 127.6163,8.4894 127.6163,10.1074 C127.6163,11.6444 126.3223,12.9384 124.7833,12.9384 M124.7833,5.9004 C122.5183,5.9004 120.6583,7.7604 120.6583,10.1074 C120.6583,12.3714 122.5183,14.2344 124.7833,14.2344 C127.0483,14.2344 128.9103,12.3714 128.9103,10.1074 C128.9103,7.7604 127.0483,5.9004 124.7833,5.9004" id="Fill-24" fill="#2eb6a9" mask="url(#mask-2)"></path>
                </g>
            </g>
        </g>
    </g>
</svg>