<svg width="128px" height="30px" viewBox="0 0 128 30" version="1.1" xmlns="http://www.w3.org/2000/svg" xmlns:xlink="http://www.w3.org/1999/xlink">
    <!-- Generator: Sketch 42 (36781) - http://www.bohemiancoding.com/sketch -->
    <title>logo</title>
    <desc>Created with Sketch.</desc>
    <defs>
        <polygon id="path-1" points="0.233826182 0.879431492 127.506664 0.879431492 127.506664 31.8471734 0.233826182 31.8471734"></polygon>
    </defs>
    <g id="布局" stroke="none" stroke-width="1" fill="none" fill-rule="evenodd">
        <g id="导航" transform="translate(-40.000000, -2690.000000)">
            <g id="nav_02-copy-25" transform="translate(40.000000, 2676.000000)">
                <g id="logo" transform="translate(0.000000, 13.000000)">
                    <mask id="mask-2" fill="white">
                        <use xlink:href="#path-1"></use>
                    </mask>
                    <g id="Clip-3"></g>
                    <path d="M9.87915488,1.02280067 C12.9905698,6.01674577 15.1410134,8.24714498 20.7636324,6.3947702 C19.1082259,8.00716009 11.9186617,12.8746378 5.93499413,4.95183003 L9.87915488,1.02280067 Z" id="Fill-2" fill="#0089FF" mask="url(#mask-2)"></path>
                    <path d="M20.1809696,1.64003851 C16.6116886,5.65916553 13.6244651,8.7117403 7.57740513,6.67834362 C12.7721253,12.9471568 19.6559652,11.3157555 24.2562374,5.69994367 L20.1809696,1.64003851 Z" id="Fill-5" fill="#0089FF" mask="url(#mask-2)"></path>
                    <path d="M29.5512617,10.9758366 C24.8331372,14.6293379 22.7927659,16.9922661 25.2544086,22.4017075 C23.4281308,20.8992532 17.581045,14.0171147 25.6460008,7.08455456 L29.5512617,10.9758366 Z" id="Fill-7" fill="#0089FF" mask="url(#mask-2)"></path>
                    <path d="M29.8252034,21.2392548 C25.4908911,18.1646378 22.1959263,15.5217732 23.5695247,9.36868173 C18.0676394,14.9767788 20.069399,21.3596605 25.6900009,25.3595006 L29.8252034,21.2392548 Z" id="Fill-9" fill="#0089FF" mask="url(#mask-2)"></path>
                    <path d="M20.1802781,30.8488451 C17.0677106,25.8551755 14.9187077,23.6247763 9.29580059,25.4768755 C10.9506307,23.8650367 18.1407712,18.9967324 24.1238625,26.9198157 L20.1802781,30.8488451 Z" id="Fill-11" fill="#0089FF" mask="url(#mask-2)"></path>
                    <path d="M9.87745481,30.2321307 C13.4473122,26.2127282 16.4351119,23.1601534 22.4807312,25.192999 C17.2862991,18.9244614 10.4036118,20.5550361 5.80247517,26.17195 L9.87745481,30.2321307 Z" id="Fill-13" fill="#0089FF" mask="url(#mask-2)"></path>
                    <path d="M0.507047487,20.8960571 C5.22632457,17.2420047 7.26611957,14.8785255 4.80390057,9.46963519 C6.63133098,10.9720894 12.4784167,17.8542279 4.41317278,24.7873391 L0.507047487,20.8960571 Z" id="Fill-15" fill="#0089FF" mask="url(#mask-2)"></path>
                    <path d="M0.233826182,10.6326389 C4.56871472,13.7072559 7.86252692,16.349845 6.48892857,22.503212 C11.9919664,16.8945639 9.98963056,10.5111311 4.36960491,6.5123931 L0.233826182,10.6326389 Z" id="Fill-17" fill="#0089FF" mask="url(#mask-2)"></path>
                    <polygon id="Fill-19" fill="#0089FF" mask="url(#mask-2)" points="39.3618646 24.5417355 37.4130802 27.9379889 36.4826609 24.5417355 36.3026925 24.5417355 34.1701539 27.9379889 33.4231975 24.5417355 32.703615 24.5417355 33.8588493 29.1890574 34.0388177 29.1890574 36.1731035 25.7928041 37.0979898 29.1890574 37.2779583 29.1890574 40.0817383 24.5417355"></polygon>
                    <path d="M44.6002565,25.2818474 C44.1951819,24.7900979 43.6212049,24.5416198 42.8780343,24.5416198 C42.1313691,24.5416198 41.4671167,24.7900979 40.8931397,25.2853186 C40.367795,25.7374389 40.0492101,26.268239 39.942918,26.8762728 C39.8243951,27.5302996 39.9717479,28.081059 40.3768225,28.5242121 C40.7816059,28.9691008 41.3413135,29.189231 42.0556542,29.189231 C42.7627147,29.189231 43.4016317,28.9691008 43.9630867,28.5221873 C44.5265801,28.075563 44.8629288,27.5268284 44.9817429,26.8762728 C45.0877438,26.2612967 44.9619406,25.7322321 44.6002565,25.2818474 M43.8768882,27.689395 C43.4429837,28.2149885 42.8780343,28.4741694 42.1779629,28.4741694 C41.8486032,28.4741694 41.5605954,28.4061922 41.3069506,28.2667668 C41.0533058,28.1311018 40.8680955,27.934402 40.752776,27.6786923 C40.6412421,27.432239 40.6124122,27.1640909 40.6627918,26.879744 C40.7420012,26.4380372 40.9813767,26.0576546 41.38616,25.7374389 C41.7874489,25.4195373 42.2429029,25.2566814 42.7484453,25.2566814 C43.2560262,25.2566814 43.651782,25.4195373 43.9450316,25.7374389 C44.2330393,26.0576546 44.3410786,26.4380372 44.2618692,26.879744 C44.2079952,27.1692976 44.0801535,27.4412062 43.8768882,27.689395" id="Fill-21" fill="#0089FF" mask="url(#mask-2)"></path>
                    <path d="M48.1812497,24.5417355 C47.7205538,24.5417355 47.2508304,24.8492236 46.7668376,25.4607285 L46.9307894,24.5417355 L46.2109157,24.5417355 L45.3864972,29.1890574 L46.1063709,29.1890574 L46.367296,27.7109163 C46.5021267,26.9582503 46.6302596,26.4543518 46.7470352,26.2038488 C47.047565,25.5729631 47.4415736,25.2567971 47.9258576,25.2567971 C48.0106,25.2567971 48.1110678,25.285145 48.2298819,25.3372126 L48.7301825,24.5417355 L48.1812497,24.5417355 Z" id="Fill-23" fill="#0089FF" mask="url(#mask-2)"></path>
                    <polygon id="Fill-25" fill="#0089FF" mask="url(#mask-2)" points="49.9718774 26.7600753 52.8205039 24.5417066 51.9745358 24.5417066 49.5723358 26.4132473 50.2217364 22.7540526 49.5021539 22.7540526 48.361189 29.1890285 49.0810627 29.1890285 49.4517744 27.0996717 51.2403927 29.1890285 52.1402349 29.1890285"></polygon>
                    <path d="M53.4197871,28.1756196 C53.3801824,28.0182597 53.2989346,27.9381335 53.1748786,27.9381335 C52.9355032,27.9381335 52.7808701,28.1417756 52.7106882,28.5438532 C52.6314788,28.9748571 52.71593,29.189202 52.9608385,29.189202 C53.1964283,29.189202 53.3513525,28.9852706 53.4253202,28.5724903 C53.4503643,28.4258333 53.4465786,28.295375 53.4197871,28.1756196" id="Fill-27" fill="#0089FF" mask="url(#mask-2)"></path>
                    <path d="M59.9934982,24.5417355 L59.2736244,24.5417355 L59.1149144,25.4355625 C58.7840987,24.8402564 58.2642869,24.5417355 57.549655,24.5417355 C56.9250073,24.5417355 56.3565633,24.7685188 55.8454879,25.2209283 C55.3309179,25.6730486 55.0158276,26.2165764 54.9042937,26.8546937 C54.7892654,27.5000426 54.9042937,28.0467523 55.2499613,28.4994511 C55.5991233,28.9602493 56.0848634,29.1890574 56.7112584,29.1890574 C57.4005549,29.1890574 58.033939,28.8925614 58.6058775,28.2955197 L58.4494972,29.1890574 L59.1693709,29.1890574 L59.9934982,24.5417355 Z M58.5089042,27.6895107 C58.32515,27.9290217 58.093346,28.121961 57.8105801,28.2613865 C57.5260669,28.4045724 57.2400976,28.4742851 56.9538372,28.4742851 C56.6661206,28.4742851 56.4139319,28.4045724 56.1908642,28.2613865 C55.9660493,28.1202254 55.8041359,27.9220793 55.7016296,27.6663696 C55.5991233,27.4126847 55.573788,27.1442474 55.6241675,26.8601897 C55.674547,26.5778677 55.7951084,26.3094303 55.9893461,26.0557454 C56.3891789,25.524656 56.9037489,25.2567971 57.5298526,25.2567971 C57.9943343,25.2567971 58.3501942,25.4121321 58.6041302,25.7251162 C58.8542805,26.037811 58.9390229,26.4219541 58.8595223,26.8740744 C58.8056483,27.1749094 58.6888726,27.4499998 58.5089042,27.6895107 L58.5089042,27.6895107 Z" id="Fill-29" fill="#0089FF" mask="url(#mask-2)"></path>
                    <polygon id="Fill-31" fill="#0089FF" mask="url(#mask-2)" points="62.3848943 22.7541683 61.6650205 22.7541683 60.5240556 29.1891442 61.2439293 29.1891442"></polygon>
                    <path d="M63.9450284,22.8846844 C63.8730992,22.7987729 63.7723402,22.7542262 63.6479931,22.7542262 C63.5242284,22.7542262 63.4089088,22.7987729 63.3081498,22.8846844 C63.2056435,22.9740671 63.1444892,23.0813842 63.1229396,23.2046108 C63.0996427,23.3261019 63.1246868,23.4299478 63.1983632,23.5175949 C63.2702923,23.6069776 63.3678481,23.6480532 63.4898655,23.6480532 C63.6139214,23.6480532 63.729241,23.6069776 63.8334945,23.5190412 C63.9342536,23.433419 63.9991936,23.3261019 64.0227817,23.2046108 C64.0443313,23.0813842 64.018996,22.9740671 63.9450284,22.8846844 L63.9450284,22.8846844 Z M63.783115,24.5418802 L63.0635325,24.5418802 L62.2394052,29.189202 L62.9589877,29.189202 L63.783115,24.5418802 Z" id="Fill-33" fill="#0089FF" mask="url(#mask-2)"></path>
                    <path d="M69.0236036,25.2263376 C68.6581337,24.7704569 68.1470583,24.5416487 67.4938719,24.5416487 C66.7687564,24.5416487 66.110037,24.8401696 65.5197522,25.4354757 L65.9950086,22.754284 L65.2751349,22.754284 L64.1341699,29.1892599 L64.8540437,29.1892599 L65.010424,28.2954329 C65.3651191,28.8924746 65.9137607,29.1892599 66.6534368,29.1892599 C67.3048759,29.1892599 67.8989465,28.9624766 68.4333188,28.5100671 C68.9676911,28.0576576 69.291809,27.5126834 69.4030516,26.8742769 C69.5166239,26.2309529 69.3887823,25.6842431 69.0236036,25.2263376 M68.3127574,27.6749607 C67.8896277,28.2095214 67.3479752,28.4741983 66.6877997,28.4741983 C66.1944882,28.4741983 65.814749,28.3205989 65.5482908,28.0079041 C65.2786294,27.6983912 65.1848594,27.3156944 65.2681458,26.8563425 C65.3199814,26.556086 65.44229,26.2844668 65.6295387,26.0452451 C65.8182435,25.8039986 66.063152,25.6139519 66.3601873,25.4710553 C66.6586786,25.3298942 66.9629941,25.2567103 67.2673097,25.2567103 C67.5640538,25.2567103 67.8322592,25.3298942 68.0695962,25.4710553 C68.3072244,25.6139519 68.481951,25.8123873 68.5931936,26.0663614 C68.7029802,26.3238067 68.7338486,26.5919548 68.6831779,26.8742769 C68.6327983,27.1548634 68.5087424,27.4230115 68.3127574,27.6749607" id="Fill-35" fill="#0089FF" mask="url(#mask-2)"></path>
                    <path d="M75.4908187,24.5417355 L74.770945,24.5417355 L74.6128174,25.4355625 C74.2817104,24.8402564 73.7613163,24.5417355 73.0469755,24.5417355 C72.4229102,24.5417355 71.8541751,24.7685188 71.3430997,25.2209283 C70.8282385,25.6730486 70.5134394,26.2165764 70.4019055,26.8546937 C70.2865859,27.5000426 70.4019055,28.0467523 70.747573,28.4994511 C71.0964439,28.9602493 71.5824751,29.1890574 72.2085789,29.1890574 C72.8978755,29.1890574 73.5309683,28.8925614 74.1034893,28.2955197 L73.9468177,29.1890574 L74.6666914,29.1890574 L75.4908187,24.5417355 Z M74.0062248,27.6895107 C73.8227618,27.9290217 73.5906666,28.121961 73.3081919,28.2613865 C73.0239699,28.4045724 72.7377094,28.4742851 72.4514489,28.4742851 C72.1634412,28.4742851 71.9118348,28.4045724 71.688476,28.2613865 C71.463661,28.1202254 71.3017477,27.9220793 71.1992414,27.6663696 C71.0964439,27.4126847 71.0713997,27.1442474 71.1217792,26.8601897 C71.1721588,26.5778677 71.2927201,26.3094303 71.4869579,26.0557454 C71.8864995,25.524656 72.4013606,25.2567971 73.0274644,25.2567971 C73.491946,25.2567971 73.8480972,25.4121321 74.1014508,25.7251162 C74.3518923,26.037811 74.4366347,26.4219541 74.3571341,26.8740744 C74.30326,27.1749094 74.1861932,27.4499998 74.0062248,27.6895107 L74.0062248,27.6895107 Z" id="Fill-37" fill="#0089FF" mask="url(#mask-2)"></path>
                    <path d="M81.091215,25.2263376 C80.7257452,24.7704569 80.2146698,24.5416487 79.5614834,24.5416487 C78.8360766,24.5416487 78.1773572,24.8401696 77.5873636,25.4354757 L78.0626201,22.754284 L77.3427463,22.754284 L76.2017814,29.1892599 L76.9216551,29.1892599 L77.0783267,28.2954329 C77.4327305,28.8924746 77.9813722,29.1892599 78.7210483,29.1892599 C79.3724874,29.1892599 79.9665579,28.9624766 80.5009302,28.5100671 C81.0355937,28.0576576 81.3591292,27.5126834 81.4709543,26.8742769 C81.5839442,26.2309529 81.4563937,25.6842431 81.091215,25.2263376 M80.3803689,27.6749607 C79.956948,28.2095214 79.4155866,28.4741983 78.7554112,28.4741983 C78.2620996,28.4741983 77.8829428,28.3205989 77.6161935,28.0079041 C77.3465321,27.6983912 77.2527621,27.3156944 77.335466,26.8563425 C77.3875928,26.556086 77.5101927,26.2844668 77.6971502,26.0452451 C77.8861462,25.8039986 78.1307634,25.6139519 78.4277987,25.4710553 C78.7265813,25.3298942 79.0306056,25.2567103 79.3349212,25.2567103 C79.631374,25.2567103 79.8995794,25.3298942 80.1374988,25.4710553 C80.3748358,25.6139519 80.5495625,25.8123873 80.6608051,26.0663614 C80.7705917,26.3238067 80.8011688,26.5919548 80.7510805,26.8742769 C80.7004098,27.1548634 80.5757715,27.4230115 80.3803689,27.6749607" id="Fill-39" fill="#0089FF" mask="url(#mask-2)"></path>
                    <path d="M87.5587214,24.5417355 L86.8388477,24.5417355 L86.6801376,25.4355625 C86.3493219,24.8402564 85.8292189,24.5417355 85.1148782,24.5417355 C84.4902305,24.5417355 83.9217865,24.7685188 83.4107111,25.2209283 C82.89585,25.6730486 82.5810508,26.2165764 82.469517,26.8546937 C82.3544886,27.5000426 82.469517,28.0467523 82.8148933,28.4994511 C83.1640553,28.9602493 83.6497954,29.1890574 84.2761904,29.1890574 C84.9654869,29.1890574 85.598871,28.8925614 86.1711007,28.2955197 L86.0144292,29.1890574 L86.7345941,29.1890574 L87.5587214,24.5417355 Z M86.0738362,27.6895107 C85.890082,27.9290217 85.658278,28.121961 85.3758033,28.2613865 C85.0912901,28.4045724 84.8053209,28.4742851 84.5187692,28.4742851 C84.2313439,28.4742851 83.9791551,28.4045724 83.7560874,28.2613865 C83.5312725,28.1202254 83.3690679,27.9220793 83.2668528,27.6663696 C83.1640553,27.4126847 83.13872,27.1442474 83.1893907,26.8601897 C83.2397702,26.5778677 83.3603316,26.3094303 83.5545694,26.0557454 C83.9541109,25.524656 84.4689721,25.2567971 85.0950759,25.2567971 C85.5592663,25.2567971 85.9154174,25.4121321 86.1690622,25.7251162 C86.4195037,26.037811 86.503955,26.4219541 86.4244543,26.8740744 C86.3711627,27.1749094 86.2540959,27.4499998 86.0738362,27.6895107 L86.0738362,27.6895107 Z" id="Fill-41" fill="#0089FF" mask="url(#mask-2)"></path>
                    <polygon id="Fill-43" fill="#0089FF" mask="url(#mask-2)" points="91.9837608 26.5078367 88.2044237 26.5078367 88.1091977 27.0441329 91.8885348 27.0441329"></polygon>
                    <path d="M93.8498995,22.8846844 C93.7779703,22.7987729 93.6769201,22.7542262 93.5528642,22.7542262 C93.4285171,22.7542262 93.3134887,22.7987729 93.2127297,22.8846844 C93.1102234,22.9740671 93.0490691,23.0813842 93.0275194,23.2046108 C93.0039313,23.3261019 93.0292667,23.4299478 93.1032343,23.5175949 C93.1751634,23.6069776 93.2721367,23.6480532 93.3944454,23.6480532 C93.5185013,23.6480532 93.6338209,23.6069776 93.7380744,23.5190412 C93.8391247,23.433419 93.9037735,23.3261019 93.9270704,23.2046108 C93.9489112,23.0813842 93.9232846,22.9740671 93.8498995,22.8846844 L93.8498995,22.8846844 Z M93.6876949,24.5418802 L92.9681124,24.5418802 L92.1439851,29.189202 L92.8635676,29.189202 L93.6876949,24.5418802 Z" id="Fill-45" fill="#0089FF" mask="url(#mask-2)"></path>
                    <path d="M98.5917473,26.8564003 C98.7012427,26.2434491 98.7175505,25.7840972 98.6418356,25.4887583 C98.566412,25.1925515 98.4079932,24.9599829 98.1686177,24.7936559 C97.9274949,24.6258825 97.6412344,24.5417066 97.3066329,24.5417066 C96.6246166,24.5417066 95.9985129,24.8402275 95.4242447,25.4355336 L95.5826635,24.5417066 L94.8627898,24.5417066 L94.0386625,29.1890285 L94.7585362,29.1890285 L95.0392637,27.5998099 C95.1397315,27.024463 95.2387432,26.6313526 95.3325132,26.4219252 C95.4749154,26.0898497 95.7032249,25.8124451 96.0130734,25.5888437 C96.3220484,25.3675565 96.644419,25.2567682 96.9842623,25.2567682 C97.5818274,25.2567682 97.898665,25.5463219 97.9382697,26.1216688 C97.9490445,26.3004342 97.9111871,26.6330882 97.8229501,27.1228129 L97.4574803,29.1890285 L98.1776452,29.1890285 L98.5917473,26.8564003 Z" id="Fill-47" fill="#0089FF" mask="url(#mask-2)"></path>
                    <path d="M103.617701,27.9380467 C103.140697,28.2952883 102.571962,28.4743429 101.917028,28.4743429 C101.557382,28.4743429 101.247534,28.4043409 100.986609,28.2652048 C100.723645,28.1254901 100.533193,27.9270547 100.412632,27.6733698 C100.288576,27.4176601 100.256251,27.1443052 100.306631,26.8547515 C100.387296,26.3899036 100.640941,26.0074961 101.067857,25.700008 C101.483415,25.4049584 101.953138,25.2565657 102.482269,25.2565657 C103.162538,25.2565657 103.666333,25.4356204 103.99744,25.7928619 L104.501235,25.5247138 C104.400476,25.3158649 104.26186,25.142017 104.090627,25.0028808 C103.702152,24.6953928 103.192824,24.5417934 102.568758,24.5417934 C102.086222,24.5417934 101.627273,24.64535 101.20094,24.851017 C100.772277,25.0584196 100.412632,25.3424772 100.126663,25.708686 C99.8369076,26.0754732 99.6534446,26.472344 99.5777297,26.9013231 C99.4589156,27.5698131 99.6118014,28.1202833 100.033184,28.5547584 C100.443209,28.9802664 100.997384,29.1891153 101.701241,29.1891153 C102.671265,29.1891153 103.442974,28.8674532 104.022775,28.2255755 L103.617701,27.9380467 Z" id="Fill-49" fill="#0089FF" mask="url(#mask-2)"></path>
                    <path d="M105.670972,28.1756196 C105.631076,28.0182597 105.55041,27.9381335 105.426063,27.9381335 C105.186979,27.9381335 105.032055,28.1417756 104.961873,28.5438532 C104.882663,28.9748571 104.967406,29.189202 105.212023,29.189202 C105.447613,29.189202 105.602537,28.9852706 105.676505,28.5724903 C105.701549,28.4258333 105.698054,28.295375 105.670972,28.1756196" id="Fill-51" fill="#0089FF" mask="url(#mask-2)"></path>
                    <path d="M111.186363,27.9380467 C110.709651,28.2952883 110.140916,28.4743429 109.485691,28.4743429 C109.126045,28.4743429 108.816488,28.4043409 108.555563,28.2652048 C108.292599,28.1254901 108.102147,27.9270547 107.981586,27.6733698 C107.857239,27.4176601 107.824914,27.1443052 107.875585,26.8547515 C107.95625,26.3899036 108.209895,26.0074961 108.636519,25.700008 C109.052078,25.4049584 109.521801,25.2565657 110.050932,25.2565657 C110.731201,25.2565657 111.234996,25.4356204 111.566394,25.7928619 L112.069898,25.5247138 C111.969139,25.3158649 111.830814,25.142017 111.659581,25.0028808 C111.271106,24.6953928 110.761778,24.5417934 110.13713,24.5417934 C109.654884,24.5417934 109.196227,24.64535 108.769603,24.851017 C108.341231,25.0584196 107.981586,25.3424772 107.695617,25.708686 C107.40557,26.0754732 107.222107,26.472344 107.146392,26.9013231 C107.02787,27.5698131 107.180755,28.1202833 107.601555,28.5547584 C108.012163,28.9802664 108.566338,29.1891153 109.270195,29.1891153 C110.239928,29.1891153 111.011928,28.8674532 111.591438,28.2255755 L111.186363,27.9380467 Z" id="Fill-53" fill="#0089FF" mask="url(#mask-2)"></path>
                    <path d="M117.303193,25.2818474 C116.898119,24.7900979 116.324142,24.5416198 115.580971,24.5416198 C114.834015,24.5416198 114.170054,24.7900979 113.596077,25.2853186 C113.070441,25.7374389 112.752147,26.268239 112.645855,26.8762728 C112.527332,27.5302996 112.674394,28.081059 113.079468,28.5242121 C113.484543,28.9691008 114.044251,29.189231 114.758591,29.189231 C115.465652,29.189231 116.104569,28.9691008 116.666024,28.5221873 C117.229226,28.075563 117.565575,27.5268284 117.68468,26.8762728 C117.790681,26.2612967 117.664586,25.7322321 117.303193,25.2818474 M116.579534,27.689395 C116.145629,28.2149885 115.580971,28.4741694 114.8809,28.4741694 C114.55154,28.4741694 114.263532,28.4061922 114.009888,28.2667668 C113.756243,28.1311018 113.571033,27.934402 113.455713,27.6786923 C113.343888,27.432239 113.315349,27.1640909 113.365729,26.879744 C113.444938,26.4380372 113.684022,26.0576546 114.089097,25.7374389 C114.490386,25.4195373 114.945549,25.2566814 115.451382,25.2566814 C115.958963,25.2566814 116.354428,25.4195373 116.647969,25.7374389 C116.935976,26.0576546 117.043724,26.4380372 116.964806,26.879744 C116.910641,27.1692976 116.78309,27.4412062 116.579534,27.689395" id="Fill-55" fill="#0089FF" mask="url(#mask-2)"></path>
                    <path d="M126.086468,26.7151815 C126.187519,26.1505373 126.201788,25.7250294 126.131315,25.4406825 C125.976973,24.8436408 125.552096,24.5416487 124.857266,24.5416487 C124.107107,24.5416487 123.459453,24.8991795 122.919257,25.6139519 C122.868877,25.3512998 122.793163,25.1511288 122.687162,25.0044718 C122.453319,24.697273 122.097168,24.5416487 121.613175,24.5416487 C120.972511,24.5416487 120.380188,24.8401696 119.834749,25.4354757 L119.993459,24.5416487 L119.273586,24.5416487 L118.449167,29.1892599 L119.169332,29.1892599 L119.498692,27.3408604 C119.593627,26.795597 119.723507,26.3900483 119.88542,26.1216109 C120.038306,25.8661904 120.24361,25.6590771 120.499293,25.5017173 C120.763713,25.3408863 121.035121,25.2567103 121.317887,25.2567103 C121.549983,25.2567103 121.74422,25.3122491 121.897397,25.4244837 C122.089597,25.5731656 122.188608,25.8039986 122.192394,26.1198753 C122.192394,26.268268 122.158322,26.5474081 122.084355,26.9546924 L121.688308,29.1892599 L122.408473,29.1892599 L122.712497,27.4802858 C122.822284,26.8546069 122.953329,26.409429 123.108253,26.1415702 C123.263177,25.8771825 123.471684,25.662259 123.732609,25.4996924 C123.993826,25.3371259 124.26902,25.2567103 124.562561,25.2567103 C124.792909,25.2567103 124.987147,25.3102243 125.138285,25.4158058 C125.323495,25.5552312 125.426002,25.7626338 125.437359,26.0377242 C125.44231,26.1843813 125.41348,26.440091 125.348831,26.8062997 L124.92774,29.1892599 L125.647613,29.1892599 L126.086468,26.7151815 Z" id="Fill-57" fill="#0089FF" mask="url(#mask-2)"></path>
                    <path d="M42.0123584,3.94052366 L44.8224661,3.94052366 L46.6912162,19.3392477 L43.8081187,19.3392477 L43.3068986,15.2294531 L37.7231781,15.2294531 L35.4142905,19.3392477 L33.3705758,19.3392477 L42.0123584,3.94052366 Z M43.0642682,13.1797581 L42.3158412,7.04107755 L38.8673541,13.1797581 L43.0642682,13.1797581 Z M52.6284377,3.94052366 L55.4385454,3.94052366 L52.5325484,17.1542936 L58.8484484,17.1542938 L58.1375546,19.3392477 L49.2419215,19.3392477 L52.6284377,3.94052366 Z M64.1295185,3.94052366 L66.9396262,3.94052366 L63.5531099,19.3392477 L60.7430022,19.3392477 L64.1295185,3.94052366 Z M69.4629603,3.94052366 L72.1179646,3.94052366 L72.1032646,15.208644 L76.907921,3.94052366 L79.2527186,3.94052366 L78.9962833,15.1462168 L84.0517987,3.94052366 L85.9951524,3.94052366 L79.0686303,19.3392477 L76.3862547,19.3392477 L76.6285546,8.77863628 L72.1254746,19.3392477 L69.443099,19.3392477 L69.4629603,3.94052366 Z M86.4995178,17.5184526 C85.5942485,16.0479365 85.4108613,14.0884338 85.9493506,11.6398857 C86.4939417,9.163592 87.5437706,7.19715299 89.0988688,5.74050964 C90.6539671,4.2838663 92.4807225,3.55555556 94.5791901,3.55555556 C96.6654926,3.55555556 98.1673433,4.2838663 99.0847873,5.74050964 C100.002231,7.19715299 100.190943,9.15318756 99.6509283,11.6086721 C99.0987098,14.1196477 98.0443094,16.0999593 96.4876954,17.5496663 C94.9310814,18.9993732 93.0792384,19.7242158 90.9321107,19.7242158 C88.8823033,19.7242158 87.4047871,18.9889688 86.4995178,17.5184526 Z M94.6514969,15.9837825 C95.5912372,14.9051728 96.2639842,13.4433491 96.669758,11.5982675 C97.0633281,9.80867712 97.0263141,8.3728645 96.558715,7.29078659 C96.0911159,6.20870868 95.2764485,5.66767784 94.1146882,5.66767784 C92.9407629,5.66767784 91.8835645,6.20870868 90.9430615,7.29078659 C90.0025584,8.3728645 89.3332437,9.81908156 88.9350973,11.6294811 C88.5400017,13.4260079 88.5720677,14.8704909 89.031296,15.9629734 C89.4905244,17.0554559 90.291883,17.601689 91.4353957,17.601689 C92.6397336,17.601689 93.7117566,17.0623922 94.6514969,15.9837825 Z M104.499317,3.94052366 L109.553861,3.94052366 C112.297075,3.94052366 113.388743,5.21333339 112.828897,7.75899104 C112.619908,8.70927741 112.196957,9.57457994 111.56003,10.3549246 C110.923102,11.1352692 110.151358,11.7335245 109.244773,12.1497083 L112.07952,19.3392477 L108.658122,19.3392477 L106.694068,13.044499 L105.143034,13.044499 L103.758681,19.3392477 L101.112801,19.3392477 L104.499317,3.94052366 Z M106.255321,10.9323767 C108.292963,10.9323767 109.518466,9.99250906 109.931867,8.11274551 C110.23391,6.73933893 109.475606,6.05264594 107.656934,6.05264594 L106.680696,6.05264594 L105.607536,10.9323767 L106.255321,10.9323767 Z M118.025865,3.94052366 L120.726488,3.94052366 L119.08357,11.4109857 L125.890517,3.94052366 L128.226191,3.94052366 L122.026363,10.8491404 L125.971017,19.3392477 L122.458382,19.3392477 L119.005771,11.7647402 L117.339972,19.3392477 L114.639349,19.3392477 L118.025865,3.94052366 Z" id="ALIWORK" fill="#0089FF" mask="url(#mask-2)"></path>
                </g>
            </g>
        </g>
    </g>
</svg>