<svg version="1.1" id="图层_1" xmlns="http://www.w3.org/2000/svg" xmlns:xlink="http://www.w3.org/1999/xlink" x="0px" y="0px"
	 viewBox="0 0 160.4 82.7" style="enable-background:new 0 0 160.4 82.7;" xml:space="preserve">
<style type="text/css">
	.st0{fill:#3E3A39;}
	.st1{fill:url(#SVGID_1_);}
	.st2{fill:url(#SVGID_2_);}
	.st3{fill:url(#SVGID_3_);}
	.st4{fill:url(#SVGID_4_);}
	.st5{fill:#008CD6;}
	.st6{fill:#FFFFFF;}
	.st7{fill:url(#SVGID_5_);}
	.st8{opacity:0.2;}
	.st9{fill:url(#SVGID_6_);}
</style>
<g>
	<g>
		<path class="st0" d="M77.4,44.8c0,0.3-0.1,0.4-0.4,0.4h-5.6l0.4,1.5h5.4c0.6,0,1-0.1,1.3-0.4c0.3-0.3,0.4-0.7,0.4-1.3v-6.6
			c0-0.6-0.1-1-0.4-1.3c-0.2-0.2-0.4-0.3-0.7-0.3v-6.3c0-0.6-0.1-1-0.4-1.3c-0.3-0.3-0.7-0.4-1.3-0.4h-6.7v1.5h6.5
			c0.3,0,0.4,0.1,0.4,0.4v6.1h-4.4c-0.3,0-0.5-0.1-0.4-0.4l0.4-4.8h-1.5l-0.5,5c-0.1,0.6,0.1,1,0.4,1.3c0.3,0.3,0.7,0.4,1.3,0.4H77
			c0.3,0,0.4,0.1,0.4,0.4v2h-8.5V42h8.5V44.8z M68.3,45.7c0.1,0.4,0.2,0.7,0.2,1h1.6c-0.4-1.1-0.7-3.2-0.8-4h-1.5
			c0,0.3,0.1,1,0.2,1.6c-0.5,0.2-1.5,0.3-2.3,0.3v-4h1.2c0.6,0,1-0.1,1.3-0.4c0.3-0.3,0.4-0.7,0.4-1.3v-6.7c0-0.6-0.1-1-0.4-1.3
			c-0.3-0.3-0.7-0.4-1.3-0.4h-1.2v-1.9h-1.5v1.9H63c-0.6,0-1,0.1-1.3,0.4c-0.3,0.3-0.4,0.7-0.4,1.3V39c0,0.6,0.1,1,0.4,1.3
			c0.3,0.3,0.7,0.4,1.3,0.4h1.2v4h-3.3v1.5h3.4C65.3,46.1,67.4,46.1,68.3,45.7z M65.7,32h1c0.3,0,0.4,0.1,0.4,0.4v6.4
			c0,0.2-0.1,0.4-0.4,0.4h-1V32z M64.2,39.2h-1c-0.3,0-0.4-0.1-0.4-0.4v-6.4c0-0.2,0.1-0.4,0.4-0.4h1V39.2z M105.4,30.7
			c0.3-0.4,0.5-0.5,1.2-0.5h4.8c0.7,0,1,0.1,1.2,0.5c0.7,1.1,2.2,3.5,2.9,4.5h2.1c-0.7-1.1-2.6-4.1-3.4-5.1
			c-0.6-0.9-1.3-1.3-2.4-1.3h-0.4c0,0,0-0.1,0-0.1l-0.3-0.8c1.1-0.4,1.7-1.2,1.5-2c-0.2-0.8-1.4-1.2-2.6-0.9
			c-0.9,0.2-1.5,0.8-1.7,1.4c-0.2-0.3-0.5-0.5-0.8-0.5c0-0.1,0.1-0.3,0.1-0.5c0-0.7-0.5-1.3-1.2-1.4l0-1.2c0-0.2-0.2-0.3-0.3-0.3h0
			c-0.2,0-0.3,0.2-0.3,0.3l0,1.2c-0.2,0-0.4,0.1-0.5,0.2l-0.8-0.9c-0.1-0.1-0.2-0.1-0.2-0.1c-0.1,0-0.1,0-0.2,0.1l0,0
			c-0.1,0.1-0.1,0.1-0.1,0.2c0,0.1,0,0.2,0.1,0.2l0.8,0.9c-0.1,0.2-0.2,0.5-0.2,0.7c0,0.8,0.7,1.5,1.5,1.5c0.1,0,0.3,0,0.4-0.1
			c0,0.3,0.1,0.5,0.3,0.7l-0.6,1.1c0,0,0,0.1,0,0.1h-0.2c-1,0-1.8,0.4-2.4,1.3c-0.7,1.1-2.6,4.1-3.4,5.1h2.1
			C103.2,34.2,104.7,31.8,105.4,30.7z M110.6,28l0.3,0.8h-0.8l-0.1-0.7C110.2,28.1,110.4,28.1,110.6,28z M108.8,27.6
			c0.1,0.1,0.3,0.2,0.5,0.3l0.1,0.9h-0.8L108.8,27.6z M107.5,27.9C107.6,27.9,107.6,27.9,107.5,27.9c0.3,0,0.4,0,0.5-0.1l-0.1,1
			h-0.9L107.5,27.9z M93.2,41.5c-1.5,2.2-3.4,5.2-3.4,5.2h2c0,0,1.2-1.7,2.5-3.6c1.3,1.9,2.4,3.6,2.4,3.6h2c0,0-2-2.9-3.4-5.2
			c0.1-0.2,0.2-0.3,0.3-0.5c1.3-1.9,2.4-2.7,3.2-11.6h-1.6c-0.8,7.2-1.4,7.9-2.7,10c-0.1,0.1-0.2,0.3-0.3,0.5
			c-0.1-0.2-0.2-0.3-0.3-0.5c-1.3-2.1-1.9-2.8-2.7-10h-1.6c0.9,8.9,2,9.7,3.2,11.6C93,41.1,93.1,41.3,93.2,41.5z M121.3,42.8v-2h3.5
			v4c0,0.3-0.1,0.4-0.4,0.4h-1.9v1.5h2c0.6,0,1-0.1,1.3-0.4c0.3-0.3,0.4-0.7,0.4-1.3V30.4c0-0.6-0.1-1-0.4-1.3
			c-0.3-0.3-0.7-0.4-1.3-0.4h-3c-0.6,0-1,0.1-1.3,0.4c-0.3,0.3-0.4,0.7-0.4,1.3v12.4c0,2.9-0.5,3.8-0.6,3.9h1.5
			C120.8,46.7,121.3,46.3,121.3,42.8z M121.3,30.5c0-0.2,0.1-0.4,0.4-0.4h2.6c0.3,0,0.4,0.1,0.4,0.4v3.2h-3.5V30.5z M121.3,35.1h3.5
			v4.2h-3.5V35.1z M117.8,45.2h-3.6c0.1-0.2,0.2-0.5,0.2-0.8c0.1-0.5,0.3-2.2,0.3-2.6h-1.5c-0.1,0.5-0.2,2.1-0.3,2.6
			c0,0.3-0.1,0.6-0.2,0.8h-2.8v-5.3h6.4v-1.5h-6.4v-3.2h4v-1.5h-9.6v1.5h4v3.2h-6.4v1.5h6.4v5.3h-2.8c-0.1-0.2-0.2-0.5-0.2-0.8
			c-0.1-0.5-0.2-2.2-0.3-2.6h-1.5c0.1,0.5,0.2,2.2,0.3,2.6c0,0.3,0.1,0.6,0.2,0.8h-3.6v1.5h17.4V45.2z M95.4,33.8l-0.9-5.1h-1.6
			l0.9,5.1H95.4z M120.1,54.4c-0.4,0-0.8,0.1-1.2,0.1c-1,0-1.6-0.2-1.7-0.5c-0.2-0.4-0.3-1-0.3-1.6c0-0.6,0.1-1.1,0.3-1.6
			c0.2-0.4,0.8-0.6,1.7-0.6c0.4,0,0.8,0,1.3,0.1l0.3,0l0-1l-0.2,0c-0.5,0-1-0.1-1.4-0.1c-1,0-2.3,0.1-2.8,1.3
			c-0.2,0.5-0.4,1.2-0.4,1.9c0,0.7,0.2,1.5,0.4,2c0.4,0.7,1.3,1.1,2.8,1.1c0.4,0,0.8,0,1.2,0l0.4,0l0-1L120.1,54.4z M103.4,49.1
			l-2.9,6.3h1.3l0.9-1.9h2.4l0.8,1.9h1.2l-2.8-6.3H103.4z M103.1,52.5L103.1,52.5c0.3-0.6,0.5-1.1,0.7-1.5l0-0.1l0.7,1.6H103.1z
			 M112.7,49.3c0,0.8,0,1.6,0,2.4l0,0.4c0,0.4,0,0.9,0,1.3v0.1l-3.4-4.4h-1v6.3h1.2v-0.2c0-0.8,0-1.6,0-2.3c0-0.5,0-1,0-1.6v-0.1
			l3.3,4.2h1.1v-6.3h-1.2V49.3z M122.1,55.4h1.2v-6.2h-1.2V55.4z M134.1,42.8c1.8-2.7,2.5-4.5,2.7-5c0.2-0.8-0.2-1.7-1.3-1.7h-6.6
			v-5.6c0-0.2,0.1-0.4,0.4-0.4h5.1c0.3,0,0.4,0.1,0.4,0.4v2.3c0,0.3-0.1,0.4-0.4,0.4h-3.2v1.5h3.3c0.6,0,1-0.1,1.3-0.4
			c0.3-0.3,0.4-0.7,0.4-1.3v-2.7c0-0.6-0.1-1-0.4-1.3c-0.3-0.3-0.7-0.4-1.3-0.4h-5.5c-0.6,0-1,0.1-1.3,0.4c-0.3,0.3-0.4,0.7-0.4,1.2
			c0,0,0,0,0,0v16.3h1.5v-9.2h5.9c0.2,0,0.3,0.2,0.3,0.4c-0.3,1-1,2.3-1.8,3.6c-0.7-1.1-1.3-2.2-1.7-3.2h-1.7
			c0.4,0.9,1.2,2.6,2.5,4.6c-1.2,1.7-2.4,3.2-2.9,3.8h1.9c0.7-0.9,1.3-1.7,1.9-2.4c0.6,0.8,1.3,1.6,2,2.4h1.9
			C136.6,46.2,135.4,44.7,134.1,42.8z M63.7,49.1l-2.8,6.3h1.3l0.9-1.9h2.4l0.8,1.9h1.2l-2.8-6.3H63.7z M63.4,52.5L63.4,52.5
			c0.3-0.6,0.5-1.1,0.7-1.5l0-0.1l0.7,1.6H63.4z M127.4,49.1l-2.9,6.3h1.3l0.9-1.9h2.4l0.8,1.9h1.2l-2.8-6.3H127.4z M127.1,52.5
			L127.1,52.5c0.2-0.5,0.5-1,0.7-1.5l0-0.1l0.7,1.6H127.1z M133.5,53.9v-4.8h-1.2v4.8c0,1.5,1.4,1.5,1.9,1.5h2.4v-1h-2.4
			C133.6,54.4,133.5,54.2,133.5,53.9z M98,49.3c0,0.3,0,0.7,0,1l0,3.2l-3.4-4.4h-1v6.3h1.2v-0.2c0-0.7,0-1.4,0-2l0-0.7
			c0-0.4,0-0.8,0-1.2v-0.1l3.3,4.2h1.1v-6.3H98V49.3z M75.8,50.2h2.1v5.1h1.2v-5.1h2.2v-1h-5.4V50.2z M73.1,49.3c0,0.7,0,1.5,0,2.4
			c0,0.5,0,1.1,0,1.6v0.1l-3.4-4.4h-1v6.3h1.2l0-3.5c0-0.2,0-0.4,0-0.7v-0.1l0.1,0.1l3.2,4.1h1.1v-6.3h-1.2V49.3z M85.8,51
			c0-0.3,0.1-0.5,0.2-0.7c0.1-0.1,0.4-0.2,0.6-0.2H89v-1h-2.4c-0.6,0-1.1,0.2-1.5,0.5c-0.4,0.3-0.6,0.8-0.6,1.4v4.4h1.2v-2.6h3.3v-1
			h-3.3V51z M90.7,55.4h1.2v-6.2h-1.2V55.4z M88.8,42.7h-1.5c0,0.4,0.1,1.1,0.3,1.8c-0.5,0.1-1,0.1-1.6,0.2v-4h1.2
			c0.6,0,1-0.1,1.3-0.4c0.3-0.3,0.4-0.7,0.4-1.3v-6.7c0-0.6-0.1-1-0.4-1.3c-0.3-0.3-0.7-0.4-1.3-0.4H86v-1.9h-1.5v1.9h-1.2
			c-0.6,0-1,0.1-1.3,0.4c-0.3,0.3-0.4,0.7-0.4,1.3V39c0,0.6,0.1,1,0.4,1.3c0.3,0.3,0.7,0.4,1.3,0.4h1.2v4h-3.3v1.5h3.4
			c0.8,0,2.3,0,3.3-0.2c0.1,0.3,0.1,0.5,0.2,0.7h1.6C89.2,45.6,88.9,43.4,88.8,42.7z M86,32h1c0.3,0,0.4,0.1,0.4,0.4v6.4
			c0,0.2-0.1,0.4-0.4,0.4h-1V32z M84.5,39.2h-1c-0.3,0-0.4-0.1-0.4-0.4v-6.4c0-0.2,0.1-0.4,0.4-0.4h1V39.2z"/>
	</g>
	<g>
		<g>
			<path class="st0" d="M38.2,57.5c0,0,0.9-0.9,8.2-4.4c0,0,0.4-0.2,0.6,0.1c0,0,2.3,2.6,4.9,2.4c0,0,0.4,0,0.6-0.5
				c0.4-0.9-2.1-1.9-2.1-1.9c-1.1-0.5-1-1.6-1-1.6c0.1-0.7-0.4-1.1-0.4-1.1c-0.9-0.7-3.7,1.1-3.7,1.1c-4.3,2.3-7.8,4.4-7.8,4.4
				s-1,0.5-0.6,1.2C36.9,57.3,37.3,58,38.2,57.5z"/>
			<path class="st0" d="M30.6,57.8c0,0-1-0.9-8.4-3.9c0,0-0.4-0.2-0.6,0.2c0,0-2.1,2.7-4.7,2.7c0,0-0.4,0-0.7-0.5
				c-0.4-0.9,1.9-2,1.9-2c1.1-0.6,0.9-1.6,0.9-1.6c-0.1-0.7,0.3-1.1,0.3-1.1c0.8-0.7,3.8,0.9,3.8,0.9c4.5,2,8.1,3.9,8.1,3.9
				s1,0.4,0.7,1.2C31.9,57.5,31.6,58.2,30.6,57.8z"/>
			<linearGradient id="SVGID_1_" gradientUnits="userSpaceOnUse" x1="34.1792" y1="55.9975" x2="34.1792" y2="67.6369">
				<stop  offset="0" style="stop-color:#0097E0"/>
				<stop  offset="0.2519" style="stop-color:#00AAEB"/>
				<stop  offset="1" style="stop-color:#00B9EF"/>
			</linearGradient>
			<path class="st1" d="M27,67.8c0.5-4.9,3.5-8.7,7.2-8.7c3.7,0,6.7,3.8,7.2,8.7L27,67.8z"/>
			<linearGradient id="SVGID_2_" gradientUnits="userSpaceOnUse" x1="34.2714" y1="51.9529" x2="34.2714" y2="78.6384">
				<stop  offset="0" style="stop-color:#0097E0"/>
				<stop  offset="0.2519" style="stop-color:#00AAEB"/>
				<stop  offset="1" style="stop-color:#00B9EF"/>
			</linearGradient>
			<ellipse class="st2" cx="34.3" cy="55.6" rx="4.3" ry="5"/>
			<path class="st0" d="M24.3,32.6c0,0-2.5-9.2,4.4-18.4l0.6,0.9c0,0-4.8,6-3.5,16.1L24.3,32.6z"/>
			<ellipse transform="matrix(0.7602 -0.6496 0.6496 0.7602 -0.9357 23.2852)" class="st0" cx="31.1" cy="12.9" rx="3.2" ry="2.3"/>
			<path class="st0" d="M38.7,30c0,0,3.5-8.8,14.6-12.1l-0.1,1c0,0-7.4,1.9-12.4,10.8L38.7,30z"/>
			
				<ellipse transform="matrix(0.9978 -6.616332e-02 6.616332e-02 0.9978 -1.0808 3.7516)" class="st0" cx="56.1" cy="18.2" rx="3.2" ry="2.3"/>
			
				<linearGradient id="SVGID_3_" gradientUnits="userSpaceOnUse" x1="33.6855" y1="82.7113" x2="33.6855" y2="55.8927" gradientTransform="matrix(0.9998 1.870000e-02 -1.870000e-02 0.9998 1.2398 -32.7837)">
				<stop  offset="0" style="stop-color:#00A0E9"/>
				<stop  offset="0.6833" style="stop-color:#00AFEC"/>
				<stop  offset="1" style="stop-color:#00B9EF"/>
			</linearGradient>
			<path class="st3" d="M17.8,37.9c0.5-11.1,9.9-8.7,14.1-15c3.4,5.7,16.1,0.5,17.4,14.9C50,45.6,44.2,51,33.9,51.5
				C24.9,52,17.4,48.2,17.8,37.9z"/>
			<linearGradient id="SVGID_4_" gradientUnits="userSpaceOnUse" x1="32.7558" y1="51.107" x2="32.7558" y2="41.1244">
				<stop  offset="0" style="stop-color:#00A0E9"/>
				<stop  offset="0.2031" style="stop-color:#00A4EA"/>
				<stop  offset="0.5944" style="stop-color:#00B1ED"/>
				<stop  offset="1" style="stop-color:#54C3F1"/>
			</linearGradient>
			<path class="st4" d="M43.2,41.9c-0.5,0.3-10.7,8.8-25.3-1.3c0.1,0.5,0.1,0.9,0.2,1.4c0,0.1,0,0.2,0.1,0.3c1.6,7,8.1,9.6,15.7,9.2
				c6.3-0.3,10.9-2.5,13.4-5.9C48.5,43.4,46.1,40,43.2,41.9z"/>
			<g>
				<path class="st5" d="M33.3,41.7C21.6,42.5,22,35.5,22,35.5c0.2-6.5,10.5-6.7,10.5-6.7s12-0.8,12.1,6.1
					C44.6,35,45,41.1,33.3,41.7z"/>
				<path class="st6" d="M33.3,42.2C21.4,42.7,22,36,22,36c0.2-6.5,10.4-6.5,10.4-6.5s12-1,12.1,6C44.5,35.4,45.1,41.6,33.3,42.2z"
					/>
			</g>
			
				<linearGradient id="SVGID_5_" gradientUnits="userSpaceOnUse" x1="24.8572" y1="76.7673" x2="41.4798" y2="76.7673" gradientTransform="matrix(0.9998 1.870000e-02 -1.870000e-02 0.9998 1.2398 -32.7837)">
				<stop  offset="0" style="stop-color:#FFFFFF;stop-opacity:0.95"/>
				<stop  offset="1" style="stop-color:#FFFFFF;stop-opacity:0"/>
			</linearGradient>
			<path class="st7" d="M41.1,44.1c-6.1,4.2-14.5,2-15.6,1.3c-1.2-0.7-0.6-1.8,0.5-1.5c0,0,7.5,2.4,15.1-1.1"/>
			<g>
				<path class="st0" d="M33.3,33.5c-1.8,0.2-3.2,1.8-3,3.6c0,0,0,0.3,0.4,0.3c0.4,0,2.8-0.6,5.9-0.5c0.3,0,0.3-0.3,0.3-0.3
					C36.7,34.7,35.1,33.4,33.3,33.5z"/>
			</g>
			<g class="st8">
				
					<radialGradient id="SVGID_6_" cx="33.695" cy="65.6054" r="3.2222" gradientTransform="matrix(0.9998 1.870000e-02 -1.870000e-02 0.9998 1.2398 -32.7837)" gradientUnits="userSpaceOnUse">
					<stop  offset="0" style="stop-color:#BAE3F9"/>
					<stop  offset="1" style="stop-color:#1B95D4;stop-opacity:0"/>
				</radialGradient>
				<path class="st9" d="M33.3,33.7c-1.5,0.1-2.5,1.4-2.4,2.8c0,0,0,0.2,0.4,0.2c0.3,0,2.2-0.5,4.7-0.4c0.3,0,0.2-0.3,0.2-0.3
					C36,34.7,34.8,33.6,33.3,33.7z"/>
			</g>
		</g>
	</g>
</g>
</svg>
