<svg width="128px" height="32px" viewBox="0 0 128 32" version="1.1" xmlns="http://www.w3.org/2000/svg" xmlns:xlink="http://www.w3.org/1999/xlink">
    <!-- Generator: Sketch 42 (36781) - http://www.bohemiancoding.com/sketch -->
    <title>logo</title>
    <desc>Created with Sketch.</desc>
    <defs>
        <polygon id="path-1" points="0 32 127.946286 32 127.946286 0.971428571 0 0.971428571"></polygon>
    </defs>
    <g id="Page-1" stroke="none" stroke-width="1" fill="none" fill-rule="evenodd">
        <g id="导航" transform="translate(-110.000000, -1315.000000)">
            <g id="logo" transform="translate(110.000000, 1314.000000)">
                <polygon id="Fill-1" fill="#0079F2" points="77.7714286 27.6874286 79.5897143 27.6874286 79.5897143 23.0188571 77.7714286 23.0188571"></polygon>
                <polygon id="Fill-2" fill="#0079F2" points="77.7222857 22.2817143 79.6388571 22.2817143 79.6388571 21.004 77.7222857 21.004"></polygon>
                <polygon id="Fill-3" fill="#0079F2" points="74.8228571 27.6874286 76.5908571 27.6874286 76.5908571 21.004 74.8228571 21.004"></polygon>
                <g id="Group-24" transform="translate(0.000000, 0.172000)">
                    <path d="M121.6088,27.5150857 L121.6088,22.8465143 L122.295657,22.8465143 L122.295657,23.5345143 C122.398514,23.3699429 122.638514,23.0910857 122.885371,22.9448 C123.129943,22.7973714 123.387086,22.7356571 123.731086,22.7356571 C124.073943,22.7356571 124.358514,22.7973714 124.604229,22.9448 C124.811086,23.0636571 124.949371,23.2888 125.047657,23.5345143 C125.4408,22.9939429 125.929943,22.7482286 126.521943,22.7482286 C126.965371,22.7482286 127.307086,22.8465143 127.603086,23.1413714 C127.8488,23.3870857 127.945943,23.7802286 127.945943,24.3208 L127.945943,27.5150857 L127.1608,27.5150857 L127.1608,24.5665143 C127.1608,24.2716571 127.151657,24.0545143 127.102514,23.9059429 C127.057943,23.7573714 126.913943,23.5962286 126.804229,23.5470857 C126.675086,23.4853714 126.521943,23.4362286 126.325371,23.4362286 C125.981371,23.4362286 125.6808,23.4956571 125.463657,23.7310857 C125.265943,23.9768 125.195086,24.1539429 125.195086,24.8122286 L125.195086,27.5150857 L124.407657,27.5150857 L124.407657,24.4670857 C124.407657,24.0110857 124.3368,23.8465143 124.211086,23.6819429 C124.073943,23.5173714 123.869371,23.4362286 123.573371,23.4362286 C123.326514,23.4362286 123.095657,23.4819429 122.925371,23.6053714 C122.779086,23.7025143 122.604229,23.9139429 122.517371,24.1322286 C122.4168,24.3299429 122.393943,24.5333714 122.393943,25.1070857 L122.393943,27.5150857 L121.6088,27.5150857 L121.6088,27.5150857 Z" id="Fill-4" fill="#0079F2"></path>
                    <path d="M114.776229,26.9257143 C114.5808,27.1211429 114.040229,27.6628571 113.056229,27.6628571 C111.779657,27.6628571 110.501943,26.6308571 110.501943,25.1565714 C110.501943,23.6331429 111.730514,22.6 113.056229,22.6 C113.9888,22.6 114.5808,23.1417143 114.776229,23.3382857 C114.677943,23.5337143 114.531657,23.9771429 114.431086,24.1245714 C113.9888,23.5337143 113.399086,23.3874286 113.056229,23.3874286 C112.074514,23.3874286 111.285943,24.2228571 111.285943,25.1565714 C111.285943,26.0902857 112.074514,26.8754286 113.056229,26.8754286 C113.546514,26.8754286 114.088229,26.6308571 114.431086,26.0902857 C114.5808,26.5314286 114.725943,26.7782857 114.776229,26.9257143" id="Fill-6" fill="#0079F2"></path>
                    <mask id="mask-2" fill="white">
                        <use xlink:href="#path-1"></use>
                    </mask>
                    <g id="Clip-9"></g>
                    <polygon id="Fill-8" fill="#0079F2" mask="url(#mask-2)" points="108.798857 27.5451429 109.548571 27.5451429 109.548571 26.7965714 108.798857 26.7965714"></polygon>
                    <path d="M68.7293714,24.8616 L70.0070857,22.3061714 L71.1373714,24.8616 L68.7293714,24.8616 Z M71.2356571,20.8318857 L68.9762286,20.8318857 L65.4848,27.5153143 L67.5008,27.5153143 L68.0916571,26.1884571 L71.7762286,26.1884571 L72.3659429,27.5153143 L74.5270857,27.5153143 L71.2356571,20.8318857 Z" id="Fill-10" fill="#0079F2" mask="url(#mask-2)"></path>
                    <path d="M84.7996571,26.188 C84.6019429,26.4337143 84.2579429,26.532 83.8659429,26.532 C83.4225143,26.532 83.1276571,26.4337143 82.8830857,26.188 C82.6853714,25.9422857 82.5379429,25.5982857 82.5379429,25.1571429 C82.5379429,24.6645714 82.6853714,24.2714286 82.8830857,24.0257143 C83.1036571,23.756 83.4213714,23.6451429 83.8648,23.6451429 C84.2568,23.6451429 84.6019429,23.7811429 84.7996571,24.0257143 C85.0465143,24.3205714 85.1436571,24.6154286 85.1436571,25.0588571 C85.1436571,25.5491429 85.0465143,25.8931429 84.7996571,26.188 M86.3722286,23.3868571 C85.8910857,22.9034286 85.4190857,22.7057143 84.6533714,22.7022857 C84.3585143,22.7011429 84.0030857,22.7628571 83.8019429,22.8222857 C83.3482286,22.956 82.8830857,23.2394286 82.5893714,23.5342857 L82.5893714,20.8314286 L80.7699429,20.8314286 L80.7699429,26.484 L80.7699429,26.9742857 C80.7699429,27.1217143 80.7699429,27.3182857 80.7219429,27.5148571 L82.5379429,27.5148571 C82.5619429,27.4257143 82.5836571,27.3125714 82.5893714,27.1708571 L82.5893714,26.6805714 C82.7996571,26.9708571 83.1173714,27.2554286 83.5893714,27.4737143 C83.8750857,27.596 84.3539429,27.6634286 84.6019429,27.6634286 C85.3390857,27.6634286 85.9299429,27.4165714 86.3722286,26.9742857 C86.7642286,26.532 86.9619429,25.9422857 86.9619429,25.1571429 C86.9619429,24.4188571 86.8282286,23.9171429 86.3722286,23.3868571" id="Fill-11" fill="#0079F2" mask="url(#mask-2)"></path>
                    <path d="M98.5597714,26.188 C98.3620571,26.4337143 98.0180571,26.532 97.6260571,26.532 C97.1837714,26.532 96.8900571,26.4337143 96.6432,26.188 C96.4454857,25.9422857 96.2992,25.5982857 96.2992,25.1571429 C96.2992,24.6645714 96.4454857,24.2714286 96.6432,24.0257143 C96.8660571,23.756 97.1826286,23.6451429 97.6249143,23.6451429 C98.0169143,23.6451429 98.3620571,23.7811429 98.5597714,24.0257143 C98.8066286,24.3205714 98.9037714,24.6154286 98.9037714,25.0588571 C98.9037714,25.5491429 98.8066286,25.8931429 98.5597714,26.188 M100.132343,23.3868571 C99.6512,22.9034286 99.1780571,22.7057143 98.4157714,22.7022857 C98.1197714,22.7011429 97.7620571,22.7628571 97.5620571,22.8222857 C97.1094857,22.956 96.6432,23.2394286 96.3483429,23.5342857 L96.3483429,20.8314286 L94.5289143,20.8314286 L94.5289143,26.484 L94.5289143,26.9742857 C94.5289143,27.1217143 94.5289143,27.3182857 94.4809143,27.5148571 L96.2992,27.5148571 C96.3232,27.4257143 96.3437714,27.3125714 96.3483429,27.1708571 L96.3483429,26.6805714 C96.5597714,26.9708571 96.8786286,27.2554286 97.3506286,27.4737143 C97.6363429,27.596 98.1174857,27.6634286 98.3620571,27.6634286 C99.1014857,27.6634286 99.6900571,27.4165714 100.132343,26.9742857 C100.524343,26.532 100.722057,25.9422857 100.722057,25.1571429 C100.722057,24.4188571 100.588343,23.9171429 100.132343,23.3868571" id="Fill-12" fill="#0079F2" mask="url(#mask-2)"></path>
                    <path d="M91.5820571,25.5490286 C91.5820571,25.8930286 91.4826286,26.1878857 91.2860571,26.3353143 C91.0894857,26.4838857 90.9157714,26.5787429 90.6197714,26.6267429 C90.5489143,26.6438857 90.4232,26.6541714 90.2997714,26.6541714 C90.0529143,26.6541714 89.8414857,26.6176 89.6883429,26.5181714 C89.5580571,26.4256 89.4677714,26.2873143 89.4677714,26.0907429 C89.4677714,25.8450286 89.6174857,25.6587429 89.9009143,25.5776 C90.0494857,25.5330286 90.2552,25.4896 90.5237714,25.4667429 C90.7786286,25.4461714 91.0894857,25.4518857 91.4826286,25.4518857 L91.5820571,25.4518857 L91.5820571,25.5490286 Z M93.3500571,27.2690286 L93.3500571,26.9261714 L93.3500571,24.5181714 C93.3500571,23.9273143 93.1054857,23.4861714 92.7100571,23.1901714 C92.3169143,22.8953143 91.6289143,22.7490286 90.7454857,22.7490286 L90.5489143,22.7490286 C89.7146286,22.7490286 89.0643429,22.8598857 88.6814857,23.0918857 C88.2392,23.3387429 87.9923429,23.7318857 87.8952,24.2221714 L89.7146286,24.2221714 C89.7637714,24.0256 90.0632,23.6793143 90.5489143,23.6816 C90.5980571,23.6827429 90.6472,23.6816 90.7454857,23.6816 C91.0403429,23.6816 91.2289143,23.7513143 91.3832,23.8781714 C91.5237714,23.9970286 91.5820571,24.2221714 91.5820571,24.4678857 L91.5820571,24.5181714 L91.5820571,24.5661714 L90.7454857,24.5661714 L90.5489143,24.5661714 C89.9100571,24.5661714 89.4186286,24.6153143 89.1260571,24.6644571 C88.7786286,24.7147429 88.5466286,24.7970286 88.3363429,24.9113143 C88.0906286,25.0587429 87.9317714,25.2438857 87.7969143,25.4518857 C87.6494857,25.6964571 87.6014857,25.9421714 87.6014857,26.2370286 C87.6014857,26.6804571 87.7477714,27.0244571 88.0906286,27.2690286 C88.4346286,27.5147429 88.8780571,27.6633143 89.4677714,27.6633143 C89.8597714,27.6633143 90.2049143,27.6141714 90.5489143,27.5147429 C90.9523429,27.3970286 91.4826286,27.1216 91.6289143,26.8278857 L91.6289143,26.9261714 C91.6289143,27.2278857 91.7283429,27.4667429 91.7786286,27.5147429 L93.4483429,27.5147429 C93.3980571,27.4667429 93.3500571,27.3673143 93.3500571,27.2690286 L93.3500571,27.2690286 Z" id="Fill-13" fill="#0079F2" mask="url(#mask-2)"></path>
                    <path d="M105.363314,25.5490286 C105.363314,25.8930286 105.266171,26.1878857 105.068457,26.3353143 C104.871886,26.4838857 104.698171,26.5787429 104.403314,26.6267429 C104.332457,26.6438857 104.206743,26.6541714 104.082171,26.6541714 C103.834171,26.6541714 103.623886,26.6176 103.471886,26.5181714 C103.339314,26.4256 103.250171,26.2873143 103.250171,26.0907429 C103.250171,25.8450286 103.401029,25.6587429 103.683314,25.5776 C103.833029,25.5330286 104.038743,25.4896 104.307314,25.4667429 C104.562171,25.4461714 104.871886,25.4518857 105.266171,25.4518857 L105.363314,25.4518857 L105.363314,25.5490286 Z M107.1336,27.2690286 L107.1336,26.9261714 L107.1336,24.5181714 C107.1336,23.9273143 106.886743,23.4861714 106.494743,23.1901714 C106.099314,22.8953143 105.411314,22.7490286 104.527886,22.7490286 L104.332457,22.7490286 C103.495886,22.7490286 102.914171,22.8576 102.465029,23.0918857 C102.020457,23.3387429 101.778171,23.7318857 101.6776,24.2221714 L103.495886,24.2221714 C103.546171,24.0256 103.846743,23.6793143 104.332457,23.6816 C104.380457,23.6827429 104.430743,23.6816 104.527886,23.6816 C104.822743,23.6816 105.0136,23.7513143 105.166743,23.8781714 C105.308457,23.9970286 105.363314,24.2221714 105.363314,24.4678857 L105.363314,24.5181714 L105.363314,24.5661714 L104.527886,24.5661714 L104.332457,24.5661714 C103.6936,24.5661714 103.202171,24.6153143 102.907314,24.6644571 C102.563314,24.7147429 102.330171,24.7970286 102.119886,24.9113143 C101.875314,25.0587429 101.714171,25.2438857 101.579314,25.4518857 C101.431886,25.6964571 101.383886,25.9421714 101.383886,26.2370286 C101.383886,26.6804571 101.531314,27.0244571 101.875314,27.2690286 C102.219314,27.5147429 102.660457,27.6633143 103.250171,27.6633143 C103.643314,27.6633143 103.988457,27.6141714 104.332457,27.5147429 C104.734743,27.3970286 105.266171,27.1216 105.411314,26.8278857 L105.411314,26.9261714 C105.411314,27.2278857 105.510743,27.4667429 105.559886,27.5147429 L107.230743,27.5147429 C107.1816,27.4667429 107.1336,27.3673143 107.1336,27.2690286 L107.1336,27.2690286 Z" id="Fill-14" fill="#0079F2" mask="url(#mask-2)"></path>
                    <path d="M117.9704,26.8755429 C116.989829,26.8755429 116.249257,26.0904 116.249257,25.1566857 C116.249257,24.1726857 116.989829,23.3875429 117.9704,23.3875429 C118.904114,23.3875429 119.6904,24.1726857 119.6904,25.1566857 C119.6904,26.0904 118.904114,26.8755429 117.9704,26.8755429 M117.9704,22.6001143 C116.5944,22.6001143 115.4664,23.7315429 115.4664,25.1566857 C115.4664,26.5315429 116.5944,27.6629714 117.9704,27.6629714 C119.3464,27.6629714 120.475543,26.5315429 120.475543,25.1566857 C120.475543,23.7315429 119.3464,22.6001143 117.9704,22.6001143" id="Fill-15" fill="#0079F2" mask="url(#mask-2)"></path>
                    <path d="M64.3364571,2.3984 L64.3364571,4.40297143 L71.2701714,4.40297143 L71.2701714,16.6132571 L71.2701714,18.7858286 C72.0450286,18.7858286 73.7227429,18.0349714 73.7227429,16.4772571 L73.7227429,4.40297143 C74.2221714,4.40297143 74.6336,2.94468571 74.6336,2.3984 L64.3364571,2.3984 Z M67.2084571,13.8338286 L68.4370286,13.8338286 L68.4370286,7.59268571 L67.2084571,7.59268571 L67.2084571,13.8338286 Z M70.7147429,13.0144 L70.7147429,5.67954286 L64.9307429,5.67954286 L64.9307429,15.7024 L67.7981714,15.7024 C68.2553143,15.6578286 68.8016,15.4749714 69.2576,15.1561143 C69.5318857,14.9732571 69.7581714,14.7915429 69.9867429,14.5641143 C70.3958857,14.1081143 70.7147429,13.5606857 70.7147429,13.0144 L70.7147429,13.0144 Z M61.6027429,7.82011429 C61.6027429,8.09325714 61.3753143,8.54925714 61.1021714,8.82354286 C61.0576,8.86925714 60.9204571,9.00525714 60.9204571,9.00525714 C60.8976,9.02468571 60.8747429,9.05097143 60.8290286,9.05097143 L61.6027429,9.05097143 L61.6027429,13.7892571 L60.6473143,13.7892571 L60.6473143,4.40297143 L61.6027429,4.40297143 L61.6027429,7.82011429 Z M58.2324571,2.3984 L58.2324571,18.7858286 C59.3707429,18.7858286 60.6438857,17.7526857 60.6438857,16.6132571 L60.6438857,15.7538286 L62.0061714,15.7538286 C62.9193143,15.7081143 63.9730286,14.4269714 63.9730286,13.7892571 L63.9730286,10.1446857 C63.9730286,9.46125714 63.1981714,8.96068571 62.8336,8.6864 C63.1981714,8.36754286 63.9730286,7.82011429 63.9730286,7.13668571 L63.9730286,2.3984 L58.2324571,2.3984 Z" id="Fill-16" fill="#0079F2" mask="url(#mask-2)"></path>
                    <path d="M82.5586286,6.38114286 L79.0877714,6.38114286 L79.0877714,4.25085714 L80.8009143,4.25085714 L82.5586286,4.25085714 L82.5586286,6.38114286 Z M79.0877714,10.364 L82.5586286,10.364 L82.5586286,8.23257143 L79.0877714,8.23257143 L79.0877714,10.364 Z M85.4797714,8.23371429 L86.7277714,8.23371429 C86.9152,8.23371429 87.0992,8.188 87.2843429,8.04857143 C87.5152,7.90914286 88.6272,6.52057143 88.7666286,6.38114286 L85.4797714,6.38114286 L85.4797714,4.25085714 L89.0432,4.25085714 L89.0432,10.364 L85.4797714,10.364 L85.4797714,8.23371429 Z M85.4797714,16.8931429 L85.4797714,15.3651429 L90.3414857,15.3651429 C91.0420571,15.3651429 91.6843429,14.1617143 92.0546286,13.5137143 L85.4797714,13.5137143 L85.4797714,12.2165714 L89.1357714,12.2165714 C90.1757714,12.2165714 91.8694857,10.7811429 91.9152,10.0394286 L91.9152,2.39828571 L76.2614857,2.39828571 L76.2614857,12.2165714 L82.5586286,12.2165714 L82.5586286,13.5137143 L76.2614857,13.5137143 L76.2614857,15.3651429 L82.5586286,15.3651429 L82.5586286,16.8931429 L76.0786286,16.8931429 L76.0786286,18.7925714 L90.7574857,18.7925714 C91.3609143,18.7925714 91.9152,17.5891429 92.3792,16.8931429 L85.4797714,16.8931429 Z" id="Fill-17" fill="#0079F2" mask="url(#mask-2)"></path>
                    <path d="M97.0605714,9.944 L100.529143,9.944 L100.529143,4.50742857 L97.0605714,4.50742857 L97.0605714,9.944 Z M103.386286,9.944 L106.690286,9.944 L106.690286,4.50742857 L103.386286,4.50742857 L103.386286,9.944 Z M97.0365714,16.6685714 L97.0365714,12.0514286 L107.043429,12.0514286 C107.949714,12.0514286 109.573714,10.5531429 109.619429,9.80342857 L109.619429,2.39885714 L94.0857143,2.39885714 L94.0857143,16.5051429 C94.0857143,17.6297143 94.7645714,18.8 96.0285714,18.8 L107.885714,18.8 C108.779429,18.8 109.854857,17.3714286 110.042286,16.6685714 L97.0365714,16.6685714 Z" id="Fill-18" fill="#0079F2" mask="url(#mask-2)"></path>
                    <path d="M114.964571,9.944 L118.430857,9.944 L118.430857,4.50742857 L114.964571,4.50742857 L114.964571,9.944 Z M121.291429,9.944 L124.595429,9.944 L124.595429,4.50742857 L121.291429,4.50742857 L121.291429,9.944 Z M114.941714,16.6685714 L114.941714,12.0514286 L124.946286,12.0514286 C125.853714,12.0514286 127.476571,10.5531429 127.522286,9.80342857 L127.522286,2.39885714 L111.989714,2.39885714 L111.989714,16.5051429 C111.989714,17.6297143 112.668571,18.8 113.934857,18.8 L125.790857,18.8 C126.681143,18.8 127.758857,17.3714286 127.946286,16.6685714 L114.941714,16.6685714 Z" id="Fill-19" fill="#0079F2" mask="url(#mask-2)"></path>
                    <path d="M7.00285714,28.3298286 C6.748,28.3012571 6.35485714,28.0761143 6.07142857,27.8486857 C3.39028571,25.2246857 6.83485714,22.2029714 10.8154286,20.4521143 L10.8154286,15.4555429 C11.7457143,16.0486857 12.2554286,16.0761143 12.2828571,16.1606857 L15.332,13.1401143 L14.316,10.5424 C23.2371429,7.46697143 26.8234286,6.27954286 34.0794286,5.06697143 L32.78,3.85211429 L34.8977143,2.6384 C39.7822857,4.24754286 44.3834286,4.6704 43.5937143,8.76411429 C43.7891429,5.9984 40.3457143,4.92525714 35.0942857,3.45668571 L34.0794286,4.07725714 L36.0268571,5.68754286 C27.3308571,7.18354286 21.9948571,8.87725714 15.6428571,11.0795429 L16.5182857,13.3378286 L13.3274286,16.4715429 C13.8645714,16.6132571 19.4257143,18.4761143 25.2142857,14.4395429 C25.2142857,14.4395429 25.3262857,14.3549714 25.3262857,14.3252571 C25.1582857,14.0429714 24.7617143,13.7332571 24.2817143,13.3092571 C25.9765714,13.4224 27.076,14.9195429 26.8782857,16.4715429 L26.0897143,16.4715429 C26.1445714,15.9641143 26.0314286,15.4269714 25.8634286,15.0601143 C21.3742857,18.3344 16.1777143,18.8155429 11.7457143,17.2624 L11.7457143,21.1309714 C9.59942857,21.8921143 5.76171429,24.2635429 5.78914286,26.5515429 C5.93085714,27.6521143 6.49542857,28.0475429 7.00285714,28.3298286" id="Fill-20" fill="#231815" mask="url(#mask-2)"></path>
                    <path d="M25.1579429,27.3414857 C20.3579429,29.7700571 15.7556571,31.7174857 8.6688,31.9997714 C-0.5632,31.8020571 -2.0032,25.6752 2.37394286,19.2672 C6.49508571,12.8009143 13.0459429,6.95748571 23.4642286,3.3152 C26.4836571,2.2432 30.9168,1.02948571 35.2082286,0.972342857 C41.3636571,0.9152 47.3488,2.8352 46.9533714,8.73691429 C46.7259429,13.2534857 40.2059429,19.6340571 36.7602286,24.2077714 C35.2928,26.2112 35.0390857,27.5106286 37.5510857,27.3974857 C46.6710857,26.8054857 54.9430857,23.6432 62.6208,20.3677714 C57.4265143,23.8969143 30.5773714,37.1940571 30.4653714,28.1323429 C30.4928,26.9734857 31.0310857,25.7609143 31.9042286,24.4626286 C32.7522286,23.1643429 33.9373714,21.8089143 35.1510857,20.4249143 C36.9865143,18.3346286 41.5328,13.3380571 43.0562286,10.3449143 C45.6253714,4.67062857 39.8665143,4.3872 34.8985143,2.63748571 L32.7796571,3.85234286 L34.0802286,5.06605714 C26.8230857,6.27977143 23.2368,7.46605714 14.3168,10.5426286 L15.3316571,13.1403429 L12.2825143,16.1609143 C12.1979429,16.0763429 11.7465143,16.0489143 10.8150857,15.4557714 L10.8150857,20.4523429 C6.83451429,22.2032 3.38994286,25.2249143 6.07108571,27.8489143 C6.35451429,28.0763429 6.7488,28.3014857 7.00251429,28.3300571 C11.8882286,31.0980571 25.1842286,27.3414857 25.1579429,27.3414857" id="Fill-21" fill="#0079F2" mask="url(#mask-2)"></path>
                    <path d="M57.7673143,29.3302857 L58.3318857,29.3302857 C58.4530286,29.3302857 58.5444571,29.3188571 58.6130286,29.296 C58.6816,29.2708571 58.7341714,29.2274286 58.7673143,29.1771429 C58.8016,29.12 58.8221714,29.0651429 58.8221714,29.0011429 C58.8221714,28.9062857 58.7856,28.8297143 58.7181714,28.7691429 C58.6518857,28.7097143 58.5444571,28.6788571 58.3993143,28.6788571 L57.7673143,28.6788571 L57.7673143,29.3302857 Z M57.5033143,30.4537143 L57.5033143,28.456 L58.3867429,28.456 C58.5616,28.456 58.6987429,28.4731429 58.7890286,28.5074286 C58.8838857,28.5462857 58.9536,28.6068571 59.0096,28.7005714 C59.0667429,28.7908571 59.0930286,28.8891429 59.0930286,29.0011429 C59.0930286,29.1417143 59.0461714,29.2628571 58.9547429,29.3611429 C58.8633143,29.4548571 58.7238857,29.5154286 58.5341714,29.5451429 C58.6038857,29.5794286 58.6541714,29.6102857 58.6930286,29.6445714 C58.7673143,29.7165714 58.8416,29.8034286 58.9078857,29.9097143 L59.2564571,30.4537143 L58.9238857,30.4537143 L58.6656,30.0422857 C58.5867429,29.9177143 58.5204571,29.8285714 58.4713143,29.7634286 C58.4221714,29.6994286 58.3776,29.6571429 58.3387429,29.6308571 C58.2987429,29.6057143 58.2610286,29.584 58.2187429,29.5748571 C58.1878857,29.5714286 58.1421714,29.5668571 58.0736,29.5668571 L57.7673143,29.5668571 L57.7673143,30.4537143 L57.5033143,30.4537143 Z" id="Fill-22" fill="#0079F2" mask="url(#mask-2)"></path>
                    <path d="M58.312,31.2460571 C59.2994286,31.2460571 60.1028571,30.4426286 60.1028571,29.4552 C60.1028571,28.4677714 59.2994286,27.6643429 58.312,27.6643429 C57.3268571,27.6643429 56.5222857,28.4677714 56.5222857,29.4552 C56.5222857,30.4426286 57.3268571,31.2460571 58.312,31.2460571 M56.8011429,29.4552 C56.8011429,28.6220571 57.48,27.9443429 58.312,27.9443429 C59.1451429,27.9443429 59.824,28.6220571 59.824,29.4552 C59.824,30.2894857 59.1451429,30.9660571 58.312,30.9660571 C57.48,30.9660571 56.8011429,30.2894857 56.8011429,29.4552" id="Fill-23" fill="#0079F2" mask="url(#mask-2)"></path>
                </g>
            </g>
        </g>
    </g>
</svg>