<svg width="127px" height="31px" viewBox="0 0 127 31" version="1.1" xmlns="http://www.w3.org/2000/svg" xmlns:xlink="http://www.w3.org/1999/xlink">
    <!-- Generator: Sketch 42 (36781) - http://www.bohemiancoding.com/sketch -->
    <title>logo</title>
    <desc>Created with Sketch.</desc>
    <defs>
        <polygon id="path-1" points="0.233826182 0.879431492 127.506664 0.879431492 127.506664 31.8471734 0.233826182 31.8471734"></polygon>
    </defs>
    <g id="布局" stroke="none" stroke-width="1" fill="none" fill-rule="evenodd">
        <g id="导航" transform="translate(-40.000000, -1738.000000)">
            <g id="nav_02-copy-7" transform="translate(40.000000, 1721.000000)">
                <g id="logo" transform="translate(0.000000, 16.000000)">
                    <mask id="mask-2" fill="white">
                        <use xlink:href="#path-1"></use>
                    </mask>
                    <g id="Clip-3"></g>
                    <path d="M9.87915488,1.91168956 C12.9905698,6.90563466 15.1410134,9.13603387 20.7636324,7.28365909 C19.1082259,8.89604898 11.9186617,13.7635267 5.93499413,5.84071892 L9.87915488,1.91168956 Z" id="Fill-2" fill="#498EE6" mask="url(#mask-2)"></path>
                    <path d="M20.1809696,2.52892739 C16.6116886,6.54805442 13.6244651,9.60062919 7.57740513,7.56723251 C12.7721253,13.8360457 19.6559652,12.2046444 24.2562374,6.58883256 L20.1809696,2.52892739 Z" id="Fill-5" fill="#498EE6" mask="url(#mask-2)"></path>
                    <path d="M29.5512617,11.8647255 C24.8331372,15.5182268 22.7927659,17.881155 25.2544086,23.2905964 C23.4281308,21.7881421 17.581045,14.9060036 25.6460008,7.97344345 L29.5512617,11.8647255 Z" id="Fill-7" fill="#498EE6" mask="url(#mask-2)"></path>
                    <path d="M29.8252034,22.1281437 C25.4908911,19.0535267 22.1959263,16.410662 23.5695247,10.2575706 C18.0676394,15.8656676 20.069399,22.2485494 25.6900009,26.2483895 L29.8252034,22.1281437 Z" id="Fill-9" fill="#498EE6" mask="url(#mask-2)"></path>
                    <path d="M20.1802781,31.737734 C17.0677106,26.7440644 14.9187077,24.5136652 9.29580059,26.3657644 C10.9506307,24.7539256 18.1407712,19.8856213 24.1238625,27.8087046 L20.1802781,31.737734 Z" id="Fill-11" fill="#498EE6" mask="url(#mask-2)"></path>
                    <path d="M9.87745481,31.1210196 C13.4473122,27.1016171 16.4351119,24.0490423 22.4807312,26.0818879 C17.2862991,19.8133503 10.4036118,21.443925 5.80247517,27.0608389 L9.87745481,31.1210196 Z" id="Fill-13" fill="#498EE6" mask="url(#mask-2)"></path>
                    <path d="M0.507047487,21.784946 C5.22632457,18.1308936 7.26611957,15.7674144 4.80390057,10.3585241 C6.63133098,11.8609783 12.4784167,18.7431168 4.41317278,25.676228 L0.507047487,21.784946 Z" id="Fill-15" fill="#498EE6" mask="url(#mask-2)"></path>
                    <path d="M0.233826182,11.5215278 C4.56871472,14.5961448 7.86252692,17.2387339 6.48892857,23.3921009 C11.9919664,17.7834528 9.98963056,11.4000199 4.36960491,7.40128199 L0.233826182,11.5215278 Z" id="Fill-17" fill="#498EE6" mask="url(#mask-2)"></path>
                    <polygon id="Fill-19" fill="#498EE6" mask="url(#mask-2)" points="39.3618646 27.2084022 37.4130802 30.6046555 36.4826609 27.2084022 36.3026925 27.2084022 34.1701539 30.6046555 33.4231975 27.2084022 32.703615 27.2084022 33.8588493 31.8557241 34.0388177 31.8557241 36.1731035 28.4594707 37.0979898 31.8557241 37.2779583 31.8557241 40.0817383 27.2084022"></polygon>
                    <path d="M44.6002565,27.9485141 C44.1951819,27.4567646 43.6212049,27.2082865 42.8780343,27.2082865 C42.1313691,27.2082865 41.4671167,27.4567646 40.8931397,27.9519853 C40.367795,28.4041055 40.0492101,28.9349057 39.942918,29.5429395 C39.8243951,30.1969663 39.9717479,30.7477257 40.3768225,31.1908788 C40.7816059,31.6357674 41.3413135,31.8558976 42.0556542,31.8558976 C42.7627147,31.8558976 43.4016317,31.6357674 43.9630867,31.1888539 C44.5265801,30.7422297 44.8629288,30.1934951 44.9817429,29.5429395 C45.0877438,28.9279634 44.9619406,28.3988988 44.6002565,27.9485141 M43.8768882,30.3560617 C43.4429837,30.8816551 42.8780343,31.140836 42.1779629,31.140836 C41.8486032,31.140836 41.5605954,31.0728589 41.3069506,30.9334335 C41.0533058,30.7977685 40.8680955,30.6010687 40.752776,30.3453589 C40.6412421,30.0989057 40.6124122,29.8307576 40.6627918,29.5464106 C40.7420012,29.1047039 40.9813767,28.7243212 41.38616,28.4041055 C41.7874489,28.0862039 42.2429029,27.9233481 42.7484453,27.9233481 C43.2560262,27.9233481 43.651782,28.0862039 43.9450316,28.4041055 C44.2330393,28.7243212 44.3410786,29.1047039 44.2618692,29.5464106 C44.2079952,29.8359643 44.0801535,30.1078729 43.8768882,30.3560617" id="Fill-21" fill="#498EE6" mask="url(#mask-2)"></path>
                    <path d="M48.1812497,27.2084022 C47.7205538,27.2084022 47.2508304,27.5158903 46.7668376,28.1273952 L46.9307894,27.2084022 L46.2109157,27.2084022 L45.3864972,31.8557241 L46.1063709,31.8557241 L46.367296,30.377583 C46.5021267,29.624917 46.6302596,29.1210184 46.7470352,28.8705154 C47.047565,28.2396298 47.4415736,27.9234638 47.9258576,27.9234638 C48.0106,27.9234638 48.1110678,27.9518117 48.2298819,28.0038793 L48.7301825,27.2084022 L48.1812497,27.2084022 Z" id="Fill-23" fill="#498EE6" mask="url(#mask-2)"></path>
                    <polygon id="Fill-25" fill="#498EE6" mask="url(#mask-2)" points="49.9718774 29.426742 52.8205039 27.2083733 51.9745358 27.2083733 49.5723358 29.0799139 50.2217364 25.4207193 49.5021539 25.4207193 48.361189 31.8556951 49.0810627 31.8556951 49.4517744 29.7663384 51.2403927 31.8556951 52.1402349 31.8556951"></polygon>
                    <path d="M53.4197871,30.8422862 C53.3801824,30.6849264 53.2989346,30.6048002 53.1748786,30.6048002 C52.9355032,30.6048002 52.7808701,30.8084423 52.7106882,31.2105198 C52.6314788,31.6415238 52.71593,31.8558687 52.9608385,31.8558687 C53.1964283,31.8558687 53.3513525,31.6519373 53.4253202,31.239157 C53.4503643,31.0925 53.4465786,30.9620417 53.4197871,30.8422862" id="Fill-27" fill="#498EE6" mask="url(#mask-2)"></path>
                    <path d="M59.9934982,27.2084022 L59.2736244,27.2084022 L59.1149144,28.1022292 C58.7840987,27.5069231 58.2642869,27.2084022 57.549655,27.2084022 C56.9250073,27.2084022 56.3565633,27.4351855 55.8454879,27.887595 C55.3309179,28.3397153 55.0158276,28.8832431 54.9042937,29.5213604 C54.7892654,30.1667092 54.9042937,30.713419 55.2499613,31.1661177 C55.5991233,31.6269159 56.0848634,31.8557241 56.7112584,31.8557241 C57.4005549,31.8557241 58.033939,31.5592281 58.6058775,30.9621863 L58.4494972,31.8557241 L59.1693709,31.8557241 L59.9934982,27.2084022 Z M58.5089042,30.3561774 C58.32515,30.5956883 58.093346,30.7886277 57.8105801,30.9280531 C57.5260669,31.071239 57.2400976,31.1409517 56.9538372,31.1409517 C56.6661206,31.1409517 56.4139319,31.071239 56.1908642,30.9280531 C55.9660493,30.7868921 55.8041359,30.588746 55.7016296,30.3330363 C55.5991233,30.0793514 55.573788,29.810914 55.6241675,29.5268564 C55.674547,29.2445343 55.7951084,28.976097 55.9893461,28.7224121 C56.3891789,28.1913226 56.9037489,27.9234638 57.5298526,27.9234638 C57.9943343,27.9234638 58.3501942,28.0787988 58.6041302,28.3917829 C58.8542805,28.7044777 58.9390229,29.0886208 58.8595223,29.5407411 C58.8056483,29.841576 58.6888726,30.1166665 58.5089042,30.3561774 L58.5089042,30.3561774 Z" id="Fill-29" fill="#498EE6" mask="url(#mask-2)"></path>
                    <polygon id="Fill-31" fill="#498EE6" mask="url(#mask-2)" points="62.3848943 25.420835 61.6650205 25.420835 60.5240556 31.8558109 61.2439293 31.8558109"></polygon>
                    <path d="M63.9450284,25.5513511 C63.8730992,25.4654395 63.7723402,25.4208928 63.6479931,25.4208928 C63.5242284,25.4208928 63.4089088,25.4654395 63.3081498,25.5513511 C63.2056435,25.6407338 63.1444892,25.7480509 63.1229396,25.8712775 C63.0996427,25.9927685 63.1246868,26.0966145 63.1983632,26.1842616 C63.2702923,26.2736443 63.3678481,26.3147198 63.4898655,26.3147198 C63.6139214,26.3147198 63.729241,26.2736443 63.8334945,26.1857079 C63.9342536,26.1000856 63.9991936,25.9927685 64.0227817,25.8712775 C64.0443313,25.7480509 64.018996,25.6407338 63.9450284,25.5513511 L63.9450284,25.5513511 Z M63.783115,27.2085468 L63.0635325,27.2085468 L62.2394052,31.8558687 L62.9589877,31.8558687 L63.783115,27.2085468 Z" id="Fill-33" fill="#498EE6" mask="url(#mask-2)"></path>
                    <path d="M69.0236036,27.8930043 C68.6581337,27.4371236 68.1470583,27.2083154 67.4938719,27.2083154 C66.7687564,27.2083154 66.110037,27.5068363 65.5197522,28.1021424 L65.9950086,25.4209507 L65.2751349,25.4209507 L64.1341699,31.8559266 L64.8540437,31.8559266 L65.010424,30.9620996 C65.3651191,31.5591413 65.9137607,31.8559266 66.6534368,31.8559266 C67.3048759,31.8559266 67.8989465,31.6291433 68.4333188,31.1767337 C68.9676911,30.7243242 69.291809,30.1793501 69.4030516,29.5409436 C69.5166239,28.8976195 69.3887823,28.3509098 69.0236036,27.8930043 M68.3127574,30.3416274 C67.8896277,30.876188 67.3479752,31.140865 66.6877997,31.140865 C66.1944882,31.140865 65.814749,30.9872656 65.5482908,30.6745707 C65.2786294,30.3650578 65.1848594,29.982361 65.2681458,29.5230092 C65.3199814,29.2227527 65.44229,28.9511334 65.6295387,28.7119118 C65.8182435,28.4706653 66.063152,28.2806186 66.3601873,28.1377219 C66.6586786,27.9965609 66.9629941,27.923377 67.2673097,27.923377 C67.5640538,27.923377 67.8322592,27.9965609 68.0695962,28.1377219 C68.3072244,28.2806186 68.481951,28.4790539 68.5931936,28.7330281 C68.7029802,28.9904734 68.7338486,29.2586215 68.6831779,29.5409436 C68.6327983,29.82153 68.5087424,30.0896781 68.3127574,30.3416274" id="Fill-35" fill="#498EE6" mask="url(#mask-2)"></path>
                    <path d="M75.4908187,27.2084022 L74.770945,27.2084022 L74.6128174,28.1022292 C74.2817104,27.5069231 73.7613163,27.2084022 73.0469755,27.2084022 C72.4229102,27.2084022 71.8541751,27.4351855 71.3430997,27.887595 C70.8282385,28.3397153 70.5134394,28.8832431 70.4019055,29.5213604 C70.2865859,30.1667092 70.4019055,30.713419 70.747573,31.1661177 C71.0964439,31.6269159 71.5824751,31.8557241 72.2085789,31.8557241 C72.8978755,31.8557241 73.5309683,31.5592281 74.1034893,30.9621863 L73.9468177,31.8557241 L74.6666914,31.8557241 L75.4908187,27.2084022 Z M74.0062248,30.3561774 C73.8227618,30.5956883 73.5906666,30.7886277 73.3081919,30.9280531 C73.0239699,31.071239 72.7377094,31.1409517 72.4514489,31.1409517 C72.1634412,31.1409517 71.9118348,31.071239 71.688476,30.9280531 C71.463661,30.7868921 71.3017477,30.588746 71.1992414,30.3330363 C71.0964439,30.0793514 71.0713997,29.810914 71.1217792,29.5268564 C71.1721588,29.2445343 71.2927201,28.976097 71.4869579,28.7224121 C71.8864995,28.1913226 72.4013606,27.9234638 73.0274644,27.9234638 C73.491946,27.9234638 73.8480972,28.0787988 74.1014508,28.3917829 C74.3518923,28.7044777 74.4366347,29.0886208 74.3571341,29.5407411 C74.30326,29.841576 74.1861932,30.1166665 74.0062248,30.3561774 L74.0062248,30.3561774 Z" id="Fill-37" fill="#498EE6" mask="url(#mask-2)"></path>
                    <path d="M81.091215,27.8930043 C80.7257452,27.4371236 80.2146698,27.2083154 79.5614834,27.2083154 C78.8360766,27.2083154 78.1773572,27.5068363 77.5873636,28.1021424 L78.0626201,25.4209507 L77.3427463,25.4209507 L76.2017814,31.8559266 L76.9216551,31.8559266 L77.0783267,30.9620996 C77.4327305,31.5591413 77.9813722,31.8559266 78.7210483,31.8559266 C79.3724874,31.8559266 79.9665579,31.6291433 80.5009302,31.1767337 C81.0355937,30.7243242 81.3591292,30.1793501 81.4709543,29.5409436 C81.5839442,28.8976195 81.4563937,28.3509098 81.091215,27.8930043 M80.3803689,30.3416274 C79.956948,30.876188 79.4155866,31.140865 78.7554112,31.140865 C78.2620996,31.140865 77.8829428,30.9872656 77.6161935,30.6745707 C77.3465321,30.3650578 77.2527621,29.982361 77.335466,29.5230092 C77.3875928,29.2227527 77.5101927,28.9511334 77.6971502,28.7119118 C77.8861462,28.4706653 78.1307634,28.2806186 78.4277987,28.1377219 C78.7265813,27.9965609 79.0306056,27.923377 79.3349212,27.923377 C79.631374,27.923377 79.8995794,27.9965609 80.1374988,28.1377219 C80.3748358,28.2806186 80.5495625,28.4790539 80.6608051,28.7330281 C80.7705917,28.9904734 80.8011688,29.2586215 80.7510805,29.5409436 C80.7004098,29.82153 80.5757715,30.0896781 80.3803689,30.3416274" id="Fill-39" fill="#498EE6" mask="url(#mask-2)"></path>
                    <path d="M87.5587214,27.2084022 L86.8388477,27.2084022 L86.6801376,28.1022292 C86.3493219,27.5069231 85.8292189,27.2084022 85.1148782,27.2084022 C84.4902305,27.2084022 83.9217865,27.4351855 83.4107111,27.887595 C82.89585,28.3397153 82.5810508,28.8832431 82.469517,29.5213604 C82.3544886,30.1667092 82.469517,30.713419 82.8148933,31.1661177 C83.1640553,31.6269159 83.6497954,31.8557241 84.2761904,31.8557241 C84.9654869,31.8557241 85.598871,31.5592281 86.1711007,30.9621863 L86.0144292,31.8557241 L86.7345941,31.8557241 L87.5587214,27.2084022 Z M86.0738362,30.3561774 C85.890082,30.5956883 85.658278,30.7886277 85.3758033,30.9280531 C85.0912901,31.071239 84.8053209,31.1409517 84.5187692,31.1409517 C84.2313439,31.1409517 83.9791551,31.071239 83.7560874,30.9280531 C83.5312725,30.7868921 83.3690679,30.588746 83.2668528,30.3330363 C83.1640553,30.0793514 83.13872,29.810914 83.1893907,29.5268564 C83.2397702,29.2445343 83.3603316,28.976097 83.5545694,28.7224121 C83.9541109,28.1913226 84.4689721,27.9234638 85.0950759,27.9234638 C85.5592663,27.9234638 85.9154174,28.0787988 86.1690622,28.3917829 C86.4195037,28.7044777 86.503955,29.0886208 86.4244543,29.5407411 C86.3711627,29.841576 86.2540959,30.1166665 86.0738362,30.3561774 L86.0738362,30.3561774 Z" id="Fill-41" fill="#498EE6" mask="url(#mask-2)"></path>
                    <polygon id="Fill-43" fill="#498EE6" mask="url(#mask-2)" points="91.9837608 29.1745034 88.2044237 29.1745034 88.1091977 29.7107996 91.8885348 29.7107996"></polygon>
                    <path d="M93.8498995,25.5513511 C93.7779703,25.4654395 93.6769201,25.4208928 93.5528642,25.4208928 C93.4285171,25.4208928 93.3134887,25.4654395 93.2127297,25.5513511 C93.1102234,25.6407338 93.0490691,25.7480509 93.0275194,25.8712775 C93.0039313,25.9927685 93.0292667,26.0966145 93.1032343,26.1842616 C93.1751634,26.2736443 93.2721367,26.3147198 93.3944454,26.3147198 C93.5185013,26.3147198 93.6338209,26.2736443 93.7380744,26.1857079 C93.8391247,26.1000856 93.9037735,25.9927685 93.9270704,25.8712775 C93.9489112,25.7480509 93.9232846,25.6407338 93.8498995,25.5513511 L93.8498995,25.5513511 Z M93.6876949,27.2085468 L92.9681124,27.2085468 L92.1439851,31.8558687 L92.8635676,31.8558687 L93.6876949,27.2085468 Z" id="Fill-45" fill="#498EE6" mask="url(#mask-2)"></path>
                    <path d="M98.5917473,29.523067 C98.7012427,28.9101157 98.7175505,28.4507639 98.6418356,28.1554249 C98.566412,27.8592182 98.4079932,27.6266496 98.1686177,27.4603226 C97.9274949,27.2925492 97.6412344,27.2083733 97.3066329,27.2083733 C96.6246166,27.2083733 95.9985129,27.5068941 95.4242447,28.1022003 L95.5826635,27.2083733 L94.8627898,27.2083733 L94.0386625,31.8556951 L94.7585362,31.8556951 L95.0392637,30.2664765 C95.1397315,29.6911296 95.2387432,29.2980193 95.3325132,29.0885919 C95.4749154,28.7565163 95.7032249,28.4791118 96.0130734,28.2555104 C96.3220484,28.0342231 96.644419,27.9234349 96.9842623,27.9234349 C97.5818274,27.9234349 97.898665,28.2129885 97.9382697,28.7883354 C97.9490445,28.9671008 97.9111871,29.2997549 97.8229501,29.7894795 L97.4574803,31.8556951 L98.1776452,31.8556951 L98.5917473,29.523067 Z" id="Fill-47" fill="#498EE6" mask="url(#mask-2)"></path>
                    <path d="M103.617701,30.6047134 C103.140697,30.9619549 102.571962,31.1410096 101.917028,31.1410096 C101.557382,31.1410096 101.247534,31.0710076 100.986609,30.9318714 C100.723645,30.7921567 100.533193,30.5937213 100.412632,30.3400365 C100.288576,30.0843267 100.256251,29.8109719 100.306631,29.5214182 C100.387296,29.0565703 100.640941,28.6741628 101.067857,28.3666747 C101.483415,28.071625 101.953138,27.9232324 102.482269,27.9232324 C103.162538,27.9232324 103.666333,28.102287 103.99744,28.4595286 L104.501235,28.1913805 C104.400476,27.9825316 104.26186,27.8086837 104.090627,27.6695475 C103.702152,27.3620594 103.192824,27.20846 102.568758,27.20846 C102.086222,27.20846 101.627273,27.3120167 101.20094,27.5176837 C100.772277,27.7250863 100.412632,28.0091439 100.126663,28.3753526 C99.8369076,28.7421399 99.6534446,29.1390107 99.5777297,29.5679898 C99.4589156,30.2364798 99.6118014,30.78695 100.033184,31.2214251 C100.443209,31.646933 100.997384,31.8557819 101.701241,31.8557819 C102.671265,31.8557819 103.442974,31.5341199 104.022775,30.8922422 L103.617701,30.6047134 Z" id="Fill-49" fill="#498EE6" mask="url(#mask-2)"></path>
                    <path d="M105.670972,30.8422862 C105.631076,30.6849264 105.55041,30.6048002 105.426063,30.6048002 C105.186979,30.6048002 105.032055,30.8084423 104.961873,31.2105198 C104.882663,31.6415238 104.967406,31.8558687 105.212023,31.8558687 C105.447613,31.8558687 105.602537,31.6519373 105.676505,31.239157 C105.701549,31.0925 105.698054,30.9620417 105.670972,30.8422862" id="Fill-51" fill="#498EE6" mask="url(#mask-2)"></path>
                    <path d="M111.186363,30.6047134 C110.709651,30.9619549 110.140916,31.1410096 109.485691,31.1410096 C109.126045,31.1410096 108.816488,31.0710076 108.555563,30.9318714 C108.292599,30.7921567 108.102147,30.5937213 107.981586,30.3400365 C107.857239,30.0843267 107.824914,29.8109719 107.875585,29.5214182 C107.95625,29.0565703 108.209895,28.6741628 108.636519,28.3666747 C109.052078,28.071625 109.521801,27.9232324 110.050932,27.9232324 C110.731201,27.9232324 111.234996,28.102287 111.566394,28.4595286 L112.069898,28.1913805 C111.969139,27.9825316 111.830814,27.8086837 111.659581,27.6695475 C111.271106,27.3620594 110.761778,27.20846 110.13713,27.20846 C109.654884,27.20846 109.196227,27.3120167 108.769603,27.5176837 C108.341231,27.7250863 107.981586,28.0091439 107.695617,28.3753526 C107.40557,28.7421399 107.222107,29.1390107 107.146392,29.5679898 C107.02787,30.2364798 107.180755,30.78695 107.601555,31.2214251 C108.012163,31.646933 108.566338,31.8557819 109.270195,31.8557819 C110.239928,31.8557819 111.011928,31.5341199 111.591438,30.8922422 L111.186363,30.6047134 Z" id="Fill-53" fill="#498EE6" mask="url(#mask-2)"></path>
                    <path d="M117.303193,27.9485141 C116.898119,27.4567646 116.324142,27.2082865 115.580971,27.2082865 C114.834015,27.2082865 114.170054,27.4567646 113.596077,27.9519853 C113.070441,28.4041055 112.752147,28.9349057 112.645855,29.5429395 C112.527332,30.1969663 112.674394,30.7477257 113.079468,31.1908788 C113.484543,31.6357674 114.044251,31.8558976 114.758591,31.8558976 C115.465652,31.8558976 116.104569,31.6357674 116.666024,31.1888539 C117.229226,30.7422297 117.565575,30.1934951 117.68468,29.5429395 C117.790681,28.9279634 117.664586,28.3988988 117.303193,27.9485141 M116.579534,30.3560617 C116.145629,30.8816551 115.580971,31.140836 114.8809,31.140836 C114.55154,31.140836 114.263532,31.0728589 114.009888,30.9334335 C113.756243,30.7977685 113.571033,30.6010687 113.455713,30.3453589 C113.343888,30.0989057 113.315349,29.8307576 113.365729,29.5464106 C113.444938,29.1047039 113.684022,28.7243212 114.089097,28.4041055 C114.490386,28.0862039 114.945549,27.9233481 115.451382,27.9233481 C115.958963,27.9233481 116.354428,28.0862039 116.647969,28.4041055 C116.935976,28.7243212 117.043724,29.1047039 116.964806,29.5464106 C116.910641,29.8359643 116.78309,30.1078729 116.579534,30.3560617" id="Fill-55" fill="#498EE6" mask="url(#mask-2)"></path>
                    <path d="M126.086468,29.3818481 C126.187519,28.817204 126.201788,28.3916961 126.131315,28.1073492 C125.976973,27.5103074 125.552096,27.2083154 124.857266,27.2083154 C124.107107,27.2083154 123.459453,27.5658462 122.919257,28.2806186 C122.868877,28.0179665 122.793163,27.8177955 122.687162,27.6711385 C122.453319,27.3639397 122.097168,27.2083154 121.613175,27.2083154 C120.972511,27.2083154 120.380188,27.5068363 119.834749,28.1021424 L119.993459,27.2083154 L119.273586,27.2083154 L118.449167,31.8559266 L119.169332,31.8559266 L119.498692,30.007527 C119.593627,29.4622636 119.723507,29.0567149 119.88542,28.7882776 C120.038306,28.5328571 120.24361,28.3257438 120.499293,28.168384 C120.763713,28.007553 121.035121,27.923377 121.317887,27.923377 C121.549983,27.923377 121.74422,27.9789158 121.897397,28.0911504 C122.089597,28.2398323 122.188608,28.4706653 122.192394,28.786542 C122.192394,28.9349346 122.158322,29.2140748 122.084355,29.6213591 L121.688308,31.8559266 L122.408473,31.8559266 L122.712497,30.1469525 C122.822284,29.5212736 122.953329,29.0760957 123.108253,28.8082368 C123.263177,28.5438492 123.471684,28.3289257 123.732609,28.1663591 C123.993826,28.0037925 124.26902,27.923377 124.562561,27.923377 C124.792909,27.923377 124.987147,27.9768909 125.138285,28.0824724 C125.323495,28.2218979 125.426002,28.4293005 125.437359,28.7043909 C125.44231,28.851048 125.41348,29.1067577 125.348831,29.4729664 L124.92774,31.8559266 L125.647613,31.8559266 L126.086468,29.3818481 Z" id="Fill-57" fill="#498EE6" mask="url(#mask-2)"></path>
                    <path d="M123.690416,15.0213345 L125.652897,13.0123968 L124.857103,6.98588004 L122.959669,8.84158365 L123.690416,15.0213345 Z M122.845985,2.70036359 L120.390272,2.70036359 L117.081474,21.0766012 L119.536889,21.0766012 L122.845985,2.70036359 Z M97.1520054,21.0766012 L106.90414,21.0766012 L116.402946,11.5920915 L117.579778,3.58953638 L112.235693,3.58953638 L113.823104,2.10758173 L110.979191,2.10758173 L104.758151,8.33179125 L107.38096,8.33179125 L110.305139,5.66427288 L114.798825,5.66427288 L114.022127,10.8454827 L110.558468,14.0995587 L107.68233,10.7533051 L106.089249,12.332476 L108.941218,15.756384 L105.661066,18.9897127 L99.9180394,19.0018647 L102.463566,3.88592731 L93.8697645,3.88592731 L94.16815,2.10758173 L91.712437,2.10758173 L91.4140514,3.88592731 L82.8208462,3.88592731 L80.0906185,19.0018647 L76.4709034,19.0018647 L72.0013864,19.0018647 L67.811755,19.0018647 L68.1369952,17.2235191 L76.1158246,17.2235191 L76.4440487,15.4451736 L68.4622355,15.4451736 L68.8951929,13.0740461 L76.8740223,13.0740461 L78.7150611,2.70036359 L60.3016892,2.70036359 L58.4606504,13.0740461 L66.4394799,13.0740461 L66.0095063,15.4451736 L58.027693,15.4451736 L57.7027512,17.2235191 L65.6815806,17.2235191 L65.356042,19.0018647 L56.7061434,19.0018647 L56.377621,21.0766012 L72.0013864,21.0766012 L76.1456632,21.0766012 L79.7623944,21.0766012 L82.2181074,21.0766012 L84.930432,5.66427288 L91.1756414,5.66427288 L90.2058884,10.4984089 L84.5004584,15.0601617 L85.7954517,16.5124773 L91.1156659,12.4219861 L94.9916941,16.5124773 L96.7942412,15.0601617 L92.6616014,10.4984089 L93.6313544,5.66427288 L99.6617262,5.66427288 L97.1520054,21.0766012 Z M69.6527938,8.92457311 L75.1759102,8.92457311 L74.7465334,11.2957005 L69.2204331,11.2957005 L69.6527938,8.92457311 Z M61.6739644,8.92457311 L67.1970808,8.92457311 L66.7647201,11.2957005 L61.2416037,11.2957005 L61.6739644,8.92457311 Z M70.008171,4.7751001 L75.9341078,4.7751001 L75.5044327,7.14622753 L69.5755119,7.14622753 L70.008171,4.7751001 Z M62.432162,4.7751001 L67.9552784,4.7751001 L67.5226194,7.14622753 L61.9992046,7.14622753 L62.432162,4.7751001 Z M37.2540915,17.816301 L36.8993111,19.8910375 L39.3550241,19.8910375 L41.6466251,10.4065278 L39.1909121,10.4065278 L37.8690641,17.816301 L37.2540915,17.816301 Z M35.4610928,21.0766012 L38.3852711,4.47870917 L40.8705243,4.47870917 L38.262933,10.4065278 L40.3516318,10.4065278 L43.4608092,2.70036359 L36.8724564,2.70036359 L33.620054,21.0766012 L35.4610928,21.0766012 Z M44.8121973,16.9271282 L46.2238593,8.92457311 L48.0648981,8.92457311 L46.6532361,16.9271282 L44.8121973,16.9271282 Z M44.0930882,7.14622753 L42.031244,18.7054738 L48.7840073,18.7054738 L50.8458514,7.14622753 L44.0930882,7.14622753 Z M48.9657241,21.0766012 L52.6478017,21.0766012 L55.5722784,4.7751001 L56.3898548,4.7751001 L56.715095,2.99675452 L44.8512858,2.99675452 L44.5257472,4.7751001 L53.1192508,4.7751001 L50.5385143,19.0018647 L49.3118513,19.0018647 L48.9657241,21.0766012 Z" id="Fill-1" fill="#498EE6" mask="url(#mask-2)"></path>
                </g>
            </g>
        </g>
    </g>
</svg>