<svg version="1.1" id="图层_1" xmlns="http://www.w3.org/2000/svg" xmlns:xlink="http://www.w3.org/1999/xlink" x="0px" y="0px"
	 viewBox="0 0 160.4 82.7" style="enable-background:new 0 0 160.4 82.7;" xml:space="preserve">
<style type="text/css">
	.st0{fill:#FFFFFF;}
</style>
<g>
	<g>
		<path class="st0" d="M81,45c0,0.3-0.1,0.4-0.4,0.4H75l0.4,1.5h5.4c0.6,0,1-0.1,1.3-0.4c0.3-0.3,0.4-0.7,0.4-1.3v-6.6
			c0-0.6-0.1-1-0.4-1.3c-0.2-0.2-0.4-0.3-0.7-0.3v-6.3c0-0.6-0.1-1-0.4-1.3c-0.3-0.3-0.7-0.4-1.3-0.4H73v1.5h6.5
			c0.3,0,0.4,0.1,0.4,0.4v6.1h-4.4c-0.3,0-0.5-0.1-0.4-0.4l0.4-4.8H74l-0.5,5c-0.1,0.6,0.1,1,0.4,1.3c0.3,0.3,0.7,0.4,1.3,0.4h5.3
			c0.3,0,0.4,0.1,0.4,0.4v2h-8.5v1.5H81V45z M71.9,45.9c0.1,0.4,0.2,0.7,0.2,1h1.6c-0.4-1.1-0.7-3.2-0.8-4h-1.5c0,0.3,0.1,1,0.2,1.6
			c-0.5,0.2-1.5,0.3-2.3,0.3v-4h1.2c0.6,0,1-0.1,1.3-0.4c0.3-0.3,0.4-0.7,0.4-1.3v-6.7c0-0.6-0.1-1-0.4-1.3
			c-0.3-0.3-0.7-0.4-1.3-0.4h-1.2v-1.9h-1.5v1.9h-1.2c-0.6,0-1,0.1-1.3,0.4c-0.3,0.3-0.4,0.7-0.4,1.3v6.7c0,0.6,0.1,1,0.4,1.3
			c0.3,0.3,0.7,0.4,1.3,0.4h1.2v4h-3.3v1.5h3.4C68.9,46.3,71.1,46.3,71.9,45.9z M69.3,32.2h1c0.3,0,0.4,0.1,0.4,0.4V39
			c0,0.2-0.1,0.4-0.4,0.4h-1V32.2z M67.8,39.4h-1c-0.3,0-0.4-0.1-0.4-0.4v-6.4c0-0.2,0.1-0.4,0.4-0.4h1V39.4z M109,30.9
			c0.3-0.4,0.5-0.5,1.2-0.5h4.8c0.7,0,1,0.1,1.2,0.5c0.7,1.1,2.2,3.5,2.9,4.5h2.1c-0.7-1.1-2.6-4.1-3.4-5.1
			c-0.6-0.9-1.3-1.3-2.4-1.3h-0.4c0,0,0-0.1,0-0.1l-0.3-0.8c1.1-0.4,1.7-1.2,1.5-2c-0.2-0.8-1.4-1.2-2.6-0.9
			c-0.9,0.2-1.5,0.8-1.7,1.4c-0.2-0.3-0.5-0.5-0.8-0.5c0-0.1,0.1-0.3,0.1-0.5c0-0.7-0.5-1.3-1.2-1.4l0-1.2c0-0.2-0.2-0.3-0.3-0.3h0
			c-0.2,0-0.3,0.2-0.3,0.3l0,1.2c-0.2,0-0.4,0.1-0.5,0.2l-0.8-0.9c-0.1-0.1-0.2-0.1-0.2-0.1c-0.1,0-0.1,0-0.2,0.1l0,0
			c-0.1,0.1-0.1,0.1-0.1,0.2c0,0.1,0,0.2,0.1,0.2l0.8,0.9c-0.1,0.2-0.2,0.5-0.2,0.7c0,0.8,0.7,1.5,1.5,1.5c0.1,0,0.3,0,0.4-0.1
			c0,0.3,0.1,0.5,0.3,0.7l-0.6,1.1c0,0,0,0.1,0,0.1h-0.2c-1,0-1.8,0.4-2.4,1.3c-0.7,1.1-2.6,4.1-3.4,5.1h2.1
			C106.8,34.4,108.3,32,109,30.9z M114.2,28.2l0.3,0.8h-0.8l-0.1-0.7C113.8,28.3,114,28.2,114.2,28.2z M112.4,27.8
			c0.1,0.1,0.3,0.2,0.5,0.3L113,29h-0.8L112.4,27.8z M111.1,28.1C111.2,28.1,111.2,28.1,111.1,28.1c0.3,0,0.4,0,0.5-0.1l-0.1,1h-0.9
			L111.1,28.1z M96.8,41.7c-1.5,2.2-3.4,5.2-3.4,5.2h2c0,0,1.2-1.7,2.5-3.6c1.3,1.9,2.4,3.6,2.4,3.6h2c0,0-2-2.9-3.4-5.2
			c0.1-0.2,0.2-0.3,0.3-0.5c1.3-1.9,2.4-2.7,3.2-11.6h-1.6c-0.8,7.2-1.4,7.9-2.7,10c-0.1,0.1-0.2,0.3-0.3,0.5
			c-0.1-0.2-0.2-0.3-0.3-0.5c-1.3-2.1-1.9-2.8-2.7-10h-1.6c0.9,8.9,2,9.6,3.2,11.6C96.6,41.3,96.7,41.5,96.8,41.7z M124.9,42.9v-2
			h3.5v4c0,0.3-0.1,0.4-0.4,0.4h-1.9v1.5h2c0.6,0,1-0.1,1.3-0.4c0.3-0.3,0.4-0.7,0.4-1.3V30.6c0-0.6-0.1-1-0.4-1.3
			c-0.3-0.3-0.7-0.4-1.3-0.4h-3c-0.6,0-1,0.1-1.3,0.4c-0.3,0.3-0.4,0.7-0.4,1.3v12.4c0,2.9-0.5,3.8-0.6,3.9h1.5
			C124.4,46.8,124.9,46.5,124.9,42.9z M124.9,30.7c0-0.2,0.1-0.4,0.4-0.4h2.6c0.3,0,0.4,0.1,0.4,0.4v3.2h-3.5V30.7z M124.9,35.3h3.5
			v4.2h-3.5V35.3z M121.4,45.4h-3.6c0.1-0.2,0.2-0.5,0.2-0.8c0.1-0.5,0.3-2.2,0.3-2.6h-1.5c-0.1,0.5-0.2,2.1-0.3,2.6
			c0,0.3-0.1,0.6-0.2,0.8h-2.8v-5.3h6.4v-1.5h-6.4v-3.2h4V34h-9.6v1.5h4v3.2h-6.4v1.5h6.4v5.3h-2.8c-0.1-0.2-0.2-0.5-0.2-0.8
			c-0.1-0.5-0.2-2.2-0.3-2.6h-1.5c0.1,0.5,0.2,2.2,0.3,2.6c0,0.3,0.1,0.6,0.2,0.8H104v1.5h17.4V45.4z M99.1,34l-0.9-5.1h-1.6
			l0.9,5.1H99.1z M123.7,54.6c-0.4,0-0.8,0.1-1.2,0.1c-1,0-1.6-0.2-1.7-0.5c-0.2-0.4-0.3-1-0.3-1.6c0-0.6,0.1-1.1,0.3-1.6
			c0.2-0.4,0.8-0.6,1.7-0.6c0.4,0,0.8,0,1.3,0.1l0.3,0l0-1l-0.2,0c-0.5,0-1-0.1-1.4-0.1c-1,0-2.3,0.1-2.8,1.3
			c-0.2,0.5-0.4,1.2-0.4,1.9c0,0.7,0.2,1.5,0.4,2c0.4,0.7,1.3,1.1,2.8,1.1c0.4,0,0.8,0,1.2,0l0.4,0l0-1L123.7,54.6z M107,49.2
			l-2.9,6.3h1.3l0.9-1.9h2.4l0.8,1.9h1.2l-2.8-6.3H107z M106.7,52.6L106.7,52.6c0.3-0.6,0.5-1.1,0.7-1.5l0-0.1l0.7,1.6H106.7z
			 M116.4,49.5c0,0.8,0,1.6,0,2.4l0,0.4c0,0.4,0,0.8,0,1.3v0.1l-3.4-4.4h-1v6.3h1.2v-0.2c0-0.8,0-1.6,0-2.3c0-0.5,0-1,0-1.6v-0.1
			l3.3,4.2h1.1v-6.3h-1.2V49.5z M125.7,55.5h1.2v-6.2h-1.2V55.5z M137.7,43c1.8-2.7,2.5-4.5,2.7-5c0.2-0.8-0.2-1.7-1.3-1.7h-6.6
			v-5.6c0-0.2,0.1-0.4,0.4-0.4h5.1c0.3,0,0.4,0.1,0.4,0.4V33c0,0.3-0.1,0.4-0.4,0.4h-3.2v1.5h3.3c0.6,0,1-0.1,1.3-0.4
			c0.3-0.3,0.4-0.7,0.4-1.3v-2.7c0-0.6-0.1-1-0.4-1.3c-0.3-0.3-0.7-0.4-1.3-0.4h-5.5c-0.6,0-1,0.1-1.3,0.4c-0.3,0.3-0.4,0.7-0.4,1.2
			c0,0,0,0,0,0v16.3h1.5v-9.2h5.9c0.2,0,0.3,0.2,0.3,0.4c-0.3,1-1,2.3-1.8,3.6c-0.7-1.1-1.3-2.2-1.7-3.2h-1.7
			c0.4,0.9,1.2,2.6,2.5,4.6c-1.2,1.7-2.4,3.2-2.9,3.8h1.9c0.7-0.9,1.3-1.7,1.9-2.4c0.6,0.8,1.3,1.6,2,2.4h1.9
			C140.3,46.4,139,44.8,137.7,43z M67.3,49.2l-2.8,6.3h1.3l0.9-1.9H69l0.8,1.9H71l-2.8-6.3H67.3z M67.1,52.6L67.1,52.6
			c0.3-0.6,0.5-1.1,0.7-1.5l0-0.1l0.7,1.6H67.1z M131,49.2l-2.8,6.3h1.3l0.9-1.9h2.4l0.8,1.9h1.2l-2.8-6.3H131z M130.8,52.6
			L130.8,52.6c0.2-0.5,0.5-1,0.7-1.5l0-0.1l0.7,1.6H130.8z M137.1,54.1v-4.8h-1.2v4.8c0,1.5,1.4,1.5,1.9,1.5h2.4v-1h-2.4
			C137.2,54.6,137.1,54.4,137.1,54.1z M101.6,49.5c0,0.3,0,0.7,0,1l0,3.2l-3.4-4.4h-1v6.3h1.2v-0.2c0-0.7,0-1.4,0-2l0-0.7
			c0-0.4,0-0.8,0-1.2v-0.1l3.3,4.2h1.1v-6.3h-1.2V49.5z M79.5,50.4h2.1v5.1h1.2v-5.1h2.1v-1h-5.4V50.4z M76.7,49.5
			c0,0.7,0,1.5,0,2.4c0,0.5,0,1.1,0,1.6v0.1l-3.4-4.4h-1v6.3h1.2l0-3.5c0-0.2,0-0.4,0-0.7v-0.1l0.1,0.1l3.2,4.1h1.1v-6.3h-1.2V49.5z
			 M89.4,51.2c0-0.3,0.1-0.5,0.2-0.7c0.1-0.1,0.4-0.2,0.6-0.2h2.4v-1h-2.4c-0.6,0-1.1,0.2-1.5,0.5c-0.4,0.3-0.6,0.8-0.6,1.4v4.4h1.2
			v-2.6h3.3v-1h-3.3V51.2z M94.3,55.5h1.2v-6.2h-1.2V55.5z M92.5,42.8h-1.5c0,0.4,0.1,1.1,0.3,1.8c-0.5,0.1-1,0.1-1.6,0.2v-4h1.2
			c0.6,0,1-0.1,1.3-0.4c0.3-0.3,0.4-0.7,0.4-1.3v-6.7c0-0.6-0.1-1-0.4-1.3c-0.3-0.3-0.7-0.4-1.3-0.4h-1.2v-1.9h-1.5v1.9h-1.2
			c-0.6,0-1,0.1-1.3,0.4c-0.3,0.3-0.4,0.7-0.4,1.3v6.7c0,0.6,0.1,1,0.4,1.3c0.3,0.3,0.7,0.4,1.3,0.4h1.2v4h-3.3v1.5h3.4
			c0.8,0,2.3,0,3.3-0.2c0.1,0.3,0.1,0.5,0.2,0.7h1.6C92.9,45.8,92.6,43.6,92.5,42.8z M89.6,32.2h1c0.3,0,0.4,0.1,0.4,0.4V39
			c0,0.2-0.1,0.4-0.4,0.4h-1V32.2z M88.1,39.4h-1c-0.3,0-0.4-0.1-0.4-0.4v-6.4c0-0.2,0.1-0.4,0.4-0.4h1V39.4z"/>
	</g>
</g>
<g>
	<g>
		<path class="st0" d="M41.8,57.7c0,0,0.9-0.9,8.2-4.4c0,0,0.4-0.2,0.6,0.1c0,0,2.3,2.6,4.9,2.4c0,0,0.4,0,0.6-0.5
			c0.4-0.9-2.1-1.9-2.1-1.9c-1.1-0.5-1-1.6-1-1.6c0.1-0.7-0.4-1.1-0.4-1.1c-0.9-0.7-3.7,1.1-3.7,1.1c-4.3,2.3-7.8,4.4-7.8,4.4
			s-1,0.5-0.6,1.2C40.6,57.5,40.9,58.2,41.8,57.7z"/>
		<path class="st0" d="M34.2,58c0,0-1-0.9-8.4-3.9c0,0-0.4-0.2-0.6,0.2c0,0-2.1,2.7-4.7,2.7c0,0-0.4,0-0.7-0.5c-0.4-0.9,1.9-2,1.9-2
			c1.1-0.6,0.9-1.6,0.9-1.6c-0.1-0.7,0.3-1.1,0.3-1.1c0.8-0.7,3.8,0.9,3.8,0.9c4.4,2,8.1,3.9,8.1,3.9s1,0.4,0.7,1.2
			C35.5,57.7,35.2,58.4,34.2,58z"/>
		<path class="st0" d="M45,68c-0.5-4.9-3.5-8.7-7.2-8.7c-3.7,0-6.7,3.8-7.2,8.7L45,68z"/>
		<ellipse class="st0" cx="37.9" cy="55.7" rx="4.3" ry="5"/>
		<path class="st0" d="M27.5,30.1c-0.2-3.4,0.2-9.6,4.8-15.8l0.6,0.9c0,0-4,5-3.7,13.5C29.2,29.5,27.6,31.8,27.5,30.1z"/>
		<ellipse transform="matrix(0.7602 -0.6496 0.6496 0.7602 -0.2006 25.6896)" class="st0" cx="34.7" cy="13.1" rx="3.2" ry="2.3"/>
		<path class="st0" d="M42.3,30.2c0,0,3.5-8.8,14.6-12.1l-0.1,1c0,0-7.4,1.9-12.4,10.8L42.3,30.2z"/>
		
			<ellipse transform="matrix(0.9978 -6.616618e-02 6.616618e-02 0.9978 -1.0864 3.9909)" class="st0" cx="59.7" cy="18.4" rx="3.2" ry="2.3"/>
		<g>
			<path class="st0" d="M36.9,33.7c-1.8,0.2-3.2,1.8-3,3.6c0,0,0,0.3,0.4,0.3c0.4,0,2.8-0.6,5.9-0.5c0.3,0,0.3-0.3,0.3-0.3
				C40.3,34.9,38.7,33.6,36.9,33.7z"/>
		</g>
	</g>
	<path class="st0" d="M52.9,37.9c-1.2-14.4-14-9.1-17.4-14.9C31.4,29.4,22,27,21.5,38c-0.4,10.3,7,14.2,16,13.7
		C47.8,51.2,53.6,45.8,52.9,37.9z M45.7,44.2c-4,2.4-10.6,3.5-16.7,1.3c-1.1-0.4-0.8-1.9,0.6-1.5c4.1,1.2,9.7,1.7,15.2-1.2
		C46.2,42.1,46.8,43.5,45.7,44.2z M36.9,42.4c-11.9,0.6-11.2-6.2-11.2-6.2c0.2-6.5,10.4-6.5,10.4-6.5s12-1,12.1,6
		C48.1,35.6,48.7,41.8,36.9,42.4z"/>
</g>
</svg>
