<svg width="128px" height="31px" viewBox="0 0 128 31" version="1.1" xmlns="http://www.w3.org/2000/svg" xmlns:xlink="http://www.w3.org/1999/xlink">
    <!-- Generator: Sketch 42 (36781) - http://www.bohemiancoding.com/sketch -->
    <title>logo</title>
    <desc>Created with Sketch.</desc>
    <defs>
        <polygon id="path-1" points="0 1.77635684e-15 127.272837 1.77635684e-15 127.272837 30.9677419 0 30.9677419"></polygon>
    </defs>
    <g id="Page-1" stroke="none" stroke-width="1" fill="none" fill-rule="evenodd">
        <g id="导航" transform="translate(-111.000000, -1253.000000)">
            <g id="logo" transform="translate(111.000000, 1253.000000)">
                <mask id="mask-2" fill="white">
                    <use xlink:href="#path-1"></use>
                </mask>
                <g id="Clip-3"></g>
                <path d="M9.94416075,0 C13.0555757,4.99394511 15.2060193,7.22434431 20.8286382,5.37196953 C19.1732318,6.98435942 11.9836676,11.8518372 6,3.92902936 L9.94416075,0 Z" id="Fill-2" fill="rgb(243, 115, 39)" mask="url(#mask-2)"></path>
                <path d="M20.6035645,1 C17.0342835,5.01912702 14.04706,8.0717018 8,6.03830512 C13.1947202,12.3071183 20.0785601,10.675717 24.6788323,5.05990517 L20.6035645,1 Z" id="Fill-5" fill="rgb(243, 115, 39)" mask="url(#mask-2)"></path>
                <path d="M30.0573274,9.89128203 C25.3392029,13.5447834 23.2988316,15.9077116 25.7604743,21.3171529 C23.9341965,19.8146987 18.0871107,12.9325602 26.1520665,6 L30.0573274,9.89128203 Z" id="Fill-7" fill="rgb(243, 115, 39)" mask="url(#mask-2)"></path>
                <path d="M30.5066544,20.8705731 C26.1723422,17.7959561 22.8773774,15.1530914 24.2509757,9 C18.7490905,14.608097 20.75085,20.9909788 26.371452,24.9908189 L30.5066544,20.8705731 Z" id="Fill-9" fill="rgb(243, 115, 39)" mask="url(#mask-2)"></path>
                <path d="M20.8844775,30.3318758 C17.77191,25.3382062 15.6229071,23.107807 10,24.9599062 C11.6548302,23.3480674 18.8449707,18.4797631 24.828062,26.4028464 L20.8844775,30.3318758 Z" id="Fill-11" fill="rgb(243, 115, 39)" mask="url(#mask-2)"></path>
                <path d="M10.0749796,29.0597833 C13.644837,25.0403808 16.6326367,21.987806 22.678256,24.0206516 C17.483824,17.752114 10.6011367,19.3826887 6,24.9996026 L10.0749796,29.0597833 Z" id="Fill-13" fill="rgb(243, 115, 39)" mask="url(#mask-2)"></path>
                <path d="M1,20.4264219 C5.71927708,16.7723695 7.75907208,14.4088903 5.29685309,9 C7.1242835,10.5024542 12.9713693,17.3845927 4.9061253,24.317704 L1,20.4264219 Z" id="Fill-15" fill="rgb(243, 115, 39)" mask="url(#mask-2)"></path>
                <path d="M0,10.1202458 C4.33488853,13.1948628 7.62870074,15.8374519 6.25510239,21.9908189 C11.7581402,16.3821708 9.75580438,9.99873795 4.13577872,6 L0,10.1202458 Z" id="Fill-17" fill="rgb(243, 115, 39)" mask="url(#mask-2)"></path>
                <polygon id="Fill-19" fill="rgb(243, 115, 39)" mask="url(#mask-2)" points="39.6582496 24 37.7094652 27.3962533 36.7790459 24 36.5990774 24 34.4665389 27.3962533 33.7195825 24 33 24 34.1552343 28.6473219 34.3352027 28.6473219 36.4694885 25.2510685 37.3943748 28.6473219 37.5743433 28.6473219 40.3781233 24"></polygon>
                <path d="M44.6970558,24.7402276 C44.2919812,24.2484781 43.7180042,24 42.9748336,24 C42.2281685,24 41.5639161,24.2484781 40.9899391,24.7436988 C40.4645943,25.195819 40.1460094,25.7266192 40.0397174,26.334653 C39.9211945,26.9886798 40.0685473,27.5394392 40.4736219,27.9825923 C40.8784052,28.4274809 41.4381129,28.6476111 42.1524536,28.6476111 C42.8595141,28.6476111 43.4984311,28.4274809 44.059886,27.9805674 C44.6233794,27.5339432 44.9597282,26.9852086 45.0785423,26.334653 C45.1845431,25.7196769 45.0587399,25.1906123 44.6970558,24.7402276 M43.9736876,27.1477752 C43.5397831,27.6733686 42.9748336,27.9325495 42.2747622,27.9325495 C41.9454025,27.9325495 41.6573948,27.8645724 41.40375,27.725147 C41.1501051,27.589482 40.9648949,27.3927822 40.8495753,27.1370724 C40.7380415,26.8906192 40.7092116,26.6224711 40.7595911,26.3381242 C40.8388005,25.8964174 41.078176,25.5160347 41.4829594,25.195819 C41.8842482,24.8779175 42.3397023,24.7150616 42.8452447,24.7150616 C43.3528256,24.7150616 43.7485814,24.8779175 44.0418309,25.195819 C44.3298387,25.5160347 44.437878,25.8964174 44.3586686,26.3381242 C44.3047945,26.6276778 44.1769529,26.8995864 43.9736876,27.1477752" id="Fill-21" fill="rgb(243, 115, 39)" mask="url(#mask-2)"></path>
                <path d="M48.7947525,24 C48.3340566,24 47.8643332,24.3074881 47.3803404,24.918993 L47.5442922,24 L46.8244185,24 L46,28.6473219 L46.7198737,28.6473219 L46.9807988,27.1691808 C47.1156296,26.4165148 47.2437624,25.9126162 47.3605381,25.6621133 C47.6610679,25.0312276 48.0550764,24.7150616 48.5393604,24.7150616 C48.6241028,24.7150616 48.7245706,24.7434095 48.8433848,24.7954771 L49.3436854,24 L48.7947525,24 Z" id="Fill-23" fill="rgb(243, 115, 39)" mask="url(#mask-2)"></path>
                <polygon id="Fill-25" fill="rgb(243, 115, 39)" mask="url(#mask-2)" points="50.6106884 26.0060227 53.4593149 23.787654 52.6133468 23.787654 50.2111468 25.6591947 50.8605474 22 50.1409649 22 49 28.4349759 49.7198737 28.4349759 50.0905854 26.3456191 51.8792037 28.4349759 52.7790459 28.4349759"></polygon>
                <path d="M53.7378966,27.2374861 C53.6982919,27.0801262 53.6170441,27 53.4929882,27 C53.2536127,27 53.0989796,27.2036421 53.0287977,27.6057197 C52.9495883,28.0367236 53.0340395,28.2510685 53.278948,28.2510685 C53.5145378,28.2510685 53.6694621,28.0471371 53.7434297,27.6343568 C53.7684738,27.4876998 53.7646881,27.3572415 53.7378966,27.2374861" id="Fill-27" fill="rgb(243, 115, 39)" mask="url(#mask-2)"></path>
                <path d="M60.132331,24 L59.4124572,24 L59.2537472,24.893827 C58.9229314,24.2985209 58.4031197,24 57.6884878,24 C57.0638401,24 56.4953961,24.2267833 55.9843207,24.6791928 C55.4697507,25.1313131 55.1546604,25.6748409 55.0431265,26.3129582 C54.9280982,26.958307 55.0431265,27.5050168 55.3887941,27.9577155 C55.7379561,28.4185137 56.2236962,28.6473219 56.8500911,28.6473219 C57.5393877,28.6473219 58.1727718,28.3508259 58.7447103,27.7537841 L58.5883299,28.6473219 L59.3082037,28.6473219 L60.132331,24 Z M58.647737,27.1477752 C58.4639828,27.3872861 58.2321788,27.5802255 57.9494129,27.7196509 C57.6648997,27.8628368 57.3789304,27.9325495 57.09267,27.9325495 C56.8049534,27.9325495 56.5527647,27.8628368 56.329697,27.7196509 C56.1048821,27.5784899 55.9429687,27.3803438 55.8404624,27.1246341 C55.7379561,26.8709492 55.7126208,26.6025118 55.7630003,26.3184542 C55.8133798,26.0361321 55.9339412,25.7676948 56.1281789,25.5140099 C56.5280117,24.9829204 57.0425817,24.7150616 57.6686854,24.7150616 C58.1331671,24.7150616 58.489027,24.8703966 58.742963,25.1833807 C58.9931133,25.4960755 59.0778557,25.8802186 58.9983551,26.3323389 C58.9444811,26.6331739 58.8277054,26.9082643 58.647737,27.1477752 L58.647737,27.1477752 Z" id="Fill-29" fill="rgb(243, 115, 39)" mask="url(#mask-2)"></path>
                <polygon id="Fill-31" fill="rgb(243, 115, 39)" mask="url(#mask-2)" points="62.8608387 22 62.1409649 22 61 28.4349759 61.7198737 28.4349759"></polygon>
                <path d="M63.7056232,22.1304582 C63.633694,22.0445467 63.532935,22 63.4085879,22 C63.2848232,22 63.1695036,22.0445467 63.0687446,22.1304582 C62.9662383,22.2198409 62.905084,22.327158 62.8835343,22.4503847 C62.8602375,22.5718757 62.8852816,22.6757216 62.958958,22.7633688 C63.0308871,22.8527515 63.1284428,22.893827 63.2504603,22.893827 C63.3745162,22.893827 63.4898358,22.8527515 63.5940893,22.7648151 C63.6948483,22.6791928 63.7597884,22.5718757 63.7833765,22.4503847 C63.8049261,22.327158 63.7795908,22.2198409 63.7056232,22.1304582 L63.7056232,22.1304582 Z M63.5437098,23.787654 L62.8241273,23.787654 L62,28.4349759 L62.7195825,28.4349759 L63.5437098,23.787654 Z" id="Fill-33" fill="rgb(243, 115, 39)" mask="url(#mask-2)"></path>
                <path d="M68.8894336,24.4720536 C68.5239638,24.0161729 68.0128884,23.7873647 67.359702,23.7873647 C66.6345864,23.7873647 65.975867,24.0858856 65.3855822,24.6811917 L65.8608387,22 L65.1409649,22 L64,28.4349759 L64.7198737,28.4349759 L64.8762541,27.5411489 C65.2309491,28.1381906 65.7795908,28.4349759 66.5192669,28.4349759 C67.170706,28.4349759 67.7647765,28.2081926 68.2991488,27.7557831 C68.8335211,27.3033735 69.157639,26.7583994 69.2688816,26.1199929 C69.382454,25.4766688 69.2546123,24.9299591 68.8894336,24.4720536 M68.1785875,26.9206767 C67.7554578,27.4552374 67.2138052,27.7199143 66.5536298,27.7199143 C66.0603182,27.7199143 65.680579,27.5663149 65.4141209,27.2536201 C65.1444595,26.9441072 65.0506895,26.5614104 65.1339759,26.1020585 C65.1858114,25.801802 65.3081201,25.5301828 65.4953688,25.2909611 C65.6840735,25.0497146 65.928982,24.8596679 66.2260173,24.7167713 C66.5245086,24.5756102 66.8288242,24.5024263 67.1331398,24.5024263 C67.4298838,24.5024263 67.6980892,24.5756102 67.9354262,24.7167713 C68.1730544,24.8596679 68.3477811,25.0581033 68.4590237,25.3120774 C68.5688103,25.5695227 68.5996786,25.8376708 68.5490079,26.1199929 C68.4986284,26.4005793 68.3745725,26.6687274 68.1785875,26.9206767" id="Fill-35" fill="rgb(243, 115, 39)" mask="url(#mask-2)"></path>
                <path d="M76.1321626,24 L75.4122889,24 L75.2541613,24.893827 C74.9230543,24.2985209 74.4026601,24 73.6883194,24 C73.0642541,24 72.4955189,24.2267833 71.9844435,24.6791928 C71.4695824,25.1313131 71.1547832,25.6748409 71.0432494,26.3129582 C70.9279298,26.958307 71.0432494,27.5050168 71.3889169,27.9577155 C71.7377878,28.4185137 72.223819,28.6473219 72.8499228,28.6473219 C73.5392194,28.6473219 74.1723122,28.3508259 74.7448331,27.7537841 L74.5881616,28.6473219 L75.3080353,28.6473219 L76.1321626,24 Z M74.6475686,27.1477752 C74.4641057,27.3872861 74.2320105,27.5802255 73.9495357,27.7196509 C73.6653137,27.8628368 73.3790533,27.9325495 73.0927928,27.9325495 C72.8047851,27.9325495 72.5531787,27.8628368 72.3298198,27.7196509 C72.1050049,27.5784899 71.9430916,27.3803438 71.8405853,27.1246341 C71.7377878,26.8709492 71.7127436,26.6025118 71.7631231,26.3184542 C71.8135026,26.0361321 71.934064,25.7676948 72.1283018,25.5140099 C72.5278434,24.9829204 73.0427045,24.7150616 73.6688083,24.7150616 C74.1332899,24.7150616 74.489441,24.8703966 74.7427947,25.1833807 C74.9932362,25.4960755 75.0779786,25.8802186 74.998478,26.3323389 C74.9446039,26.6331739 74.8275371,26.9082643 74.6475686,27.1477752 L74.6475686,27.1477752 Z" id="Fill-37" fill="rgb(243, 115, 39)" mask="url(#mask-2)"></path>
                <path d="M80.8894336,24.4720536 C80.5239638,24.0161729 80.0128884,23.7873647 79.359702,23.7873647 C78.6342952,23.7873647 77.9755758,24.0858856 77.3855822,24.6811917 L77.8608387,22 L77.1409649,22 L76,28.4349759 L76.7198737,28.4349759 L76.8765453,27.5411489 C77.2309491,28.1381906 77.7795908,28.4349759 78.5192669,28.4349759 C79.170706,28.4349759 79.7647765,28.2081926 80.2991488,27.7557831 C80.8338123,27.3033735 81.1573478,26.7583994 81.2691729,26.1199929 C81.3821627,25.4766688 81.2546123,24.9299591 80.8894336,24.4720536 M80.1785875,26.9206767 C79.7551666,27.4552374 79.2138052,27.7199143 78.5536298,27.7199143 C78.0603182,27.7199143 77.6811614,27.5663149 77.4144121,27.2536201 C77.1447507,26.9441072 77.0509807,26.5614104 77.1336846,26.1020585 C77.1858114,25.801802 77.3084113,25.5301828 77.4953688,25.2909611 C77.6843648,25.0497146 77.928982,24.8596679 78.2260173,24.7167713 C78.5247999,24.5756102 78.8288242,24.5024263 79.1331398,24.5024263 C79.4295926,24.5024263 79.697798,24.5756102 79.9357174,24.7167713 C80.1730544,24.8596679 80.3477811,25.0581033 80.4590237,25.3120774 C80.5688103,25.5695227 80.5993874,25.8376708 80.5492991,26.1199929 C80.4986284,26.4005793 80.3739901,26.6687274 80.1785875,26.9206767" id="Fill-39" fill="rgb(243, 115, 39)" mask="url(#mask-2)"></path>
                <path d="M88.1323355,24 L87.4124618,24 L87.2537518,24.893827 C86.922936,24.2985209 86.402833,24 85.6884923,24 C85.0638446,24 84.4954006,24.2267833 83.9843252,24.6791928 C83.4694641,25.1313131 83.1546649,25.6748409 83.0431311,26.3129582 C82.9281027,26.958307 83.0431311,27.5050168 83.3885074,27.9577155 C83.7376695,28.4185137 84.2234095,28.6473219 84.8498045,28.6473219 C85.5391011,28.6473219 86.1724851,28.3508259 86.7447148,27.7537841 L86.5880433,28.6473219 L87.3082082,28.6473219 L88.1323355,24 Z M86.6474503,27.1477752 C86.4636962,27.3872861 86.2318922,27.5802255 85.9494174,27.7196509 C85.6649042,27.8628368 85.378935,27.9325495 85.0923833,27.9325495 C84.804958,27.9325495 84.5527692,27.8628368 84.3297015,27.7196509 C84.1048866,27.5784899 83.942682,27.3803438 83.840467,27.1246341 C83.7376695,26.8709492 83.7123341,26.6025118 83.7630048,26.3184542 C83.8133843,26.0361321 83.9339457,25.7676948 84.1281835,25.5140099 C84.5277251,24.9829204 85.0425862,24.7150616 85.66869,24.7150616 C86.1328804,24.7150616 86.4890315,24.8703966 86.7426764,25.1833807 C86.9931179,25.4960755 87.0775691,25.8802186 86.9980684,26.3323389 C86.9447768,26.6331739 86.82771,26.9082643 86.6474503,27.1477752 L86.6474503,27.1477752 Z" id="Fill-41" fill="rgb(243, 115, 39)" mask="url(#mask-2)"></path>
                <polygon id="Fill-43" fill="rgb(243, 115, 39)" mask="url(#mask-2)" points="91.8745631 26 88.095226 26 88 26.5362962 91.7793371 26.5362962"></polygon>
                <path d="M93.7059144,22.1304582 C93.6339852,22.0445467 93.532935,22 93.4088791,22 C93.284532,22 93.1695036,22.0445467 93.0687446,22.1304582 C92.9662383,22.2198409 92.905084,22.327158 92.8835343,22.4503847 C92.8599463,22.5718757 92.8852816,22.6757216 92.9592492,22.7633688 C93.0311784,22.8527515 93.1281516,22.893827 93.2504603,22.893827 C93.3745162,22.893827 93.4898358,22.8527515 93.5940893,22.7648151 C93.6951396,22.6791928 93.7597884,22.5718757 93.7830853,22.4503847 C93.8049261,22.327158 93.7792996,22.2198409 93.7059144,22.1304582 L93.7059144,22.1304582 Z M93.5437098,23.787654 L92.8241273,23.787654 L92,28.4349759 L92.7195825,28.4349759 L93.5437098,23.787654 Z" id="Fill-45" fill="rgb(243, 115, 39)" mask="url(#mask-2)"></path>
                <path d="M98.5530849,26.3146937 C98.6625802,25.7017425 98.678888,25.2423906 98.6031732,24.9470517 C98.5277495,24.6508449 98.3693307,24.4182763 98.1299552,24.2519493 C97.8888324,24.0841759 97.602572,24 97.2679705,24 C96.5859542,24 95.9598504,24.2985209 95.3855822,24.893827 L95.544001,24 L94.8241273,24 L94,28.6473219 L94.7198737,28.6473219 L95.0006012,27.0581033 C95.101069,26.4827564 95.2000808,26.089646 95.2938507,25.8802186 C95.4362529,25.5481431 95.6645624,25.2707385 95.974411,25.0471371 C96.2833859,24.8258499 96.6057565,24.7150616 96.9455998,24.7150616 C97.5431649,24.7150616 97.8600026,25.0046153 97.8996073,25.5799622 C97.9103821,25.7587276 97.8725246,26.0913816 97.7842877,26.5811063 L97.4188178,28.6473219 L98.1389827,28.6473219 L98.5530849,26.3146937 Z" id="Fill-47" fill="rgb(243, 115, 39)" mask="url(#mask-2)"></path>
                <path d="M104.078973,27.3962533 C103.601969,27.7534949 103.033234,27.9325495 102.3783,27.9325495 C102.018654,27.9325495 101.708806,27.8625476 101.447881,27.7234114 C101.184917,27.5836967 100.994465,27.3852613 100.873904,27.1315764 C100.749848,26.8758667 100.717523,26.6025118 100.767903,26.3129582 C100.848568,25.8481103 101.102213,25.4657027 101.529128,25.1582147 C101.944687,24.863165 102.41441,24.7147723 102.943541,24.7147723 C103.62381,24.7147723 104.127605,24.893827 104.458712,25.2510685 L104.962507,24.9829204 C104.861748,24.7740715 104.723131,24.6002236 104.551899,24.4610875 C104.163424,24.1535994 103.654096,24 103.03003,24 C102.547494,24 102.088545,24.1035567 101.662212,24.3092236 C101.233549,24.5166262 100.873904,24.8006839 100.587934,25.1668926 C100.298179,25.5336799 100.114716,25.9305506 100.039002,26.3595297 C99.9201874,27.0280198 100.073073,27.5784899 100.494456,28.0129651 C100.904481,28.438473 101.458655,28.6473219 102.162513,28.6473219 C103.132537,28.6473219 103.904246,28.3256599 104.484047,27.6837822 L104.078973,27.3962533 Z" id="Fill-49" fill="rgb(243, 115, 39)" mask="url(#mask-2)"></path>
                <path d="M105.737858,27.2374861 C105.697962,27.0801262 105.617296,27 105.492949,27 C105.253865,27 105.098941,27.2036421 105.028759,27.6057197 C104.949549,28.0367236 105.034292,28.2510685 105.278909,28.2510685 C105.514499,28.2510685 105.669423,28.0471371 105.743391,27.6343568 C105.768435,27.4876998 105.76494,27.3572415 105.737858,27.2374861" id="Fill-51" fill="rgb(243, 115, 39)" mask="url(#mask-2)"></path>
                <path d="M111.078826,27.3962533 C110.602114,27.7534949 110.033379,27.9325495 109.378154,27.9325495 C109.018508,27.9325495 108.708951,27.8625476 108.448026,27.7234114 C108.185062,27.5836967 107.99461,27.3852613 107.874049,27.1315764 C107.749701,26.8758667 107.717377,26.6025118 107.768048,26.3129582 C107.848713,25.8481103 108.102358,25.4657027 108.528982,25.1582147 C108.94454,24.863165 109.414264,24.7147723 109.943394,24.7147723 C110.623663,24.7147723 111.127458,24.893827 111.458857,25.2510685 L111.962361,24.9829204 C111.861602,24.7740715 111.723276,24.6002236 111.552044,24.4610875 C111.163569,24.1535994 110.654241,24 110.029593,24 C109.547347,24 109.08869,24.1035567 108.662066,24.3092236 C108.233694,24.5166262 107.874049,24.8006839 107.588079,25.1668926 C107.298033,25.5336799 107.11457,25.9305506 107.038855,26.3595297 C106.920332,27.0280198 107.073218,27.5784899 107.494018,28.0129651 C107.904626,28.438473 108.4588,28.6473219 109.162657,28.6473219 C110.13239,28.6473219 110.904391,28.3256599 111.483901,27.6837822 L111.078826,27.3962533 Z" id="Fill-53" fill="rgb(243, 115, 39)" mask="url(#mask-2)"></path>
                <path d="M117.697093,24.7402276 C117.292018,24.2484781 116.718041,24 115.974871,24 C115.227914,24 114.563953,24.2484781 113.989976,24.7436988 C113.46434,25.195819 113.146047,25.7266192 113.039755,26.334653 C112.921232,26.9886798 113.068293,27.5394392 113.473368,27.9825923 C113.878442,28.4274809 114.43815,28.6476111 115.152491,28.6476111 C115.859551,28.6476111 116.498468,28.4274809 117.059923,27.9805674 C117.623125,27.5339432 117.959474,26.9852086 118.07858,26.334653 C118.18458,25.7196769 118.058486,25.1906123 117.697093,24.7402276 M116.973434,27.1477752 C116.539529,27.6733686 115.974871,27.9325495 115.274799,27.9325495 C114.94544,27.9325495 114.657432,27.8645724 114.403787,27.725147 C114.150142,27.589482 113.964932,27.3927822 113.849613,27.1370724 C113.737788,26.8906192 113.709249,26.6224711 113.759628,26.3381242 C113.838838,25.8964174 114.077922,25.5160347 114.482997,25.195819 C114.884285,24.8779175 115.339448,24.7150616 115.845282,24.7150616 C116.352863,24.7150616 116.748327,24.8779175 117.041868,25.195819 C117.329876,25.5160347 117.437624,25.8964174 117.358706,26.3381242 C117.304541,26.6276778 117.17699,26.8995864 116.973434,27.1477752" id="Fill-55" fill="rgb(243, 115, 39)" mask="url(#mask-2)"></path>
                <path d="M126.637301,26.1735327 C126.738351,25.6088886 126.752621,25.1833807 126.682148,24.8990338 C126.527806,24.301992 126.102929,24 125.408099,24 C124.65794,24 124.010286,24.3575308 123.47009,25.0723031 C123.41971,24.8096511 123.343995,24.6094801 123.237995,24.462823 C123.004152,24.1556242 122.648001,24 122.164008,24 C121.523344,24 120.931021,24.2985209 120.385582,24.893827 L120.544292,24 L119.824419,24 L119,28.6476111 L119.720165,28.6476111 L120.049525,26.7992116 C120.144459,26.2539482 120.27434,25.8483995 120.436253,25.5799622 C120.589139,25.3245417 120.794443,25.1174284 121.050126,24.9600686 C121.314545,24.7992375 121.585954,24.7150616 121.86872,24.7150616 C122.100815,24.7150616 122.295053,24.7706004 122.44823,24.882835 C122.640429,25.0315169 122.739441,25.2623499 122.743227,25.5782266 C122.743227,25.7266192 122.709155,26.0057594 122.635188,26.4130436 L122.239141,28.6476111 L122.959306,28.6476111 L123.26333,26.9386371 C123.373116,26.3129582 123.504161,25.8677802 123.659086,25.5999214 C123.81401,25.3355337 124.022517,25.1206103 124.283442,24.9580437 C124.544659,24.7954771 124.819853,24.7150616 125.113394,24.7150616 C125.343742,24.7150616 125.537979,24.7685755 125.689118,24.874157 C125.874328,25.0135825 125.976834,25.220985 125.988192,25.4960755 C125.993142,25.6427325 125.964312,25.8984423 125.899664,26.264651 L125.478572,28.6476111 L126.198446,28.6476111 L126.637301,26.1735327 Z" id="Fill-57" fill="rgb(243, 115, 39)" mask="url(#mask-2)"></path>
                <path d="M42.6417826,3.3849681 L45.4518903,3.3849681 L47.3206404,18.7836922 L44.4375429,18.7836922 L43.9363228,14.6738976 L38.3526023,14.6738976 L36.0437147,18.7836922 L34,18.7836922 L42.6417826,3.3849681 Z M43.6936924,12.6242025 L42.9452654,6.485522 L39.4967783,12.6242025 L43.6936924,12.6242025 Z M53.2578619,3.3849681 L56.0679696,3.3849681 L53.1619726,16.5987381 L59.4778726,16.5987382 L58.7669788,18.7836922 L49.8713457,18.7836922 L53.2578619,3.3849681 Z M64.7589427,3.3849681 L67.5690504,3.3849681 L64.1825341,18.7836922 L61.3724264,18.7836922 L64.7589427,3.3849681 Z M70.0923845,3.3849681 L72.7473888,3.3849681 L72.7326888,14.6530885 L77.5373451,3.3849681 L79.8821428,3.3849681 L79.6257075,14.5906612 L84.6812228,3.3849681 L86.6245765,3.3849681 L79.6980545,18.7836922 L77.0156789,18.7836922 L77.2579788,8.22308073 L72.7548987,18.7836922 L70.0725232,18.7836922 L70.0923845,3.3849681 Z M87.128942,16.9628971 C86.2236727,15.4923809 86.0402855,13.5328782 86.5787748,11.0843301 C87.1233659,8.60803645 88.1731948,6.64159743 89.728293,5.18495409 C91.2833912,3.72831075 93.1101467,3 95.2086143,3 C97.2949168,3 98.7967675,3.72831075 99.7142115,5.18495409 C100.631655,6.64159743 100.820367,8.59763201 100.280353,11.0531165 C99.728134,13.5640922 98.6737336,15.5444038 97.1171196,16.9941107 C95.5605056,18.4438177 93.7086626,19.1686603 91.5615349,19.1686603 C89.5117275,19.1686603 88.0342113,18.4334132 87.128942,16.9628971 Z M95.2809211,15.4282269 C96.2206614,14.3496172 96.8934084,12.8877935 97.2991822,11.042712 C97.6927523,9.25312156 97.6557383,7.81730895 97.1881392,6.73523104 C96.7205401,5.65315313 95.9058727,5.11212229 94.7441124,5.11212229 C93.570187,5.11212229 92.5129887,5.65315313 91.5724857,6.73523104 C90.6319826,7.81730895 89.9626679,9.263526 89.5645214,11.0739256 C89.1694259,12.8704524 89.2014918,14.3149354 89.6607202,15.4074179 C90.1199486,16.4999004 90.9213072,17.0461334 92.0648199,17.0461334 C93.2691578,17.0461334 94.3411808,16.5068367 95.2809211,15.4282269 Z M105.128741,3.3849681 L110.183285,3.3849681 C112.926499,3.3849681 114.018167,4.65777783 113.458321,7.20343548 C113.249333,8.15372186 112.826381,9.01902439 112.189454,9.79936903 C111.552527,10.5797137 110.780782,11.1779689 109.874197,11.5941527 L112.708944,18.7836922 L109.287546,18.7836922 L107.323492,12.4889435 L105.772458,12.4889435 L104.388105,18.7836922 L101.742225,18.7836922 L105.128741,3.3849681 Z M106.884745,10.3768212 C108.922387,10.3768212 110.147891,9.43695351 110.561292,7.55718996 C110.863334,6.18378338 110.10503,5.49709039 108.286358,5.49709039 L107.31012,5.49709039 L106.23696,10.3768212 L106.884745,10.3768212 Z M118.655289,3.3849681 L121.355912,3.3849681 L119.712994,10.8554302 L126.519941,3.3849681 L128.855615,3.3849681 L122.655787,10.2935848 L126.600441,18.7836922 L123.087806,18.7836922 L119.635196,11.2091846 L117.969396,18.7836922 L115.268773,18.7836922 L118.655289,3.3849681 Z" id="ALIWORK" fill="rgb(243, 115, 39)" mask="url(#mask-2)"></path>
            </g>
        </g>
    </g>
</svg>