<svg xmlns="http://www.w3.org/2000/svg" width="480" height="238" viewBox="0 0 480 238"><path id="a" fill="none" fill-rule="evenodd" stroke="#e5e4e4" stroke-width="40" d="M209 84s-5.7-5.73-9-10c-3.38-4.4-12-14-12-14l-16-15-17.54-12.64S140.94 25 132.44 23c-3.68-.87-8.57-1.47-13.44-2-2.72-.3-4.83-.18-8 0-2.44.14-8.33.18-13 1-6.16 1.1-12 3-12 3l-14 6-16 10s-10.08 9.5-15 15c-4.73 5.28-12 18-12 18s-6.96 17.63-8 26c-1.02 8.2-1 22-1 22s2.94 23 7 32c4.06 9 13 21 13 21s10 12.64 17 18c5.7 4.36 17 11 17 11s20.33 6.23 30 7c4.54.36 13.88.4 22-1.47 9.73-2.24 20-6.53 20-6.53s8.22-5.35 17-11c8.74-5.62 24-22.3 24-22.3l43.2-45.66L272 80l22-23 21.72-19.78S331.56 27.44 340 24c7.26-2.96 26-3 26-3s21.76 2.26 32 6c8.84 3.23 23 15 23 15s11.53 12.54 16 19c4.86 7.03 11 22 11 22s4.23 15.07 5 22c.8 7.3 0 21 0 21s-.88 13.24-3 20c-2.53 8.08-11 23.7-11 23.7s-11.4 14.62-18 20.3c-7.53 6.48-21 14-21 14s-17.7 6.45-26 7c-8.6.57-27.3-1.47-27.3-1.47s-15.95-4.07-22.7-7.53c-7.84-4-22-14-22-14s-10.47-10-16-16c-6.13-6.63-20-21-20-21"/><circle r="20" fill="#e8ddd3"><animateMotion begin="0.24s" dur="3s" repeatCount="indefinite"><mpath xmlns:xlink="http://www.w3.org/1999/xlink" xlink:href="#a"/></animateMotion></circle><circle r="20" fill="#fbc79b"><animateMotion begin="0.16s" dur="3s" repeatCount="indefinite"><mpath xmlns:xlink="http://www.w3.org/1999/xlink" xlink:href="#a"/></animateMotion></circle><circle r="20" fill="#fe9f4f"><animateMotion begin="0.08s" dur="3s" repeatCount="indefinite"><mpath xmlns:xlink="http://www.w3.org/1999/xlink" xlink:href="#a"/></animateMotion></circle><circle r="20" fill="#ed6d00"><animateMotion begin="0s" dur="3s" repeatCount="indefinite"><mpath xmlns:xlink="http://www.w3.org/1999/xlink" xlink:href="#a"/></animateMotion></circle></svg>