<svg xmlns="http://www.w3.org/2000/svg" xmlns:xlink="http://www.w3.org/1999/xlink" viewBox="0 0 127.02 52"><defs><style>.cls-1{fill:url(#未命名的渐变_56);}.cls-2{fill:url(#未命名的渐变_56-2);}.cls-3{fill:url(#未命名的渐变_56-3);}.cls-4{fill:#fff;}</style><linearGradient id="未命名的渐变_56" x1="16.95" y1="15.21" x2="22.78" y2="4.26" gradientUnits="userSpaceOnUse"><stop offset="0" stop-color="#06f"/><stop offset="0.2" stop-color="#1677ff"/><stop offset="1" stop-color="#04a6ff"/></linearGradient><linearGradient id="未命名的渐变_56-2" x1="1.1" y1="33.52" x2="29.73" y2="23.1" xlink:href="#未命名的渐变_56"/><linearGradient id="未命名的渐变_56-3" x1="8.59" y1="18.66" x2="5.41" y2="6.78" xlink:href="#未命名的渐变_56"/></defs><title>画板 297</title><g id="内容"><path class="cls-1" d="M17.94,15.7a.81.81,0,0,1-.6-.57,1.75,1.75,0,0,1,0-.91c.28-1.57.53-3.14.9-4.69A9.73,9.73,0,0,1,19.7,6,4.17,4.17,0,0,1,22,4.34C23.54,4,24.2,5.48,23.65,6.78c-.46,1.1-1.58,1.66-2.4,2.45-1.49,1.45-2,3.89-2.4,5.84A.77.77,0,0,1,17.94,15.7Z"/><path class="cls-2" d="M15,13.71a3.34,3.34,0,0,1-1.59-.39c-.47-.27-1.1-.76-1.7-.55s-.89,1.13-1.4,1.57A14.63,14.63,0,0,1,8,15.77a16.63,16.63,0,0,0-2,1.37,15.22,15.22,0,1,0,22.93,4.34A15.43,15.43,0,0,0,23.69,16a15.26,15.26,0,0,0-7.39-2.28C15.88,13.71,15.46,13.73,15,13.71Z"/><path class="cls-3" d="M4.57,8A2.31,2.31,0,0,1,5.26,7a1.49,1.49,0,0,1,2.09.2c1.24,1.49.3,3.77.25,5.48a9.69,9.69,0,0,0,1,4.21,2.82,2.82,0,0,1,.33.78,1,1,0,0,1-.51,1.05c-.62.31-1-.35-1.27-.81A34.12,34.12,0,0,1,5.6,14.52a16.22,16.22,0,0,1-1.11-3.61c0-.22-.07-.45-.09-.68s0-.41,0-.61A4.47,4.47,0,0,1,4.57,8Z"/><path class="cls-4" d="M29.76,27c-.49-5.68-5-10.28-10.12-10.28s-8.8,4.6-8.31,10.25,5,10.27,10.07,10.29S30.26,32.65,29.76,27Zm-2.65,6.45a7,7,0,0,1-5.05,2.37,8.35,8.35,0,0,1-6-2.5A10.33,10.33,0,0,1,13,26.9a8.84,8.84,0,0,1,2-6.82,7,7,0,0,1,5.05-2.36h.23a8.39,8.39,0,0,1,5.93,2.62,10.37,10.37,0,0,1,2.95,6.33A8.87,8.87,0,0,1,27.11,33.41Z"/><path d="M85.2,23.72a7.9,7.9,0,0,0,5.56,3.5l.3-1.52a7.07,7.07,0,0,1-3.94-2h4v-1.5H84.4v-.78h6.2V20H84.69v-.69h5.5V17.93h-5.5v-.76h5.5v-1.4h-5.5v-.72H90.6V13.62H84.9a3,3,0,0,0,.86-.83l.29-.47-1.42-.78a7.8,7.8,0,0,1-.53.84,2.58,2.58,0,0,1-2.49,1.24H79.82c.53-.75.81-1.26.84-1.3l-1.42-.78a18.16,18.16,0,0,1-4,4.67l1,1.24.77-.68v3.15a1.33,1.33,0,0,0,1.52,1.52h4.23v.78H76.08v1.5h4a7.07,7.07,0,0,1-3.94,2l.29,1.52A7.92,7.92,0,0,0,82,23.72h.8v3.66H84.4V23.72Zm-2.13-5.79H78.61v-.76h4.46Zm0-2.88v.72H78.61v-.63l.08-.09ZM78.61,19.7v-.38h4.46V20H78.92C78.66,20,78.61,20,78.61,19.7Z"/><path d="M55.3,24.83a19.34,19.34,0,0,0,.39-5v-.7H53.53L54,12.54h-7V14h5.32l-.34,5.13H49.16l.31-4.31H47.92l-.42,5.82h6.57a14.25,14.25,0,0,1-.28,3.52c-.24.66-.67,1.4-2.28,1.4H49v1.54h2.6C53.54,27.14,54.73,26.4,55.3,24.83Z"/><path d="M46.76,25.82V23.9h5.58V22.29H46.76v1.59H45.15v1.57H43.86v-2.7h.74a1.73,1.73,0,0,0,1.84-1.84V14.1H43.86V12H42.25V14.1H39.74v8.65h2.51v2.7H39.71v1.69h5.74A1.21,1.21,0,0,0,46.76,25.82ZM44.83,15.67v5.27a.23.23,0,0,1-.23.23h-.74v-5.5Zm-3.47,5.5v-5.5h.89v5.5Z"/><path d="M108.76,24.5V12.35H94.15v15h11.72A2.59,2.59,0,0,0,108.76,24.5Zm-1.61,0a1.17,1.17,0,0,1-1.28,1.27H95.76V14h11.39Z"/><path d="M96.67,21.92l.56,1.52a13.75,13.75,0,0,0,6-4.4v3.05A1.18,1.18,0,0,1,102,23.23h-1.45v1.54h1.59a2.56,2.56,0,0,0,2.7-2.61v-4H106V16.61h-1.17V15H103.2v1.66H97v1.54h5A12.85,12.85,0,0,1,96.67,21.92Z"/><path d="M74.18,26.19a34.64,34.64,0,0,1-3.83-3.62,15.89,15.89,0,0,0,1.46-2.32A13.72,13.72,0,0,0,73,13.72H71.31a12.37,12.37,0,0,1-1,5.76,14.37,14.37,0,0,1-1,1.72,14.37,14.37,0,0,1-1-1.72,12.38,12.38,0,0,1-1-5.76H65.54a14,14,0,0,0,1.18,6.53,15.89,15.89,0,0,0,1.46,2.32,32.22,32.22,0,0,1-3.28,3.17V23.88H63.28v1.57H62v-2.7h.74a1.72,1.72,0,0,0,1.83-1.84V14.1H62V12H60.38V14.1h-2.5v8.65h2.5v2.7H57.85v1.69h5.73a1.26,1.26,0,0,0,1.12-.54l.74.88a36.34,36.34,0,0,0,3.83-3.6,37.19,37.19,0,0,0,3.82,3.6ZM63,15.67v5.27a.22.22,0,0,1-.22.23H62v-5.5Zm-3.47,5.5v-5.5h.89v5.5Z"/><path d="M68.7,16.71,70,16.54a36.78,36.78,0,0,0-.35-4.71l-1.59.23s0,.07,0,.18A40.09,40.09,0,0,1,68.7,16.71Z"/><path d="M122.86,30.73h-4.63V41.09a4.36,4.36,0,0,0,.91.09,4.65,4.65,0,0,0,.92-.09V37.74h2.86a3.38,3.38,0,0,0,3.61-3.55C126.53,32,125.1,30.73,122.86,30.73Zm-.3,5.39h-2.5V32.35h2.5c1.56,0,2.23.51,2.23,1.89S124,36.12,122.56,36.12Z"/><path d="M91.7,37.48c-.55-.44-1-.52-1-.62s.27,0,.72-.19a2.89,2.89,0,0,0,2.25-2.85c0-2.44-1.69-3.11-4.13-3.11H85.05V41.1a4.2,4.2,0,0,0,.9.09,4.36,4.36,0,0,0,.91-.09V37.16H88a3.06,3.06,0,0,1,1.9.44,6,6,0,0,1,1.37,1.65c.29.46,1,1.84,1,1.85h0a6,6,0,0,0,1.07.09,3.49,3.49,0,0,0,1-.14s-1.08-1.76-1.55-2.35A6.71,6.71,0,0,0,91.7,37.48Zm-2.46-1.87H86.86V32.24h2.7c1.56,0,2.29.31,2.29,1.58S90.8,35.61,89.24,35.61Z"/><path d="M114.31,30.73h0v6.16a2.62,2.62,0,1,1-5.23,0V30.73a4.7,4.7,0,0,0-1.83,0h0V37c0,3,1.95,4.36,4.43,4.36S116.13,40,116.13,37V30.73a4.65,4.65,0,0,0-1.82,0Z"/><path d="M78.21,32.19A4,4,0,0,1,81.68,34L83,33a5.39,5.39,0,0,0-5-2.46,5.23,5.23,0,0,0-5.28,5.41,5.07,5.07,0,0,0,5,5.37,5.48,5.48,0,0,0,2.06-.41A6.18,6.18,0,0,0,81,40.28c.14-.1.31-.22.42-.18s.1.14.1.25v.72h0a2.47,2.47,0,0,0,.69.09,2.14,2.14,0,0,0,.69-.11h0V35.51H78.23V37h3c0,1.11-1,2.66-3.3,2.66a3.45,3.45,0,0,1-3.43-3.71A3.68,3.68,0,0,1,78.21,32.19Z"/><path d="M100.33,30.53a5.39,5.39,0,1,0,5.39,5.39A5.39,5.39,0,0,0,100.33,30.53Zm0,9a3.59,3.59,0,1,1,3.59-3.59A3.59,3.59,0,0,1,100.33,39.51Z"/><path d="M60.36,32.38h3.76v8.71a5.22,5.22,0,0,0,1.93,0V32.38h3.77V30.71H60.36Z"/><path d="M57,30.7v7.53a65.08,65.08,0,0,0-5.3-7.53h0a4.15,4.15,0,0,0-.89-.09,4.31,4.31,0,0,0-.9.09V41.09h0a4.15,4.15,0,0,0,.89.09,4.27,4.27,0,0,0,.89-.09h0V33A96,96,0,0,1,57,41.09h0a4.2,4.2,0,0,0,.9.09,4.31,4.31,0,0,0,.9-.09h0V30.7a4,4,0,0,0-.89-.09A4.39,4.39,0,0,0,57,30.7Z"/><path d="M48.61,41l-.06-.22c0-.08,0-.15-.07-.22l-.27-.89-.14-.45-.14-.44-.29-.89-.3-.88-.16-.43c0-.15-.1-.3-.16-.44l-.32-.87c-.45-1.16-.92-2.31-1.44-3.44-.13-.29-.25-.57-.39-.85l-.15-.32H42.27l-.15.33-.39.85c-.51,1.13-1,2.28-1.42,3.44l-.33.87c0,.14-.11.29-.16.44l-.15.43c-.11.3-.21.59-.31.88l-.29.88-.15.44-.14.45-.27.88c0,.15-.09.3-.13.45l0,.08h0a4.39,4.39,0,0,0,.92.09,4.57,4.57,0,0,0,.93-.09v0l.26-.87.13-.44.14-.43.35-1.08a11.32,11.32,0,0,1,2.4-.09,8.86,8.86,0,0,1,2.26.49c.23.11.34.17.41.35l.1.32.14.43.12.44.26.87v0h0a4.33,4.33,0,0,0,.93.09,4.69,4.69,0,0,0,.91-.09h0ZM43.5,36.84a7.15,7.15,0,0,0-2,.31c0-.09.09-.32.12-.4l.31-.86c.42-1.13.87-2.26,1.35-3.37l.08-.18c0-.12.11-.15.16-.15s.1,0,.15.13l.09.2c.48,1.1.93,2.23,1.36,3.36l.3.85.1.27A10,10,0,0,0,43.5,36.84Z"/></g></svg>